<svg id="Layer_1" xmlns="http://www.w3.org/2000/svg" width="1440" height="440"><style>.st0{opacity:.15}.st2{fill:#80ce52}.st3{fill:#476d2e}.st4{fill:#5f993d}.st5{fill:#9eea6c}</style><g class="st0"><path d="M92.4 66.1c-.4-2.1-.5-3.2-.5-3.2s.1 1.2.5 3.2zm27-11.8s.8-.1 2.3-.1c-1.8-.2-2.3.1-2.3.1zm314.4 89.2c.3-.1.5-.1.5-.1s-.2 0-.5.1z" fill="#844318"/><path class="st2" d="M419.6 157.8c-.6-3.5 1.5-7.3 8.7-7.5 7.2-.1 15.5 6.2 15.5 6.2s-2.6-1.5-6.8.6c-4.3 2.1-4.2 4.6-9.6 5.6-4.5.7-7.4-2-7.8-4.9zm15.9-9.7c-2.3-3-2.2-7.5 4.4-11.2s17.4-1.9 17.4-1.9-3.2-.2-6 3.9c-2.9 4.1-1.6 6.3-6.1 9.9-3.7 2.8-7.8 1.7-9.7-.7zm-2.5-8.3c1.5-2 1.5-5-2.9-7.4s-11.5-1.3-11.5-1.3 2.1-.1 4 2.6 1.1 4.2 4 6.5c2.5 1.9 5.2 1.2 6.4-.4zm2.5-6.2c2.1 2.5 5.9 3.3 10.2-1.7 4.3-5 4.9-14.6 4.9-14.6s-.5 2.7-4.4 4.5c-3.9 1.7-5.6.2-9.4 3.4-3.2 2.7-3 6.4-1.3 8.4zm-26.9 35c-3.6 1-7.8-.7-8.8-8.2s4.6-16.9 4.6-16.9-1.3 2.9 1.4 7.1c2.7 4.2 5.3 3.8 6.9 9.4 1.4 4.4-1.1 7.7-4.1 8.6zm-8.7-.8c-1.3-2.1-4.1-3.2-8-.1-3.9 3.2-5.5 10.2-5.5 10.2s.7-2 3.9-2.7c3.2-.8 4.3.6 7.6-1.3 2.7-1.6 3.1-4.3 2-6.1zm-4.7-4.6c3.1-1 5.3-4.2 2.2-10.1-3.1-5.9-11.8-9.9-11.8-9.9s2.4 1.4 2.5 5.7c.2 4.3-1.9 5.3-.3 10 1.3 3.9 4.8 5.2 7.4 4.3zm-22.3 29.1c1.6-2.4 5-3.4 9.2.6s5.5 12.2 5.5 12.2-.6-2.3-4.3-3.5c-3.6-1.2-5 .3-8.7-2.2-2.9-1.9-3-5.1-1.7-7.1zm5.5-3.7c1.8.6 4-.1 4.7-3.9.8-3.8-1.7-8.7-1.7-8.7s.6 1.5-1 3.5c-1.5 2-2.8 1.8-3.8 4.5-.8 2.2.3 4 1.8 4.6zm5 .3c-1.4 2.1-1.1 5.1 3.6 7 4.7 2 11.8.1 11.8.1s-2.1.3-4.3-2.2c-2.2-2.5-1.5-4-4.7-6.1-2.6-1.4-5.2-.5-6.4 1.2zm-27.9 7c-2.7-.8-4.8-3.5-2.5-8.8s9.7-9.2 9.7-9.2-2 1.3-1.9 5.1 1.9 4.6.8 8.8c-.9 3.5-3.8 4.7-6.1 4.1zm-5.3-3.9c0-1.9-1.4-3.7-5.2-3.2-3.8.5-7.6 4.5-7.6 4.5s1.2-1 3.6-.3c2.4.8 2.6 2.1 5.5 2.1 2.3.1 3.6-1.5 3.7-3.1zm-1.3-4.8c2.4.6 5.1-.7 5.4-5.7s-3.7-11.1-3.7-11.1 1 1.9-.6 4.7-3.3 2.7-4.1 6.4c-.8 3 1 5.2 3 5.7zm-29.4 8.7c-2.1-.6-3.7-2.7-1.9-6.7 1.8-4 7.4-6.9 7.4-6.9s-1.5 1-1.4 3.9 1.5 3.5.6 6.7c-.8 2.6-3 3.5-4.7 3zm-4.1-2.9c0-1.4-1.1-2.8-3.9-2.4-2.9.4-5.8 3.4-5.8 3.4s.9-.8 2.7-.2c1.8.6 1.9 1.6 4.1 1.6 1.9 0 2.9-1.2 2.9-2.4zm-1-3.7c1.8.4 3.9-.5 4.1-4.3s-2.8-8.4-2.8-8.4.7 1.4-.5 3.6-2.5 2-3.1 4.9c-.5 2.2.8 3.8 2.3 4.2zm-19.6 12.4c-1.9-.5-3.3-2.4-1.7-6 1.6-3.6 6.6-6.2 6.6-6.2s-1.4.9-1.3 3.5 1.3 3.1.6 6c-.7 2.3-2.7 3.1-4.2 2.7zm-3.7-2.6c0-1.3-.9-2.5-3.5-2.2-2.6.4-5.2 3.1-5.2 3.1s.8-.7 2.5-.2c1.6.5 1.7 1.4 3.7 1.4 1.6 0 2.5-1.1 2.5-2.1zm-.9-3.4c1.6.4 3.5-.5 3.7-3.9s-2.6-7.6-2.6-7.6.7 1.3-.4 3.2c-1.1 2-2.2 1.8-2.8 4.4-.4 2.1.8 3.6 2.1 3.9zm-17.8 25.7c-2.3.5-4.8-.8-5.1-5.5-.3-4.7 3.6-10.3 3.6-10.3s-.9 1.7.6 4.5c1.5 2.7 3.1 2.6 3.9 6.1.6 2.9-1.1 4.9-3 5.2zm-5.3-.8c-.7-1.4-2.4-2.2-5-.4s-3.9 6.1-3.9 6.1.5-1.2 2.5-1.6c2-.3 2.6.5 4.8-.5 1.8-.8 2.1-2.5 1.6-3.6zm-2.8-3.1c2-.5 3.5-2.4 1.8-6.2s-6.9-6.7-6.9-6.7 1.4 1 1.3 3.7-1.4 3.2-.6 6.2c.7 2.5 2.8 3.4 4.4 3zm40.2-15.4c3.1.3 5.8 2.8 4.4 8.9-1.5 6.1-8.5 11.6-8.5 11.6s1.9-1.8 1-5.8c-.8-4-2.9-4.5-2.6-9.2.3-3.9 3.2-5.8 5.7-5.5zm6.5 3.1c.3 2 2.2 3.7 6.1 2.4s7.2-6.3 7.2-6.3-1.1 1.3-3.8 1c-2.7-.3-3.1-1.7-6.2-1.2-2.5.4-3.6 2.4-3.3 4.1zm2.3 4.9c-2.7-.2-5.3 1.7-4.7 7.1.7 5.4 6.1 11.1 6.1 11.1s-1.4-1.8-.3-5.2c1.1-3.3 3-3.5 3.2-7.6.2-3.3-2.1-5.3-4.3-5.4zm25.2-7.7c2.1.2 4 1.9 3 6.1-1 4.1-5.8 7.9-5.8 7.9s1.3-1.2.7-4c-.6-2.7-2-3.1-1.8-6.3.2-2.5 2.2-3.8 3.9-3.7zm4.4 2.2c.2 1.4 1.5 2.5 4.2 1.6s4.9-4.3 4.9-4.3-.7.9-2.6.7c-1.8-.2-2.1-1.2-4.2-.8-1.8.3-2.5 1.6-2.3 2.8zm1.5 3.3c-1.8-.1-3.6 1.1-3.2 4.8s4.2 7.5 4.2 7.5-.9-1.2-.2-3.5c.8-2.3 2-2.4 2.1-5.2.2-2.2-1.3-3.5-2.9-3.6zm74.7-62.3c1.2-1.5 1.2-3.9-2.3-5.8-3.4-1.9-9-1-9-1s1.6-.1 3.1 2 .8 3.3 3.2 5.1c2 1.5 4 1 5-.3zm-210.8-22.8c2.2-1.1 3.5-3.7.7-7.7s-9.5-6.1-9.5-6.1 1.9.8 2.3 4c.5 3.2-.9 4.1.7 7.5 1.4 2.6 4 3.2 5.8 2.3zm-8.8-5.8c1.1-2 .6-4.7-3.6-6.3-4.3-1.6-10.5.5-10.5.5s1.9-.4 4 1.8c2.1 2.1 1.5 3.6 4.6 5.3 2.3 1.4 4.6.3 5.5-1.3zm3.7 9.3c.4-2.2-1-4.6-5.5-4.7-4.6 0-9.8 4-9.8 4s1.6-1 4.3.3 2.7 2.9 6.1 3.5c2.7.5 4.6-1.2 4.9-3.1zM226 96c2.9-1.4 4.7-5 1-10.5-3.8-5.5-12.9-8.3-12.9-8.3s2.5 1.1 3.2 5.4-1.2 5.6.9 10.1c1.8 3.8 5.4 4.5 7.8 3.3zm-13.7-6.2c1.9-3.6 1.2-8.4-6.6-11.3-7.7-2.8-19 .8-19 .8s3.4-.7 7.1 3.2c3.8 3.9 2.8 6.5 8.2 9.6 4.6 2.4 8.7.6 10.3-2.3zm6.8 11c.5-3-1.3-6.3-7.5-6.4s-13.3 5.4-13.3 5.4 2.2-1.3 5.9.5 3.6 3.9 8.3 4.7c3.7.7 6.2-1.6 6.6-4.2zM230 66.4c1.8 1.1 4.4.7 6-3.3s-.2-9.9-.2-9.9.3 1.8-1.7 3.7c-2.1 1.9-3.4 1.4-5.1 4.2-1.4 2.2-.5 4.4 1 5.3zm-1.6-9.6c2.6-.3 4.9-2.4 3.7-7.6-1.3-5.2-7.3-9.8-7.3-9.8s1.6 1.5.9 4.9c-.7 3.4-2.5 3.8-2.1 7.8.2 3.3 2.6 4.9 4.8 4.7zm-3.5 7.6c1.8-.8 2.9-3 .7-6.3s-7.7-5.1-7.7-5.1 1.5.7 1.9 3.3-.8 3.3.5 6.1c1 2.2 3.1 2.7 4.6 2zm-7.5 51.6c-2.2-1.1-3.5-3.7-.7-7.7s9.5-6.1 9.5-6.1-1.9.8-2.4 4 .9 4.1-.7 7.5c-1.2 2.6-3.9 3.2-5.7 2.3zm8.9-5.8c-1.1-2-.6-4.7 3.6-6.3 4.3-1.6 10.5.5 10.5.5s-1.9-.4-4 1.8-1.5 3.6-4.6 5.3c-2.3 1.4-4.6.4-5.5-1.3zm-3.7 9.4c-.4-2.2 1-4.6 5.5-4.7 4.6-.1 9.8 4 9.8 4s-1.6-1-4.3.3-2.7 2.9-6.1 3.5c-2.8.4-4.7-1.3-4.9-3.1zM343.7 85c3.6 1.3 8.1-.1 9.7-7.8S350 59.4 350 59.4s1.1 3.1-2 7.2-5.8 3.5-7.9 9.1c-1.7 4.5.6 8.2 3.6 9.3zm-3.1-16.7c3.5-1 6.1-4.5 3.2-11.2s-12.2-11.7-12.2-11.7 2.5 1.7 2.3 6.5-2.5 5.8-1.1 11.2c1.2 4.5 4.9 6 7.8 5.2zM333.9 83c3-2.1 4.3-6.3-.7-11.6s-15.4-6.9-15.4-6.9 2.9.8 4.4 5.4-.4 6.3 2.7 10.9c2.5 3.7 6.6 3.9 9 2.2zm1.9 19c1.8-.5 3.1-2.3 1.6-5.7-1.5-3.4-6.3-6-6.3-6s1.3.9 1.2 3.3c-.1 2.5-1.3 3-.5 5.7.7 2.4 2.6 3.2 4 2.7zm-5.8-5.6c1.1-1.4 1.1-3.4-1.9-5.3-3-1.8-8-1.1-8-1.1s1.5 0 2.7 1.9c1.3 1.9.7 3 2.7 4.7 1.7 1.4 3.6.9 4.5-.2zm1.5 7.6c.6-1.6-.1-3.6-3.5-4.3-3.5-.7-7.9 1.6-7.9 1.6s1.4-.5 3.2.9c1.9 1.4 1.6 2.6 4.1 3.5 2 .7 3.6-.4 4.1-1.7zm-.6 22.5c-1.1 2.4-.3 5.5 4.8 6.9 5.1 1.4 12-1.5 12-1.5s-2.1.6-4.7-1.7-2.1-4-5.7-5.7c-3-1.3-5.6.1-6.4 2zm11.2-1.3c.5 2.4 2.7 4.3 7.3 2.6 4.6-1.7 8.4-7.6 8.4-7.6s-1.3 1.6-4.5 1.3c-3.2-.3-3.8-1.9-7.4-1.2-3 .5-4.2 2.9-3.8 4.9zm-9.5-5.1c1.3 2.1 4 3.1 7.8 0s5.3-10 5.3-10-.6 1.9-3.8 2.7c-3.1.8-4.2-.5-7.4 1.4-2.6 1.5-2.9 4.1-1.9 5.9zM290.5 155c-1.5 3.3-.4 7.5 6.6 9.5s16.6-2.1 16.6-2.1-2.9.9-6.5-2.3c-3.6-3.1-2.9-5.5-7.9-7.9-4.1-1.8-7.6.1-8.8 2.8zm15.6-1.9c.7 3.3 3.8 5.9 10.2 3.6 6.4-2.3 11.5-10.6 11.5-10.6s-1.7 2.2-6.2 1.8c-4.4-.4-5.2-2.6-10.3-1.7-4.1.8-5.8 4.2-5.2 6.9zM293 146c1.7 2.9 5.5 4.3 10.8 0 5.2-4.3 7.3-13.8 7.3-13.8s-.9 2.7-5.2 3.7c-4.3 1.1-5.8-.7-10.3 1.9-3.6 2.2-4.1 5.9-2.6 8.2zm-38.6 51.3c2.1 2.1 5.6 2.6 9.2-2.2s3.4-13.3 3.4-13.3-.2 2.5-3.7 4.3-5.1.6-8.3 3.7c-2.7 2.5-2.3 5.8-.6 7.5zm3.2-12.4c2.7.5 5.6-1.1 5.8-6.7.1-5.6-4.6-11.9-4.6-11.9s1.2 2-.5 5.2c-1.7 3.3-3.6 3.2-4.3 7.3-.7 3.4 1.4 5.7 3.6 6.1zm-9.3 7.9c2.7-.5 5-2.9 3.2-8.2-1.7-5.3-8.4-9.7-8.4-9.7s1.8 1.5 1.3 5.1-2.3 4.2-1.6 8.4c.6 3.3 3.3 4.8 5.5 4.4zm32.5-35.9c2.3 0 4.5-1.7 3.8-6.3s-5.5-9.1-5.5-9.1 1.2 1.4.4 4.4c-.9 2.9-2.4 3.1-2.5 6.6-.1 2.8 2 4.4 3.8 4.4zm-5.1-8.6c1.7-1.3 2.5-3.7-.5-6.8s-9.1-3.9-9.1-3.9 1.7.4 2.6 3.1c.9 2.7-.2 3.7 1.7 6.4 1.5 2.2 3.9 2.3 5.3 1.2zm-.7 9.5c1.2-1.7 1.1-4.3-2.8-6.2s-9.9-.6-9.9-.6 1.8-.2 3.5 2c1.8 2.2 1.1 3.5 3.7 5.4 2.3 1.5 4.5.8 5.5-.6zm97.7 85.6c-2.7 2.2-3.6 6.4 1.6 11.1s15.3 5.4 15.3 5.4-2.9-.5-4.7-4.8c-1.8-4.3-.1-6.1-3.5-10.2-2.6-3.4-6.5-3.3-8.7-1.5zm14.3 5.2c-.8 3.1.7 6.8 7.2 7.5 6.6.8 14.6-4.2 14.6-4.2s-2.5 1.2-6.1-1.1c-3.7-2.3-3.4-4.6-8.2-5.9-3.9-1.1-6.8 1.1-7.5 3.7zm-8.3-11.9c.3 3.2 2.9 6.2 9.3 4.7s12.4-8.8 12.4-8.8-2 1.9-6.2 1c-4.2-1-4.7-3.1-9.7-2.8-4 .2-6 3.2-5.8 5.9zm-36.4 13.2c-2.1 1.7-2.8 4.9 1.2 8.6 4.1 3.7 11.9 4.2 11.9 4.2s-2.2-.4-3.6-3.7c-1.4-3.3-.1-4.7-2.7-8-2-2.6-5.1-2.5-6.8-1.1zm11.2 4.1c-.7 2.4.5 5.3 5.6 5.9s11.3-3.2 11.3-3.2-1.9.9-4.8-.9c-2.8-1.8-2.6-3.5-6.4-4.6-2.9-1-5.2.7-5.7 2.8zm-6.5-9.3c.2 2.5 2.3 4.8 7.3 3.7s9.6-6.9 9.6-6.9-1.5 1.5-4.8.8-3.7-2.4-7.5-2.2c-3.2.2-4.8 2.6-4.6 4.6zm-22.4 17.8c-1.6 1.3-2.1 3.8 1 6.6s9.1 3.2 9.1 3.2-1.7-.3-2.8-2.8c-1-2.5-.1-3.6-2.1-6.1-1.6-2-3.9-2-5.2-.9zm8.5 3.1c-.5 1.9.4 4 4.3 4.5s8.7-2.5 8.7-2.5-1.5.7-3.6-.7c-2.2-1.4-2-2.7-4.9-3.5-2.3-.7-4.1.6-4.5 2.2zm-4.9-7.1c.2 1.9 1.7 3.7 5.5 2.8 3.8-.9 7.3-5.2 7.3-5.2s-1.2 1.1-3.7.6c-2.5-.6-2.8-1.9-5.8-1.7-2.3.2-3.4 2-3.3 3.5zM309.3 279c-1.1.9-1.5 2.6.7 4.5 2.1 1.9 6.2 2.2 6.2 2.2s-1.2-.2-1.9-2c-.7-1.7-.1-2.5-1.4-4.2-1.1-1.3-2.7-1.3-3.6-.5zm5.9 2.1c-.3 1.3.3 2.8 2.9 3.1 2.7.3 5.9-1.7 5.9-1.7s-1 .5-2.5-.5c-1.5-.9-1.4-1.9-3.3-2.4-1.6-.5-2.8.4-3 1.5zm-3.4-4.8c.1 1.3 1.2 2.5 3.8 1.9 2.6-.6 5-3.6 5-3.6s-.8.8-2.5.4-1.9-1.3-3.9-1.1c-1.7 0-2.5 1.3-2.4 2.4zm3-14.5c1.6.5 3.6-.3 4.1-3.7.5-3.4-2-7.7-2-7.7s.6 1.3-.7 3.2c-1.3 1.9-2.4 1.7-3.2 4.2-.7 2.1.5 3.6 1.8 4zm-1.8-7.2c1.5-.5 2.6-2.1 1.1-5s-5.7-4.8-5.7-4.8 1.1.7 1.2 2.8-.9 2.6-.1 5c.5 1.8 2.2 2.4 3.5 2zm-2.6 6.6c1.3-1 1.7-2.9-.7-5.1-2.4-2.2-7-2.6-7-2.6s1.3.3 2.1 2.2c.8 2 0 2.8 1.5 4.7 1.3 1.7 3.1 1.6 4.1.8zm25.4-16.1c2.1.4 4.5-.8 4.7-5.2s-3.5-9.6-3.5-9.6.9 1.6-.5 4.2-2.9 2.5-3.6 5.8c-.5 2.6 1.1 4.5 2.9 4.8zm-3.3-9c1.9-.8 3-3 .8-6.5-2.3-3.5-7.9-5.4-7.9-5.4s1.6.7 1.9 3.4c.4 2.7-.8 3.5.4 6.3 1.1 2.4 3.3 2.9 4.8 2.2zm-2.3 8.8c1.5-1.4 1.8-3.9-1.5-6.4s-9.2-2.4-9.2-2.4 1.7.2 2.9 2.6.4 3.5 2.5 5.8c1.8 1.8 4 1.6 5.3.4zm35.4-6.2c2.7 1.5 6.5.9 8.8-5 2.2-6-.6-14.7-.6-14.7s.5 2.6-2.5 5.5-5 2.1-7.4 6.3c-1.9 3.5-.5 6.7 1.7 7.9zm-.4-13.7c2.9-.3 5.5-2.8 3.9-8.6-1.5-5.8-8.4-10.9-8.4-10.9s1.8 1.7 1.1 5.5-2.7 4.3-2.2 8.8c.4 3.8 3.2 5.4 5.6 5.2zm-7.2 10.9c2.6-1.3 4.2-4.5.8-9.4-3.4-4.9-11.5-7.4-11.5-7.4s2.3 1 2.9 4.8c.6 3.9-1.1 5 .9 9.1 1.5 3.3 4.7 4 6.9 2.9zm-29.9-66.3c1.3.5 2.9-.1 3.4-2.8.6-2.7-1.2-6.3-1.2-6.3s.4 1.1-.7 2.5c-1.1 1.5-2 1.3-2.8 3.2-.6 1.7.3 3 1.3 3.4zm-1.1-5.9c1.2-.3 2.2-1.6 1.1-4s-4.3-4.1-4.3-4.1.9.6.8 2.3-.9 2-.4 3.9c.5 1.7 1.8 2.2 2.8 1.9zm-2.3 5.2c1-.7 1.5-2.2-.3-4.1-1.8-1.9-5.5-2.4-5.5-2.4s1 .3 1.6 1.9c.5 1.6-.1 2.2 1 3.8.9 1.3 2.3 1.4 3.2.8zm47.9-15.9c.7 1.7 2.6 2.8 5.7 1 3.2-1.8 5.1-6.7 5.1-6.7s-.7 1.3-3.1 1.5-3-.9-5.6.1c-2.1.8-2.7 2.7-2.1 4.1zm4.8-6.3c1.4.9 3.5.7 4.9-2.4 1.4-3.1.2-7.9.2-7.9s.2 1.4-1.5 2.8-2.8 1-4.2 3.1c-1.2 1.9-.6 3.7.6 4.4zm-7.2 2.3c1.6.4 3.5-.5 3.8-3.9s-2.4-7.5-2.4-7.5.7 1.3-.5 3.2c-1.1 1.9-2.3 1.8-2.9 4.3-.5 2.1.7 3.5 2 3.9zm-269.9-48.1c-.2-1.8-1.8-3.3-5.3-2.3s-6.5 5.2-6.5 5.2 1-1.1 3.4-.7 2.7 1.6 5.4 1.3c2.2-.3 3.2-2 3-3.5zm-6.2 4.9c-1.1-1.2-3.1-1.6-5.3 1.1-2.1 2.7-2.1 7.5-2.1 7.5s.2-1.4 2.2-2.4 2.9-.2 4.8-2c1.5-1.3 1.4-3.2.4-4.2zm7.5-.5c-1.5-.8-3.5-.4-4.6 2.8-1.1 3.2.5 7.8.5 7.8s-.3-1.4 1.2-3c1.6-1.6 2.7-1.2 3.9-3.5 1-1.7.2-3.4-1-4.1zm12.2-.1c1.3 1.2 3.5 1.3 5.5-1.8s1.5-8.2 1.5-8.2 0 1.5-2 2.8-3.1.6-4.9 2.6c-1.6 1.7-1.2 3.7-.1 4.6zm1.4-7.7c1.7.2 3.4-.9 3.2-4.3-.2-3.4-3.3-7.1-3.3-7.1s.8 1.2-.1 3.2c-.9 2.1-2 2.1-2.3 4.7-.2 2.1 1.1 3.4 2.5 3.5zm-5.3 5.2c1.6-.4 2.9-2 1.6-5.1s-5.5-5.5-5.5-5.5 1.1.8 1 3-1.2 2.7-.6 5.2c.4 2 2.2 2.8 3.5 2.4zm-9.4-20c2.6-.8 4.4-3.5 2.1-8.4-2.4-4.9-9.4-8.3-9.4-8.3s1.9 1.2 1.9 4.8c0 3.6-1.7 4.4-.5 8.3.9 3.3 3.8 4.3 5.9 3.6zm-8.8-7.8c1.5-2 1.5-5-3-7.5-4.5-2.4-11.6-1.2-11.6-1.2s2.1-.1 4.1 2.6 1.1 4.2 4.2 6.6c2.3 1.9 5 1.2 6.3-.5zm2.5 10.9c.7-2.4-.3-5.2-5.3-6.1-5-.8-11.4 2.8-11.4 2.8s2-.8 4.7 1.1 2.5 3.6 6.1 4.8c3 .9 5.3-.6 5.9-2.6zM193 228.9c2.5 2.8 7.1 3.6 12-2.3s5.2-17 5.2-17-.4 3.2-5 5.3-6.6.4-11 4.3c-3.6 3.1-3.3 7.4-1.2 9.7zm5-15.9c3.5.8 7.4-1.1 7.9-8.2.5-7.2-5.2-15.8-5.2-15.8s1.4 2.6-1 6.7-4.8 3.9-6.1 9.2c-1 4.4 1.5 7.5 4.4 8.1zm-12.6 9.7c3.5-.4 6.6-3.5 4.7-10.4-1.9-6.9-10.2-13.1-10.2-13.1s2.2 2 1.4 6.7-3.2 5.3-2.6 10.7c.4 4.4 3.8 6.4 6.7 6.1zm-33.6-25.4c2.6-1 4.3-4 1.5-8.9-2.9-4.9-10.5-8-10.5-8s2.1 1.1 2.4 4.8c.3 3.7-1.4 4.7.2 8.7 1.2 3.4 4.2 4.2 6.4 3.4zm5.4 10.2c.1 2.4 1.9 4.6 6.7 3.8s9.4-6 9.4-6-1.5 1.3-4.5.5c-3.1-.9-3.3-2.5-7-2.4-3.1 0-4.7 2.2-4.6 4.1zm8.8-5.5c1.3 1.8 3.9 2.5 7.1-.7 3.2-3.2 3.9-9.6 3.9-9.6s-.4 1.8-3.2 2.8-3.9-.1-6.6 1.9c-2.3 1.6-2.3 4.1-1.2 5.6zm-9.9-.5c1.9 1.2 4.6 1 6.5-3.1s.4-10.4.4-10.4.2 1.9-2.1 3.7c-2.3 1.9-3.7 1.2-5.6 4-1.5 2.4-.7 4.8.8 5.8zm-8 1.1c-.1-2.1-1.7-4.1-6-3.4-4.3.8-8.4 5.4-8.4 5.4s1.3-1.2 4.1-.5c2.7.8 3 2.2 6.3 2.2 2.7-.1 4.1-2 4-3.7zm-7.9 5c-1.2-1.6-3.5-2.2-6.4.7-2.8 2.9-3.5 8.6-3.5 8.6s.4-1.6 2.9-2.5 3.5.1 5.9-1.7c2.1-1.6 2.1-3.8 1.1-5.1zm8.9.4c-1.7-1.1-4.1-.9-5.8 2.8s-.4 9.3-.4 9.3-.2-1.7 1.8-3.4c2.1-1.7 3.3-1.1 5-3.6 1.5-2.1.8-4.2-.6-5.1zm-65.3-61.3c2.3-1.6 3.3-4.9-.6-9-3.9-4.2-12-5.3-12-5.3s2.3.6 3.5 4.2c1.1 3.6-.3 4.9 2.2 8.5 1.8 2.8 5 2.9 6.9 1.6zm7.6 8.7c.6 2.3 2.9 4.1 7.4 2.2 4.4-1.9 7.7-8 7.7-8s-1.1 1.6-4.3 1.5c-3.2-.1-3.8-1.7-7.4-.8-2.9.8-4 3.2-3.4 5.1zm7.3-7.4c1.7 1.4 4.4 1.5 6.8-2.3 2.3-3.9 1.6-10.3 1.6-10.3s0 1.9-2.5 3.5-3.8.8-6 3.4c-1.9 2.1-1.4 4.5.1 5.7zm-9.8 1.8c2.1.8 4.7-.1 5.6-4.5s-2-10.2-2-10.2.6 1.8-1.1 4.1c-1.8 2.4-3.3 2-4.5 5.2-1 2.7.3 4.8 2 5.4zm-7.5 2.9c-.6-2.1-2.6-3.6-6.6-1.9-4 1.7-6.9 7.2-6.9 7.2s1-1.5 3.9-1.4c2.8.1 3.4 1.5 6.6.7 2.5-.7 3.5-2.9 3-4.6zm-6.5 6.7c-1.5-1.3-4-1.3-6.1 2.1-2.1 3.5-1.4 9.2-1.4 9.2s0-1.7 2.2-3.1c2.2-1.4 3.4-.7 5.4-3.1 1.6-1.9 1.2-4.1-.1-5.1zm8.7-1.7c-1.9-.7-4.2.1-5 4-.8 4 1.8 9.1 1.8 9.1s-.6-1.6 1-3.7 3-1.8 4-4.7c.9-2.2-.2-4.1-1.8-4.7zm112.2 7.5l.7 1.1s.2-.1.5-.3.8-.6 1.3-1c1.1-.9 2.5-2.3 4.2-4s3.5-3.7 5.8-5.5c1.1-.9 2.4-1.7 3.8-2.3 1.4-.6 2.9-1.1 4.4-1.5s3.1-.6 4.6-.7c1.5-.1 3.1-.1 4.5 0 2.9.2 5.6.8 7.9 1.4 2.3.6 4.1 1.3 5.4 1.8 1.3.5 2 .8 2 .8s-.7-.3-2-.9c-1.3-.5-3.1-1.3-5.4-2-2.3-.7-5-1.3-7.9-1.6-1.5-.2-3-.2-4.6-.1-1.6.1-3.2.2-4.7.6-1.6.3-3.1.8-4.6 1.4-1.5.6-2.8 1.5-4 2.3-2.4 1.8-4.4 3.8-6.1 5.5-1.7 1.7-3.1 3-4.2 3.8-.5.4-1 .7-1.3.9-.1.2-.3.3-.3.3z"/><path class="st2" d="M361.7 195.6l4.6 3.7s.4-.7 1.1-1.8c.4-.6.7-1.3 1.1-2.2.4-.8.8-1.8 1.1-2.9 1.5-4.3 1.7-10.3.8-15.9-1-5.6-2.9-10.9-4.7-14.7-1.8-3.8-3.3-6.1-3.3-6.1s1.2 2.5 2.5 6.4 2.4 9.3 2.6 14.6c.2 5.4-.8 10.6-2.5 13.9-.4.9-.8 1.6-1.2 2.2-.4.6-.7 1.2-1.1 1.5-.6.8-1 1.3-1 1.3zM131.5 55.2c3.6 1.3 8.1-.1 9.7-7.8 1.6-7.7-3.4-17.8-3.4-17.8s1.1 3.1-2 7.2-5.8 3.5-7.9 9.1c-1.6 4.5.6 8.2 3.6 9.3zm-1.3 6.3c-.3 2.7 1.4 5.5 6.8 5.3 5.5-.1 11.5-5.1 11.5-5.1s-1.9 1.2-5.2-.2c-3.3-1.5-3.3-3.3-7.4-3.9-3.3-.5-5.5 1.7-5.7 3.9zm-2.8-2.3c-1.7-1.1-4-.9-5.7 2.8-1.7 3.7-.3 9.2-.3 9.2s-.2-1.6 1.8-3.3c2-1.7 3.3-1.1 4.9-3.6 1.4-2.2.7-4.2-.7-5.1zm-4.3-2.9c3-2.1 4.3-6.3-.7-11.6S107 37.8 107 37.8s2.9.8 4.4 5.4-.4 6.3 2.7 10.9c2.5 3.7 6.6 3.9 9 2.2zm2.2-14.5c1.8-1.3 2.6-3.8-.5-7.1s-9.5-4.2-9.5-4.2 1.8.5 2.7 3.3c.9 2.8-.2 3.9 1.7 6.7 1.6 2.3 4 2.4 5.6 1.3zM117 61c-1.5-1.6-4.2-2.1-7 1.4-2.9 3.5-3 9.9-3 9.9s.2-1.9 2.9-3.1c2.7-1.3 3.9-.3 6.4-2.5 2.2-1.8 2-4.3.7-5.7zm11.5 7.3c-1.6 1.6-1.9 4.3 1.7 6.9 3.6 2.7 10.1 2.4 10.1 2.4s-1.9-.1-3.3-2.7-.5-3.8-2.9-6.3c-1.9-1.9-4.3-1.6-5.6-.3zm51.7-21.4c.3 2 2.1 3.8 6.1 2.6s7.4-6.1 7.4-6.1-1.1 1.3-3.9.9c-2.7-.4-3.1-1.8-6.3-1.4-2.4.3-3.5 2.3-3.3 4zm7.1-5.7c1.3 1.4 3.6 1.7 6-1.4 2.4-3.1 2.4-8.7 2.4-8.7s-.2 1.6-2.5 2.8-3.3.3-5.5 2.3c-1.8 1.7-1.5 3.9-.4 5zm-8.6.6c1.7.9 4 .4 5.2-3.3s-.7-9-.7-9 .4 1.6-1.4 3.4c-1.8 1.9-3 1.4-4.4 4.1-1.1 2.2-.1 4.1 1.3 4.8zM145 114.6c1.8.2 3.8-.9 3.7-4.7-.1-3.8-3.5-8-3.5-8s.9 1.3-.2 3.6c-1 2.3-2.3 2.3-2.7 5.1-.3 2.4 1.2 3.8 2.7 4zm-3.2-7.5c1.5-.8 2.4-2.7.3-5.6-2.1-2.8-7-4.2-7-4.2s1.4.5 1.8 2.8c.4 2.3-.5 3 .7 5.4 1 2 2.9 2.3 4.2 1.6zm-1.6 7.6c1.2-1.3 1.3-3.4-1.6-5.4-2.9-2-8-1.6-8-1.6s1.5 0 2.6 2c1.2 2 .5 3 2.5 4.8 1.6 1.6 3.5 1.3 4.5.2z"/><path class="st2" d="M145.9 88.5c1.7.2 3.4-.8 3.4-4.2-.1-3.4-3.2-7.2-3.2-7.2s.8 1.2-.2 3.2c-.9 2-2.1 2.1-2.5 4.6-.2 2.1 1.1 3.4 2.5 3.6zm-3-6.8c1.4-.7 2.2-2.5.3-5-1.9-2.6-6.3-3.8-6.3-3.8s1.2.5 1.6 2.5c.4 2.1-.5 2.7.6 4.8 1 1.9 2.7 2.2 3.8 1.5zm-1.4 6.9c1.1-1.2 1.2-3.1-1.4-4.8-2.6-1.8-7.2-1.4-7.2-1.4s1.3 0 2.4 1.8c1.1 1.8.5 2.7 2.2 4.3 1.4 1.3 3.1 1.1 4 .1zm199.7 78.9c-1-2.6 0-5.8 5.4-7s12.6 2.3 12.6 2.3-2.2-.8-5.1 1.5-2.4 4.1-6.4 5.7c-3.1 1.2-5.7-.4-6.5-2.5zm0-6.4c1.5-1.1 2.1-3.2-.5-5.8s-7.8-3.3-7.8-3.3 1.5.4 2.3 2.6c.8 2.3-.1 3.2 1.5 5.4 1.2 1.9 3.2 2 4.5 1.1zm3-3.8c.9 2.2 3.4 3.6 7.5.9 4.1-2.6 6.5-9.3 6.5-9.3s-.9 1.8-4 2.2-4-1-7.3.5c-2.8 1.3-3.5 3.9-2.7 5.7zm26.2 19c-2.2-1-3.7-3.6-1-7.8 2.6-4.2 9.3-6.6 9.3-6.6s-1.8.9-2.2 4.1c-.4 3.2 1.1 4.1-.4 7.6-1.2 2.8-3.8 3.5-5.7 2.7zm-4.1-4c.2-1.6-.7-3.3-4-3.3s-7 2.9-7 2.9 1.2-.7 3.1.2 1.9 2.1 4.4 2.5c2 .3 3.3-.9 3.5-2.3zm-.5-4.2c2 .8 4.4.1 5.3-4.2.9-4.2-1.8-9.9-1.8-9.9s.6 1.7-1.1 3.9-3.1 1.9-4.3 4.9c-1 2.6.3 4.6 1.9 5.3zM90.9 232.7c.6-2.8-.9-5.8-6.6-6.2s-12.5 4.3-12.5 4.3 2.1-1.1 5.4.7 3.1 3.8 7.4 4.7c3.4.8 5.8-1.2 6.3-3.5zm11.6 1.3c2 1.3 4.9 1 6.9-3.4s.2-11.1.2-11.1.3 2-2.1 4c-2.4 2.1-3.9 1.4-5.9 4.4-1.7 2.5-.8 5 .9 6.1zm.2-10.4c2.2-.1 4.2-1.9 3.4-6.3-.9-4.4-5.8-8.6-5.8-8.6s1.3 1.4.6 4.2c-.7 2.9-2.2 3.2-2.1 6.6.1 2.7 2.1 4.2 3.9 4.1zm-5.9 7.9c2-.9 3.4-3.2 1.1-7.1-2.3-3.9-8.4-6.1-8.4-6.1s1.7.9 2 3.8c.3 2.9-1 3.7.2 6.9 1 2.6 3.4 3.2 5.1 2.5zm-3.5 7.2c-1.8-1.1-4.4-.9-6.1 3.1-1.8 4-.2 10-.2 10s-.3-1.8 1.9-3.6c2.2-1.9 3.5-1.2 5.3-4 1.4-2.3.6-4.6-.9-5.5zm-.3 9.4c-2 .1-3.8 1.7-3 5.7.8 4 5.2 7.7 5.2 7.7s-1.2-1.2-.5-3.8c.6-2.6 2-2.8 1.9-5.9-.1-2.6-1.9-3.8-3.6-3.7zm5.3-7.2c-1.8.8-3 2.9-.9 6.3 2.1 3.5 7.5 5.5 7.5 5.5s-1.5-.8-1.8-3.4c-.3-2.6.9-3.3-.2-6.2-.9-2.2-3.1-2.8-4.6-2.2zm-26.1-40.2c2.3-1.6 3.4-4.8-.4-9.1-3.8-4.2-11.9-5.6-11.9-5.6s2.3.6 3.4 4.2-.4 4.9 2 8.5c1.9 3.1 5 3.3 6.9 2zm7.4 8.9c.6 2.3 2.8 4.1 7.3 2.3s7.9-7.8 7.9-7.8-1.2 1.6-4.3 1.4c-3.2-.2-3.8-1.7-7.3-.9-2.9.7-4 3.1-3.6 5zm7.5-7.3c1.7 1.5 4.4 1.6 6.8-2.2s1.8-10.2 1.8-10.2 0 1.9-2.5 3.4c-2.5 1.6-3.8.7-6.1 3.3-1.9 2.1-1.4 4.5 0 5.7zm-9.8 1.6c2.1.8 4.7 0 5.7-4.3 1-4.4-1.8-10.2-1.8-10.2s.6 1.8-1.2 4.1c-1.8 2.3-3.3 2-4.6 5.1-1.1 2.5.2 4.7 1.9 5.3zm-7.6 2.7c-.5-2.1-2.5-3.7-6.6-2.1-4 1.6-7.1 7-7.1 7s1-1.5 3.9-1.3c2.8.2 3.4 1.5 6.6.8 2.7-.5 3.7-2.7 3.2-4.4zm-6.6 6.6c-1.5-1.3-3.9-1.4-6.1 2-2.2 3.4-1.6 9.2-1.6 9.2s0-1.7 2.3-3.1c2.3-1.4 3.4-.7 5.4-2.9 1.7-2 1.2-4.1 0-5.2zm8.7-1.5c-1.9-.7-4.2 0-5.1 3.9s1.6 9.2 1.6 9.2-.5-1.6 1.1-3.7c1.7-2.1 3-1.8 4.1-4.6 1-2.3-.1-4.2-1.7-4.8zm-44.2 5.7c.7-3.3-1.1-6.9-7.8-7.4-6.8-.4-14.8 5.1-14.8 5.1s2.5-1.3 6.4.8c3.9 2.2 3.7 4.5 8.7 5.6 4 1 6.9-1.4 7.5-4.1zm13.7 1.5c2.4 1.5 5.8 1.2 8.2-4.1 2.3-5.2.3-13.2.3-13.2s.3 2.4-2.5 4.8c-2.9 2.4-4.7 1.6-7 5.3-2.1 2.9-1 5.9 1 7.2zm.3-12.4c2.6-.1 5-2.2 4-7.5-1.1-5.3-6.9-10.2-6.9-10.2s1.5 1.6.7 5c-.9 3.4-2.7 3.8-2.5 7.8.1 3.3 2.5 5 4.7 4.9zm-7 9.4c2.4-1 4-3.8 1.3-8.4-2.8-4.6-10-7.3-10-7.3s2 1 2.3 4.5-1.2 4.4.3 8.2c1.2 3.1 4.1 3.8 6.1 3zm-4.2 8.6c-2.1-1.3-5.2-1-7.3 3.7s-.2 11.9-.2 11.9-.3-2.1 2.2-4.3c2.6-2.2 4.2-1.5 6.3-4.7 1.7-2.8.7-5.5-1-6.6zm-.3 11.1c-2.4.1-4.5 2-3.6 6.7 1 4.7 6.2 9.1 6.2 9.1s-1.4-1.4-.6-4.5c.8-3.1 2.4-3.4 2.2-7-.1-2.9-2.3-4.4-4.2-4.3zm6.3-8.5c-2.2.9-3.6 3.4-1.1 7.5s8.9 6.5 8.9 6.5-1.8-.9-2.1-4 1.1-4-.3-7.4c-1.1-2.7-3.6-3.4-5.4-2.6zM172.3 278c.7-3.3-1.1-6.9-7.8-7.4-6.8-.4-14.8 5.1-14.8 5.1s2.5-1.3 6.4.8c3.9 2.2 3.7 4.5 8.7 5.6 4.1 1 7-1.4 7.5-4.1zm13.7 1.5c2.4 1.5 5.8 1.2 8.2-4.1 2.3-5.2.3-13.2.3-13.2s.3 2.4-2.5 4.8c-2.9 2.4-4.7 1.6-7 5.3-2 2.9-.9 5.9 1 7.2zm.4-12.4c2.6-.1 5-2.2 4-7.5-1.1-5.3-6.9-10.2-6.9-10.2s1.5 1.6.7 5c-.9 3.4-2.7 3.8-2.5 7.8.1 3.3 2.5 5 4.7 4.9zm-7.1 9.4c2.4-1 4-3.8 1.3-8.4-2.8-4.6-10-7.3-10-7.3s2 1 2.3 4.5-1.2 4.4.3 8.2c1.3 3.1 4.1 3.9 6.1 3zm-4.2 8.6c-2.1-1.3-5.2-1-7.3 3.6-2.1 4.7-.2 11.9-.2 11.9s-.3-2.1 2.2-4.3c2.6-2.2 4.2-1.5 6.3-4.7 1.8-2.7.8-5.4-1-6.5zm-.3 11.1c-2.4.1-4.5 2-3.6 6.7 1 4.7 6.2 9.1 6.2 9.1s-1.4-1.4-.6-4.5c.8-3.1 2.4-3.4 2.2-7 0-2.9-2.2-4.4-4.2-4.3zm6.3-8.5c-2.2.9-3.6 3.4-1.1 7.5s8.9 6.5 8.9 6.5-1.8-.9-2.1-4 1.1-4-.3-7.4c-1-2.7-3.6-3.3-5.4-2.6zm-62.5-22.8c2.5.4 5.2-1.2 5.2-6.3 0-5.2-4.6-11-4.6-11s1.1 1.8-.3 4.9c-1.5 3.1-3.2 3-3.9 6.9-.4 3.2 1.6 5.2 3.6 5.5zm-.4 10.5c-1 1.9-.6 4.5 3.5 6s10.1-.4 10.1-.4-1.8.4-3.8-1.7-1.5-3.5-4.4-5.1c-2.4-1.3-4.6-.3-5.4 1.2zm9.4-.3c.2 2 2 3.7 5.9 2.7 3.9-1.1 7.4-5.8 7.4-5.8s-1.2 1.2-3.8.8c-2.6-.5-3-1.8-6.1-1.5-2.4.2-3.6 2.1-3.4 3.8zm-7.5-4.9c.9 1.8 3.1 2.9 6.5.5 3.4-2.3 5.1-7.9 5.1-7.9s-.7 1.6-3.3 2c-2.6.4-3.4-.7-6.2.6-2.4 1.1-2.8 3.3-2.1 4.8zm-6.7-2.8c.9-1.7.5-4-3.1-5.4-3.7-1.4-9 .4-9 .4s1.6-.3 3.4 1.5 1.3 3.1 3.9 4.6c2 1.2 4 .3 4.8-1.1zm-8.5.3c-.2-1.8-1.8-3.3-5.3-2.4-3.5 1-6.6 5.2-6.6 5.2s1-1.1 3.4-.7 2.7 1.6 5.4 1.3c2.3-.2 3.3-1.9 3.1-3.4zm6.8 4.4c-.8-1.6-2.8-2.6-5.8-.5s-4.5 7.1-4.5 7.1.6-1.4 3-1.8 3.1.6 5.6-.6c1.9-.9 2.3-2.9 1.7-4.2zM301.4 85.3c2.5.4 5.2-1.2 5.2-6.3 0-5.2-4.6-11-4.6-11s1.1 1.8-.3 4.9c-1.5 3.1-3.2 3-3.9 6.9-.5 3.2 1.5 5.2 3.6 5.5zm-.5 10.5c-1 1.9-.6 4.5 3.5 6s10.1-.4 10.1-.4-1.8.4-3.8-1.7-1.5-3.5-4.4-5.1c-2.3-1.3-4.5-.3-5.4 1.2zm9.5-.3c.2 2 1.9 3.7 5.9 2.7 3.9-1.1 7.4-5.8 7.4-5.8s-1.2 1.2-3.8.8c-2.6-.5-3-1.8-6.1-1.5-2.5.2-3.6 2.1-3.4 3.8zm-7.5-4.9c.9 1.8 3.1 2.9 6.5.5 3.4-2.3 5.1-7.9 5.1-7.9s-.7 1.6-3.3 2c-2.7.4-3.4-.7-6.2.6-2.4 1.1-2.9 3.3-2.1 4.8zm-6.8-2.8c.9-1.7.5-4-3.1-5.4-3.7-1.4-9 .4-9 .4s1.6-.3 3.4 1.5 1.3 3.1 3.9 4.6c2.1 1.2 4.1.3 4.8-1.1zm-8.4.3c-.2-1.8-1.8-3.3-5.3-2.4-3.5 1-6.6 5.2-6.6 5.2s1-1.1 3.4-.7 2.7 1.6 5.4 1.3c2.2-.2 3.3-1.9 3.1-3.4zm6.7 4.4c-.8-1.6-2.8-2.6-5.8-.5s-4.5 7.1-4.5 7.1.6-1.4 3-1.8 3.1.6 5.6-.6c2-.9 2.4-2.9 1.7-4.2zm-24.9-34.8c2.1.3 4.4-1 4.4-5.4S270 43 270 43s1 1.6-.3 4.2c-1.2 2.6-2.8 2.6-3.3 5.9-.4 2.6 1.3 4.4 3.1 4.6zm-.4 8.9c-.9 1.6-.5 3.8 3 5.1 3.5 1.3 8.5-.4 8.5-.4s-1.5.3-3.2-1.4c-1.7-1.8-1.2-2.9-3.7-4.3-2-1.1-3.9-.3-4.6 1zm8-.3c.2 1.7 1.7 3.2 5 2.3 3.4-.9 6.3-4.9 6.3-4.9s-1 1.1-3.2.6c-2.2-.4-2.5-1.6-5.1-1.3-2.2.3-3.2 1.9-3 3.3zm-6.4-4.1c.8 1.5 2.6 2.4 5.5.5 2.8-2 4.3-6.7 4.3-6.7s-.6 1.3-2.8 1.7c-2.3.4-2.9-.6-5.3.5-1.9.8-2.3 2.7-1.7 4zm-5.7-2.4c.8-1.4.4-3.4-2.7-4.6-3.1-1.1-7.7.3-7.7.3s1.3-.3 2.9 1.3c1.5 1.6 1.1 2.6 3.3 3.9 1.9 1 3.6.3 4.2-.9zm-7.2.3c-.2-1.5-1.5-2.8-4.5-2s-5.6 4.4-5.6 4.4.9-.9 2.9-.6c2 .4 2.3 1.4 4.6 1.1 1.9-.2 2.8-1.6 2.6-2.9zm5.8 3.7c-.7-1.4-2.4-2.2-4.9-.4s-3.8 6-3.8 6 .5-1.2 2.5-1.5c2-.3 2.6.5 4.7-.5 1.7-.8 2-2.5 1.5-3.6zM225.3 264c2.7 1.9 6.8 1.7 9.9-4.3 3.1-6.1 1.1-15.6 1.1-15.6s.3 2.8-3.3 5.5c-3.5 2.7-5.6 1.7-8.6 5.8-2.4 3.4-1.3 7 .9 8.6zm-6.7 12c-2.3 1.6-3.4 4.9.5 9.1s12 5.4 12 5.4-2.3-.6-3.4-4.2.3-4.9-2.1-8.5c-2-2.9-5.1-3.1-7-1.8zm11.2 5.2c-.9 2.5.1 5.5 5.3 6.6s12.1-2.4 12.1-2.4-2.1.8-4.9-1.4c-2.8-2.1-2.4-3.9-6.2-5.4-3-1-5.5.5-6.3 2.6zm-5.9-10.2c0 2.6 1.9 5.2 7.2 4.5 5.3-.8 10.6-6.3 10.6-6.3s-1.7 1.4-5.1.4c-3.4-1.1-3.6-2.9-7.7-3-3.2-.1-5 2.2-5 4.4zm-6.2-7.2c2.1-1.4 3-4.4-.5-8.2s-10.8-4.9-10.8-4.9 2.1.5 3.1 3.8c1 3.2-.3 4.4 1.9 7.6 1.7 2.7 4.5 2.9 6.3 1.7zm-10.1-4.6c.8-2.2-.1-5-4.8-5.9-4.7-1-10.9 2.1-10.9 2.1s1.9-.7 4.4 1.2c2.5 1.9 2.2 3.5 5.6 4.8 2.8 1 5-.4 5.7-2.2zm5.3 9.1c0-2.4-1.8-4.7-6.5-4-4.8.7-9.5 5.7-9.5 5.7s1.5-1.3 4.5-.3c3 .9 3.2 2.6 6.9 2.6 3 0 4.6-2.1 4.6-4zm30.6-49c1.9 1.4 4.8 1.2 7-3.1s.8-11.1.8-11.1.2 2-2.3 3.9-4 1.2-6.1 4.1c-1.7 2.5-1 5.1.6 6.2zm-4.7 8.5c-1.6 1.1-2.4 3.5.4 6.4 2.8 3 8.5 3.9 8.5 3.9s-1.6-.4-2.4-3c-.8-2.5.2-3.5-1.5-6-1.4-2.1-3.7-2.2-5-1.3zm7.9 3.7c-.6 1.7.1 3.9 3.8 4.7s8.6-1.7 8.6-1.7-1.5.5-3.5-1-1.7-2.8-4.4-3.8c-2.2-.8-3.9.3-4.5 1.8zm-4.2-7.2c0 1.9 1.4 3.7 5.1 3.1 3.8-.5 7.5-4.5 7.5-4.5s-1.2 1-3.6.3c-2.4-.8-2.6-2-5.4-2.1-2.3 0-3.5 1.6-3.6 3.2zm-4.4-5.2c1.5-1 2.1-3.1-.4-5.8s-7.7-3.4-7.7-3.4 1.5.4 2.2 2.7-.2 3.1 1.3 5.4c1.4 1.9 3.4 2 4.6 1.1zm-7.1-3.2c.6-1.6-.1-3.5-3.4-4.2-3.3-.7-7.7 1.5-7.7 1.5s1.3-.5 3.1.9 1.5 2.5 4 3.4c1.9.7 3.5-.3 4-1.6zm3.8 6.4c0-1.7-1.2-3.3-4.6-2.8-3.4.5-6.7 4-6.7 4s1.1-.9 3.2-.2 2.3 1.8 4.9 1.9c2 0 3.1-1.5 3.2-2.9zm61.7 65.8c2 1.4 5.1 1.3 7.4-3.2s.8-11.7.8-11.7.2 2.1-2.4 4.1-4.2 1.2-6.4 4.4c-1.9 2.5-1.1 5.2.6 6.4zm-5.1 9c-1.7 1.2-2.5 3.7.4 6.8 2.9 3.1 9 4.1 9 4.1s-1.7-.5-2.6-3.1c-.8-2.7.2-3.7-1.6-6.4-1.4-2.3-3.7-2.4-5.2-1.4zm8.4 3.8c-.7 1.8.1 4.1 4 4.9s9-1.8 9-1.8-1.6.6-3.7-1-1.8-2.9-4.6-4c-2.2-.8-4.1.4-4.7 1.9zm-4.4-7.6c0 2 1.5 3.9 5.4 3.3 4-.6 7.9-4.7 7.9-4.7s-1.3 1.1-3.8.3-2.7-2.2-5.7-2.2c-2.4 0-3.8 1.7-3.8 3.3zm-4.6-5.4c1.6-1.1 2.3-3.3-.4-6.1-2.6-2.8-8.1-3.6-8.1-3.6s1.5.4 2.3 2.8-.2 3.3 1.4 5.7c1.4 2 3.5 2.1 4.8 1.2zm-7.6-3.4c.6-1.7-.1-3.7-3.6-4.4-3.5-.7-8.1 1.6-8.1 1.6s1.4-.5 3.3.9 1.6 2.6 4.2 3.6c2 .7 3.7-.3 4.2-1.7zm4 6.8c0-1.8-1.3-3.5-4.9-3s-7.1 4.2-7.1 4.2 1.1-1 3.4-.3c2.2.7 2.4 1.9 5.1 2 2.3.1 3.5-1.4 3.5-2.9zm93.6 5.5c2.4 1.7 5.9 1.5 8.5-3.7 2.7-5.2 1-13.5 1-13.5s.2 2.4-2.8 4.8c-3 2.3-4.8 1.4-7.4 5-2.2 2.9-1.2 6 .7 7.4zm-5.8 10.3c-2 1.4-2.9 4.2.5 7.9 3.4 3.6 10.4 4.7 10.4 4.7s-2-.5-3-3.6.3-4.3-1.8-7.4c-1.7-2.6-4.4-2.7-6.1-1.6zm9.7 4.5c-.8 2.1.1 4.8 4.6 5.7 4.5.9 10.5-2 10.5-2s-1.8.7-4.2-1.2c-2.4-1.8-2.1-3.4-5.4-4.6-2.7-1-4.8.3-5.5 2.1zm-5.1-8.8c0 2.3 1.7 4.5 6.2 3.8 4.6-.7 9.2-5.5 9.2-5.5s-1.5 1.2-4.4.3c-2.9-.9-3.1-2.5-6.6-2.6-2.8.1-4.4 2.1-4.4 4zm-5.4-6.2c1.8-1.2 2.6-3.8-.4-7s-9.3-4.2-9.3-4.2 1.8.5 2.7 3.2c.9 2.8-.2 3.8 1.6 6.6 1.5 2.3 3.9 2.4 5.4 1.4zm-8.7-4c.7-1.9-.1-4.3-4.1-5.1-4.1-.8-9.4 1.9-9.4 1.9s1.6-.6 3.8 1c2.2 1.6 1.9 3 4.8 4.1 2.4.9 4.3-.3 4.9-1.9zm4.6 7.9c0-2.1-1.5-4-5.6-3.4s-8.2 4.9-8.2 4.9 1.3-1.1 3.9-.3c2.6.8 2.8 2.2 5.9 2.3 2.6-.1 4-1.9 4-3.5zm-30.1-3.2c1.9 1.3 4.7 1.2 6.8-3 2.1-4.2.8-10.8.8-10.8s.2 1.9-2.3 3.8c-2.4 1.9-3.9 1.1-5.9 4-1.7 2.5-.9 4.9.6 6zm-4.6 8.3c-1.6 1.1-2.3 3.4.4 6.3 2.7 2.9 8.3 3.8 8.3 3.8s-1.6-.4-2.4-2.9.2-3.4-1.4-5.9c-1.4-2.1-3.6-2.2-4.9-1.3zm7.7 3.6c-.6 1.7.1 3.8 3.7 4.6 3.6.7 8.3-1.6 8.3-1.6s-1.4.5-3.4-.9c-1.9-1.5-1.7-2.7-4.3-3.7-2-.9-3.8.2-4.3 1.6zm-4.1-7c0 1.8 1.3 3.6 5 3.1s7.3-4.3 7.3-4.3-1.2 1-3.5.3-2.5-2-5.3-2c-2.2-.2-3.4 1.4-3.5 2.9zm-4.2-5c1.4-1 2.1-3-.3-5.6s-7.4-3.3-7.4-3.3 1.4.4 2.1 2.6-.2 3 1.3 5.3c1.1 1.7 3.1 1.8 4.3 1zm-7-3.2c.6-1.5-.1-3.4-3.3-4.1-3.2-.7-7.5 1.5-7.5 1.5s1.3-.5 3 .8 1.5 2.4 3.8 3.3c2 .8 3.5-.2 4-1.5zm3.7 6.3c0-1.6-1.2-3.2-4.5-2.7s-6.5 3.9-6.5 3.9 1-.9 3.1-.2c2.1.6 2.2 1.8 4.7 1.8 2 0 3.2-1.5 3.2-2.8zM46.1 268c.7-3.3-1.1-6.9-7.8-7.4-6.8-.4-14.8 5.1-14.8 5.1s2.5-1.3 6.4.8c3.9 2.2 3.7 4.5 8.7 5.6 4.1 1 6.9-1.4 7.5-4.1zm13.7 1.5c2.4 1.5 5.8 1.2 8.2-4.1 2.3-5.2.3-13.2.3-13.2s.3 2.4-2.5 4.8c-2.9 2.4-4.7 1.6-7 5.3-2 3-1 6 1 7.2zm.4-12.4c2.6-.1 5-2.2 4-7.5-1.1-5.3-6.9-10.2-6.9-10.2s1.5 1.6.7 5c-.9 3.4-2.7 3.8-2.5 7.8.1 3.4 2.5 5 4.7 4.9zm-7.1 9.5c2.4-1 4-3.8 1.3-8.4-2.8-4.6-10-7.3-10-7.3s2 1 2.3 4.5c.3 3.5-1.2 4.4.3 8.2 1.3 3.1 4.1 3.8 6.1 3zm-4.2 8.5c-2.1-1.3-5.2-1-7.3 3.6-2.1 4.7-.2 11.9-.2 11.9s-.3-2.1 2.3-4.3c2.6-2.2 4.2-1.5 6.3-4.7 1.6-2.7.7-5.4-1.1-6.5zm-.3 11.1c-2.4.1-4.5 2-3.6 6.7 1 4.7 6.2 9.1 6.2 9.1s-1.4-1.4-.6-4.5c.8-3.1 2.4-3.4 2.2-7 0-2.9-2.2-4.4-4.2-4.3zm6.3-8.4c-2.2.9-3.6 3.4-1.1 7.5s8.9 6.5 8.9 6.5-1.8-.9-2.1-4 1.1-4-.3-7.4c-1-2.7-3.6-3.4-5.4-2.6zm138-112.3c-2.1 2.4-5.8 3.2-10.1-1.6s-4.7-14-4.7-14 .4 2.6 4.3 4.3c3.9 1.7 5.5.2 9.3 3.3 3 2.5 2.9 6 1.2 8zm-4.5-13.1c-2.9.7-6.2-.7-6.8-6.7s4-13.2 4-13.2-1.1 2.2 1 5.6c2.1 3.4 4.1 3.1 5.3 7.5.9 3.6-1.2 6.2-3.5 6.8zm10.6 7.7c-2.9-.3-5.6-2.7-4.2-8.6 1.4-5.8 8.2-11.1 8.2-11.1s-1.8 1.7-1 5.6c.8 3.9 2.8 4.3 2.5 8.9-.2 3.7-3 5.5-5.5 5.2zm-62.1 2.8c1.4 1.6 3.8 2.1 6.7-1.1 2.8-3.2 3.1-9.3 3.1-9.3s-.3 1.7-2.8 2.8c-2.6 1.1-3.6.1-6.1 2.2-2.1 1.8-2 4.1-.9 5.4zm3-8.6c1.9.5 4.1-.5 4.5-4.4s-2.6-8.7-2.6-8.7.7 1.5-.6 3.7c-1.4 2.2-2.7 2.1-3.5 5-.7 2.3.6 4 2.2 4.4zm-7 5.1c1.9-.2 3.7-1.8 2.7-5.7-.9-3.8-5.4-7.3-5.4-7.3s1.2 1.2.6 3.7c-.5 2.5-1.9 2.9-1.6 5.8.2 2.5 2.1 3.6 3.7 3.5zm87.2-8c-1.8-1.6-2.3-4.5 1.4-7.7 3.8-3.2 10.9-3.3 10.9-3.3s-2 .3-3.4 3.2c-1.3 2.9-.3 4.2-2.7 7.1-2 2.2-4.7 2-6.2.7zm10.2-3.2c-.5-2.2.7-4.7 5.3-5.1 4.6-.3 10.1 3.3 10.1 3.3s-1.7-.9-4.3.6-2.5 3.1-5.9 3.9c-2.8.7-4.8-.9-5.2-2.7zm-6.2 8c.3-2.3 2.2-4.2 6.7-3 4.4 1.2 8.4 6.5 8.4 6.5s-1.3-1.4-4.3-.9-3.4 2.1-6.9 1.7c-2.8-.2-4.1-2.4-3.9-4.3z"/><path class="st3" d="M417.7 150.8c-5.9 5.9-15.7 20.8-26.4 29.7-8.6 7.1-17.3 11.6-23.5 12.7-18.8 3.2-27.5 2.5-40.3 2.7-12.7.2-34.8-.5-41.6 3.6-6.8 4.1-15.7 14.4-21.3 26.2-4.4 9.3-6 13.9-14 26.2-9.4 14.5-24 32.1-24 32.1s-3.6-8.1 5-21.7 14.2-24.3 16.4-39.7c0 0 9.2-40.4 25.9-54 .1 0 .1-.1.2-.1.1.1.3.2.4.4.9.8 2.3 1.7 4.1 2.6 3.7 1.8 9.2 3.2 15.7 3.4 6.5.3 14-.2 21.9-2.1 4-1 7.7-2.5 11.7-3.8 3.9-1.3 7.7-3.1 11.6-4.6 7.7-3.3 15.2-6.9 22.3-10.3 7-3.7 13.3-7.3 18.9-9.8 5.7-2.6 10.6-4 14.2-4.8 1.8-.4 3.2-.4 4.2-.6 1-.1 1.5-.2 1.5-.2s-.5 0-1.5.1-2.4.1-4.2.4c-3.6.6-8.7 1.8-14.5 4.2-5.8 2.3-12.4 5.7-19.4 9-7.2 3.1-14.8 6.3-22.6 9.3-3.9 1.3-7.8 2.9-11.7 4.1-3.9 1.1-7.8 2.4-11.4 3.2-7.4 1.4-14.7 1.6-20.6 1-6-.5-10.7-2-13.5-3.5-1-.6-1.9-1.1-2.4-1.6 14.4-10.5 25.5-14.1 35.3-24.3 10.9-11.3 17.6-21.3 22.6-35.3s1.7-41.1 1.7-41.1.6 28.8-5.3 41.4c-3.5 7.5-8.3 14.7-14.4 21.4-.1-1.3-.3-2.9-.5-4.7-.3-1.9-.6-4.1-1.2-6.4-.9-4.7-2.8-9.9-5.2-15.3-2.6-5.4-6-10.7-9.9-15.6-4-4.8-8.8-9-13.5-12.4-2.5-1.6-4.8-3.2-7.2-4.4-1.2-.6-2.3-1.3-3.4-1.8-1.2-.5-2.3-1-3.3-1.4-2.1-1-4.2-1.6-6-2.2-1.8-.6-3.4-1.1-4.7-1.3-2.6-.6-4.1-1-4.1-1s1.5.4 4.1 1.2c1.3.4 2.9.9 4.6 1.6 1.7.7 3.7 1.4 5.8 2.5 1 .5 2.1 1 3.2 1.6s2.2 1.3 3.3 2c2.3 1.3 4.4 3 6.7 4.7 4.4 3.6 8.7 7.9 12.3 12.8 3.5 4.9 6.4 10.2 8.6 15.4 1.9 5.3 3.4 10.3 4.1 14.7.4 2.2.6 4.2.7 6 .2 1.8.3 3.4.3 4.7v4.1h1c-3.1 2.9-6.4 5.8-10.1 8.4-13.6 10-26.8 13.9-37.5 24.4-8.4 8.3-11.3 12.2-18.5 29.4s-6.5 19.6-11.6 34.7c-3.8 11.3-4.2 14.8-10.6 22.3-6.5 7.7-18.6 1.4-24.9-17.6-6.4-19.5-20.3-30.9-.1-68.8 10.6-19.9 13.9-20.7 19.8-42.2 4.5-16.1.3-36.2 3.9-48.3 3.8-12.9 14.3-23.1 22.6-26.7 7.5-3.2 15.7-3.6 15.7-3.6s-10.9-.7-18.9 3.3c-6.7 3.4-12 7.2-17.9 15.2-4.7 6.3-7.2 15.9-9 24.9s-3.9 33.6-8.4 44c-4.5 10.2-10.4 17-16.4 28.3-6 11.2-6.6 15.3-7.8 17.1-4.1 6.1-12.5-.8-9.3-19.8s7.7-21.7 8.6-35.3c.9-13.6-1.1-21.7-7.2-32.6-.7-1.3-1.5-2.5-2.2-3.7 0-1-.2-4.5-.4-9.3-.1-5.7-.5-13.4 1.5-20.5 1-3.5 2.7-6.8 4.9-9.5s5-4.6 7.3-6.1c2.5-1.4 4.6-2.4 6.2-3 1.6-.6 2.5-1 2.5-1s-.9.3-2.5.7-3.9 1.2-6.6 2.4c-2.6 1.3-5.7 2.9-8.3 5.6-2.7 2.6-4.9 6.1-6.4 9.8-2.9 7.6-3.2 15.6-3.6 21.4 0 .6-.1 1.1-.1 1.7-5.4-6.5-12.2-11.8-22.9-17.1-11.4-5.6-20.2-6.4-24.2-6.4 2.9.4 9.1 2.2 22.4 9.1 21.7 11.3 36.2 38 30.1 62.4-5.1 20.6-11.5 31.4-9.7 44.1s4.8 18.3 8.4 26.5c3.6 8.1 5.4 19.9 5.4 19.9s-5.4 1.8-14.5-5c-9-6.8-19.1-24.6-20.1-37.2-.9-12.5-2.4-20.9-6.3-35.9.1-.1.3-.2.4-.3.3-.2.7-.5 1.1-.8.3-.4.7-.8 1.1-1.3 1.4-2 2.5-4.9 3.1-8.1 1.2-6.6 1.1-15.1.8-23.4 0-8.4-1-16.8-1.1-23-.2-3.1 0-5.7.1-7.5s.1-2.9.1-2.9-.1 1-.4 2.8c-.2 1.8-.7 4.4-.8 7.5-.5 6.3-.3 14.6-1 23-.5 8.3-1.1 16.7-2.7 22.4-.7 2.7-1.8 4.7-2.6 5.7-3.7-10.8-8.7-14.4-23.1-26.2C99 94.9 93.9 74.1 92.4 66.1c.5 3 1.4 7.9 2.6 13.9 3 14.8 5.9 21.8 17.6 32.7 11.8 10.9 14.9 16.7 19.5 28.9 4.5 12.2.2 31.9 2 39.8 2.1 9.7 12.5 21.4-2.9 16-10.8-3.8-19.9-5.6-28.7-6.4v-.3c.1-.8.2-1.7.2-2.8s.1-2.3-.1-3.6c-.2-2.6-.9-5.6-1.9-8.7-1.1-3-2.5-6.1-4.1-9-3.3-5.8-7-11.1-9.4-15.4-2.5-4.2-3.8-7.2-3.8-7.2s1 3.1 3 7.6 5.1 10.3 7.6 16.2c1.2 3 2.2 6 2.9 8.8.6 2.9.9 5.5.8 7.8 0 1.1-.1 2.2-.2 3.1-.1.9-.2 1.7-.4 2.3-.1.3-.1.5-.2.7-1.8-.1-3.6-.1-5.4-.1-12.7 0-19.4 1.9-25.8 5.6-6.9 4-14.5 14.7-14.5 14.7s10.3-13.2 27.4-15.1c17.2-1.8 50.8 9.7 63.9 19.6 13.1 10 38.9 19 38.9 19s5 21.3 7.5 28.1c2.2 6 11 23 11 23s-8.1-7.2-22.2-16.9c-13.6-9.4-14.2-9.4-27.6-17-9.4-5.4-30.6-16.9-56.5-20.5.1-.5.1-1.1.1-1.8.1-1 0-2-.2-3.2-.7-4.7-4.2-9.3-7.9-13-3.8-3.7-7.8-6.9-10.8-9.4-3-2.4-4.8-4.2-4.8-4.2s1.6 2 4.2 4.9 6.2 6.6 9.2 10.6 5.3 8.5 5.2 11.7c0 1.7-.3 2.9-.6 3.7-7.5-.7-15.4-.7-23.4.4-8.4 1.1-15.7 4.2-22.9-1.2-7.5-5.6-16-18.7-16-18.7s2 5.7 10 16.3c8.6 11.4 14.4 11.7 33.9 10.8 30-1.4 71.5 20.2 80.1 27.6 10.5 9 16.9 6.9 46.1 51.1 0 0-5.9-1-23.5-16-17.6-14.9-37.1-28.8-54.3-32.4s-36.8-2-44.6-2.6c-19.6-1.4-32.6-10.3-37.1-15.1-5.1-5.4-6-15.5-6-15.5s-2.2 8 2.4 15.8c5.6 9.5 12.1 15.5 30.5 19.9 3.5.8 6.6 1.4 9.3 1.7-.9 1.1-1.8 2.4-2.7 3.6-.9 1.1-2.1 2.2-3.1 2.9-1.4.5-3.1 1.4-4.9 1.8-3.6 1-7.8 1.3-11.9 1.4-8.2-.2-16.8-3-23.4-1.8-3.3.5-5.8 1.6-7.5 2.5-1.6 1-2.5 1.7-2.5 1.7s.9-.6 2.6-1.4 4.3-1.7 7.4-1.9c6.4-.6 14.4 2.8 23.1 3.8 4.4.3 8.8.4 13-.4 2.1-.2 4-1 6.1-1.6 2.1-1.1 3.6-2.4 4.8-3.6 2.4-2.5 4-4.6 5.1-5.5.3-.2.5-.4.7-.6.2-.1.4-.2.5-.2.1-.1.2-.1.3-.2 8.7.1 15.7-1 29.8 3.2 21.7 6.3 39.5 25.2 55.2 38.4 16.9 14.3 40.1 20.8 38.9 61.3-.6 20.1-7.2 61.5-7.2 61.5l-.6 2.7h45.5c-2.3-16.6-4.5-33.8-5-44.3-1.4-25.8-3.2-53 10.9-74.6 12.4-19 27.6-24.2 39.3-30.4.2.3.4.7.6 1 2.4 3.4 7.1 5.9 12.6 7.4 5.5 1.4 12 2.1 18.8 2.1 3.4.1 7.1-.2 10.6-.8 3.6-.4 7.1-.9 10.7-1.6 7.1-1.2 14.1-2.5 20.7-3 6.6-.7 12.8 0 17.8 1.9 4.9 1.9 8.5 4.6 11 6.5 2.4 2 3.8 3.1 3.8 3.1s-1.3-1.2-3.6-3.3c-2.4-2-5.8-5-10.8-7.2s-11.4-3.3-18.2-2.9c-6.8.2-14 1.1-21.1 1.9-3.6.5-7.1.8-10.6 1-3.5.3-6.8.5-10.1.2-6.6-.3-12.7-1.4-17.5-2.9-4.8-1.6-8.2-3.9-9.3-5.8-.1-.2-.2-.4-.3-.5 10.1-5.6 20.3-10.5 28.6-18.4 7.7-7.3 10.1-18.2 22.3-24.6 12.2-6.3 38.8-3.5 38.8-3.5s-5.9-4.4-21.6-3.8c-16.5.6-25.9 6.9-31.4 12.4-5.4 5.4-6.6 11.1-19.9 19.4-10.8 6.8-19.6 7.7-39.5 17.6-17.1 8.6-32.3 11.8-32.3 11.8 11.5-16.3 14.1-20.4 26.5-42.5 8.3-14.8 14.9-39.4 29.4-45.7s17.2-3.6 44.3-4.5c27.1-.9 44.6-7.8 51-12.8 6.3-5 11.9-10.7 17.3-19.7s14-22.6 19.5-26.2c4.4-2.9 7.8-3.8 9-4-2.3.7-11.1 2.5-16.3 7.6z"/></g><path class="st4" d="M1150.3 221.6c-.7-.4-1.4-.8-2.1-1.1.1-.5.2-1 .2-1.5.2-.9.2-1.7.3-2.2.1-.5.1-.9.1-.9v-.9c0-.5.1-1.3.1-2.3v-1.5c.7-.3 1.5-.5 2.3-.8 1.8-.7 3.6-1.5 5-2.1 1.3-.6 2.2-1.1 2.2-1.1s0-.4-.1-.9c0-.3-.1-.6-.1-.9-.1-.3-.1-.7-.2-1-.1-.4-.1-.7-.2-1 0-.2-.1-.3-.1-.5s-.1-.3-.1-.4c-.1-.5-.2-.9-.2-.9s-1-.2-2.4-.3c-.4 0-.8-.1-1.2-.1-.4 0-.9-.1-1.3-.1-.9-.1-1.9-.2-2.9-.2-.8 0-1.6-.1-2.4-.1-.1-.5-.3-1-.4-1.4-.3-.9-.6-1.6-.7-2.1-.2-.5-.3-.8-.3-.8s-.1-.3-.3-.8c-.2-.5-.5-1.2-.9-2.1-.1-.2-.2-.4-.3-.7-.1-.2-.2-.4-.3-.7l1.7-1.7c1.3-1.4 2.6-2.9 3.6-4 .9-1.1 1.5-1.9 1.5-1.9s-.2-.3-.5-.8-.7-1-1.1-1.6l-.6-.9c-.2-.3-.4-.5-.6-.7-.3-.4-.5-.7-.5-.7s-.2.1-.6.2c-.4.1-1 .3-1.7.6-1.4.5-3.2 1.2-5 1.9-.8.3-1.5.6-2.2 1-.3-.4-.7-.8-1-1.1-.6-.7-1.2-1.2-1.6-1.6-.2-.2-.4-.3-.5-.4l-.2-.2-.6-.6c-.4-.4-1-.9-1.7-1.5l-1.2-.9c.3-.7.5-1.5.8-2.3.3-.9.6-1.9.8-2.7.2-.9.5-1.7.6-2.4.4-1.4.6-2.4.6-2.4s-.1 0-.2-.1-.3-.2-.6-.3c-.5-.3-1.1-.7-1.7-1s-1.3-.7-1.7-.9l-.6-.3c-.1-.1-.2-.1-.2-.1s-.7.7-1.8 1.7l-1.8 1.8c-.6.7-1.3 1.4-1.9 2.1-.6.6-1.1 1.2-1.6 1.9-.5-.2-.9-.4-1.4-.6-.4-.2-.8-.3-1.2-.4-.2-.1-.3-.1-.5-.2s-.3-.1-.4-.1c-.5-.2-.8-.3-.8-.3s-.3-.1-.8-.3c-.5-.1-1.3-.3-2.2-.6-.5-.1-.9-.2-1.5-.3l-.3-2.4c-.3-1.9-.6-3.8-.9-5.3-.3-1.4-.5-2.4-.5-2.4h-.2c-.2 0-.4 0-.6-.1-.5-.1-1.3-.1-2-.2-.7 0-1.4-.1-2-.1h-.9s-.4.9-.9 2.3-1.1 3.2-1.7 5.1l-.6 2.4c-.5 0-1 .1-1.5.1-.9.1-1.7.2-2.2.2-.5.1-.8.1-.8.1s-.3 0-.8.1c-.1 0-.3 0-.4.1-.2 0-.3.1-.5.1l-1.2.3c-.4.1-.9.2-1.4.4-.4-.7-.9-1.4-1.3-2.1-.5-.8-1.1-1.6-1.6-2.3s-1-1.4-1.5-2c-.9-1.2-1.5-1.9-1.5-1.9s-.1 0-.2.1-.4.1-.6.2c-.5.2-1.2.4-1.9.7-.7.3-1.3.6-1.8.8-.2.1-.5.2-.6.3s-.2.1-.2.1.1 1 .2 2.5c.1.7.2 1.6.3 2.5.1.9.3 1.9.4 2.8.1.8.3 1.6.5 2.4-.5.3-.9.5-1.3.7-.8.5-1.5.9-1.9 1.2-.5.3-.7.5-.7.5s-.1 0-.2.1-.3.2-.5.4c-.4.3-1.1.8-1.8 1.4-.4.3-.7.6-1.1.9-.7-.4-1.4-.9-2.1-1.3-1.7-1-3.4-1.9-4.7-2.6-.7-.3-1.2-.6-1.6-.8l-.6-.3-.6.6c-.2.2-.4.4-.6.7-.2.2-.5.5-.7.8-.5.5-1 1.1-1.3 1.5s-.6.7-.6.7.5.9 1.2 2.1c.8 1.2 1.8 2.9 3 4.5.5.7 1 1.3 1.4 2-.2.2-.3.4-.4.6-.1.2-.3.4-.4.6-.5.8-.9 1.4-1.2 1.9-.3.5-.4.7-.4.7s-.1.3-.4.8-.6 1.2-1 2c-.2.4-.4.9-.6 1.3-.8-.1-1.6-.2-2.4-.2-1-.1-1.9-.1-2.9-.2-.5 0-.9 0-1.3-.1h-3.7s-.1.3-.3.8c0 .1-.1.3-.1.4 0 .1-.1.3-.1.5-.1.3-.2.7-.3 1-.1.3-.2.7-.3 1-.1.3-.2.6-.2.9-.1.5-.2.9-.2.9s.8.6 2 1.4c1.2.8 2.9 1.8 4.6 2.7.7.4 1.4.8 2.1 1.1-.1.5-.2 1-.2 1.5-.2.9-.2 1.7-.3 2.2-.1.5-.1.9-.1.9v.9c0 .5-.1 1.3-.1 2.3v1.5c-.7.3-1.5.5-2.3.8-1.8.7-3.6 1.5-5 2.1-1.3.6-2.2 1.1-2.2 1.1s0 .4.1.9c0 .3.1.6.1.9.1.3.1.7.2 1 .1.4.1.7.2 1 0 .2.1.3.1.5s.1.3.1.4c.1.5.2.9.2.9s1 .2 2.4.3c.4 0 .8.1 1.2.1.4 0 .9.1 1.3.1.9.1 1.9.2 2.9.2.8 0 1.6.1 2.4.1.1.5.3 1 .4 1.4.3.9.6 1.6.7 2.1.2.5.3.8.3.8s.1.3.3.8c.2.5.5 1.2.9 2.1.1.2.2.4.3.7.1.2.2.4.3.7l-1.7 1.7c-1.3 1.4-2.6 2.9-3.6 4-.9 1.1-1.5 1.9-1.5 1.9s.2.3.5.8.7 1 1.1 1.6l.6.9c.2.3.4.5.6.7.3.4.5.7.5.7s.2-.1.6-.2c.4-.1 1-.3 1.7-.6 1.4-.5 3.2-1.2 5-1.9.8-.3 1.5-.6 2.2-1 .3.4.7.8 1 1.1.6.7 1.2 1.2 1.6 1.6.2.2.4.3.5.4l.2.2.6.6c.4.4 1 .9 1.7 1.5l1.2.9c-.3.7-.5 1.5-.8 2.3-.3.9-.6 1.9-.8 2.7-.2.9-.5 1.7-.6 2.4-.4 1.4-.6 2.4-.6 2.4s.1 0 .2.1.3.2.6.3c.5.3 1.1.7 1.7 1s1.3.7 1.7.9l.6.3c.1.1.2.1.2.1s.7-.7 1.8-1.7l1.8-1.8c.6-.7 1.3-1.4 1.9-2.1.6-.6 1.1-1.2 1.6-1.9.5.2.9.4 1.4.6.4.2.8.3 1.2.4.2.1.3.1.5.2s.3.1.4.1c.5.2.8.3.8.3s.3.1.8.3c.5.1 1.3.3 2.2.6.5.1.9.2 1.5.3l.3 2.4c.3 1.9.6 3.8.9 5.3.3 1.4.5 2.4.5 2.4h.2c.2 0 .4 0 .6.1.5.1 1.3.1 2 .2.7 0 1.4.1 2 .1h.9s.4-.9.9-2.3 1.1-3.2 1.7-5.1l.6-2.4c.5 0 1-.1 1.5-.1.9-.1 1.7-.2 2.2-.2.5-.1.8-.1.8-.1s.3 0 .8-.1c.1 0 .3 0 .4-.1.2 0 .3-.1.5-.1l1.2-.3c.4-.1.9-.2 1.4-.4.4.7.9 1.4 1.3 2.1.5.8 1.1 1.6 1.6 2.3.5.7 1 1.4 1.5 2 .9 1.2 1.5 1.9 1.5 1.9s.1 0 .2-.1.4-.1.6-.2c.5-.2 1.2-.4 1.9-.7.7-.3 1.3-.6 1.8-.8.2-.1.5-.2.6-.3.1-.1.2-.1.2-.1s-.1-1-.2-2.5c-.1-.7-.2-1.6-.3-2.5-.1-.9-.3-1.9-.4-2.8-.1-.8-.3-1.6-.5-2.4.5-.3.9-.5 1.3-.7.8-.5 1.5-.9 1.9-1.2.5-.3.7-.5.7-.5s.1 0 .2-.1.3-.2.5-.4c.4-.3 1.1-.8 1.8-1.4.4-.3.7-.6 1.1-.9.7.4 1.4.9 2.1 1.3 1.7 1 3.4 1.9 4.7 2.6.7.3 1.2.6 1.6.8l.6.3.6-.6c.2-.2.4-.4.6-.7.2-.2.5-.5.7-.8.5-.5 1-1.1 1.3-1.5s.6-.7.6-.7-.5-.9-1.2-2.1c-.8-1.2-1.8-2.9-3-4.5-.5-.7-1-1.3-1.4-2 .2-.2.3-.4.4-.6.1-.2.3-.4.4-.6.5-.8.9-1.4 1.2-1.9.3-.5.4-.7.4-.7s.1-.3.4-.8.6-1.2 1-2c.2-.4.4-.9.6-1.3.8.1 1.6.2 2.4.2 1 .1 1.9.1 2.9.2.5 0 .9 0 1.3.1h3.7s.1-.3.3-.8c0-.1.1-.3.1-.4 0-.1.1-.3.1-.5.1-.3.2-.7.3-1 .1-.3.2-.7.3-1 .1-.3.2-.6.2-.9.1-.5.2-.9.2-.9s-.8-.6-2-1.4c-1.2-.7-2.9-1.7-4.6-2.7zm-14.8 9.7c-.2.4-.5.9-1 1.5-.1.2-.2.3-.3.5-.1.2-.2.3-.4.5-.3.3-.5.7-.8 1.1-.3.4-.6.7-.9 1.1l-.2.3-.3.3c-.2.2-.3.4-.5.6-1.4 1.5-2.9 2.9-4.1 3.8-.6.5-1.1.8-1.5 1.1-.2.1-.3.2-.4.3s-.2.1-.2.1-.2.1-.6.4c-.4.3-.9.6-1.6 1-1.3.8-3.1 1.7-5 2.5-1.9.7-3.8 1.3-5.3 1.6-.4.1-.7.1-1 .2-.2 0-.3.1-.4.1s-.3 0-.4.1c-.4.1-.7.1-.7.1s-.2 0-.7.1c-.4 0-1.1.1-1.8.2-1.5.1-3.5.2-5.6 0-2-.2-4-.5-5.5-.8-.7-.2-1.3-.3-1.8-.5-.4-.1-.7-.2-.7-.2s-.2-.1-.7-.2c-.1 0-.2-.1-.3-.1-.1 0-.3-.1-.4-.1-.3-.1-.6-.2-1-.4-1.4-.5-3.3-1.4-5-2.4-1.8-1-3.4-2.2-4.6-3.1-.6-.5-1.1-.9-1.4-1.2l-.5-.5-.1-.1c-.1-.1-.2-.2-.4-.3l-1.3-1.3c-1-1.1-2.3-2.7-3.5-4.3-.1-.2-.3-.4-.4-.6l-.2-.3-.2-.3c-.3-.4-.5-.8-.8-1.3-.2-.4-.4-.8-.7-1.2l-.3-.6c-.1-.2-.2-.4-.3-.5-.3-.7-.6-1.3-.8-1.7l-.3-.6s-.1-.2-.2-.7c-.1-.4-.4-1-.6-1.7-.1-.4-.3-.7-.4-1.2-.1-.4-.2-.9-.3-1.3-.2-.9-.4-1.9-.6-2.9 0-.2-.1-.5-.1-.7 0-.3-.1-.5-.1-.7s-.1-.5-.1-.7v-.8c0-.5-.1-.9-.1-1.4v-3.7s0-.3.1-.7.1-1.1.2-1.8c.1-.4.1-.8.2-1.2s.2-.9.3-1.3c0-.1 0-.2.1-.4 0-.1.1-.2.1-.4.1-.2.1-.5.2-.7s.1-.5.2-.7.1-.5.2-.7c.3-1 .6-1.9 1-2.8.2-.4.4-.9.5-1.3.2-.4.4-.8.5-1.1.3-.7.6-1.2.8-1.6l.3-.6s.1-.2.4-.6c.2-.4.5-.9 1-1.5.1-.2.2-.3.3-.5.1-.2.2-.3.4-.5.3-.3.5-.7.8-1.1.3-.4.6-.7.9-1.1l.2-.3.3-.3c.2-.2.3-.4.5-.6 1.4-1.5 2.9-2.9 4.1-3.8.6-.5 1.1-.8 1.5-1.1.2-.1.3-.2.4-.3s.2-.1.2-.1.2-.1.6-.4c.4-.3.9-.6 1.6-1 1.3-.8 3.1-1.7 5-2.5 1.9-.7 3.8-1.3 5.3-1.6.4-.1.7-.1 1-.2.2 0 .3-.1.4-.1s.3 0 .4-.1c.4-.1.7-.1.7-.1s.2 0 .7-.1c.4 0 1.1-.1 1.8-.2 1.5-.1 3.5-.2 5.6 0 2 .2 4 .5 5.5.8.7.2 1.3.3 1.8.5.4.1.7.2.7.2s.2.1.7.2c.1 0 .2.1.3.1.1 0 .3.1.4.1.3.1.6.2 1 .4 1.4.5 3.3 1.4 5 2.4 1.8 1 3.4 2.2 4.6 3.1.6.5 1.1.9 1.4 1.2l.5.5.1.1c.1.1.2.2.4.3l1.3 1.3c1 1.1 2.3 2.7 3.5 4.3.1.2.3.4.4.6l.2.3.2.3c.3.4.5.8.8 1.3.2.4.4.8.7 1.2l.3.6c.1.2.2.4.3.5.3.7.6 1.3.8 1.7l.3.6s.1.2.2.7c.1.4.4 1 .6 1.7.1.4.3.7.4 1.2.1.4.2.9.3 1.3.2.9.4 1.9.6 2.9 0 .2.1.5.1.7 0 .3.1.5.1.7s.1.5.1.7v.8c0 .5.1.9.1 1.4v3.7s0 .3-.1.7-.1 1.1-.2 1.8c-.1.4-.1.8-.2 1.2s-.2.9-.3 1.3c0 .1 0 .2-.1.4 0 .1-.1.2-.1.4-.1.2-.1.5-.2.7s-.1.5-.2.7-.1.5-.2.7c-.3 1-.6 1.9-1 2.8-.2.4-.4.9-.5 1.3-.2.4-.4.8-.5 1.1-.3.7-.6 1.2-.8 1.6l-.3.6s-.2.2-.4.6zm168.9-181.4c0-.3-.1-.6-.1-.9-.1-.8-.2-1.5-.3-2-.1-.5-.1-.8-.1-.8s-.1-.3-.2-.7c-.1-.5-.2-1.2-.4-2-.1-.3-.2-.6-.2-.9.5-.4 1-.9 1.5-1.5 1.4-1.5 2.8-3.1 2.8-3.1s-.1-.3-.2-.7c-.2-.4-.4-1-.6-1.5-.2-.6-.4-1.1-.6-1.5s-.3-.7-.3-.7-.5-.1-1.3-.2-1.8-.2-2.9-.3c-.7-.1-1.4-.1-2.1-.1-.1-.3-.3-.6-.4-.8-.4-.7-.7-1.3-1-1.8-.3-.4-.4-.6-.4-.6s-.1-.2-.4-.6c-.2-.4-.6-1-1.1-1.7-.2-.2-.3-.5-.5-.8.3-.6.5-1.2.8-1.9.4-1 .8-1.9 1-2.7.3-.7.4-1.2.4-1.2s-.2-.2-.5-.6c-.3-.3-.6-.8-1.1-1.2-.4-.4-.8-.9-1.1-1.2l-.5-.5s-2.1.5-4.1 1c-.7.2-1.4.4-2 .6-.2-.2-.5-.4-.7-.6-1.3-1.1-2.1-1.8-2.1-1.8s-.2-.2-.6-.5c-.4-.3-.9-.7-1.6-1.2-.2-.2-.5-.3-.8-.5 0-.6.1-1.4.1-2.1 0-2.1-.1-4.2-.1-4.2s-.3-.1-.6-.3c-.4-.2-.9-.5-1.4-.8s-1.1-.5-1.4-.7c-.4-.2-.7-.3-.7-.3s-.4.3-1.1.7c-.7.5-1.5 1.1-2.3 1.7l-1.2.9c-.2.1-.3.2-.4.4l-.9-.3c-.4-.1-.8-.3-1.1-.4-.3-.1-.6-.2-.8-.3-.5-.1-.7-.2-.7-.2s-.3-.1-.7-.2c-.5-.1-1.1-.3-1.9-.5-.3-.1-.6-.1-.9-.2-.2-.6-.4-1.3-.7-2-.3-1-.7-1.9-1-2.7-.3-.7-.5-1.2-.5-1.2s-.3 0-.7-.1c-.4-.1-1-.1-1.6-.2s-1.2-.1-1.6-.1h-.7s-.3.4-.8 1.1l-1.6 2.4c-.4.6-.7 1.3-1 1.8h-.9c-.8 0-1.5.1-2 .1h-.8s-.3 0-.8.1-1.2.1-2 .2c-.3 0-.6.1-.9.1-.4-.5-.9-1.1-1.3-1.6-1.3-1.5-2.9-3.1-2.9-3.1h-.2c-.1 0-.3.1-.5.1-.4.1-1 .3-1.6.4-.6.1-1.1.3-1.5.5-.4.1-.7.2-.7.2s-.1.5-.3 1.3c-.2.8-.4 1.8-.6 2.8-.1.7-.2 1.4-.3 2-.3.1-.6.2-.9.4-.8.3-1.4.6-1.8.8s-.7.3-.7.3-.2.1-.7.3c-.4.2-1 .6-1.8.9-.3.1-.5.3-.8.5-.5-.3-1.2-.7-1.8-1-.9-.5-1.9-1-2.6-1.3s-1.2-.5-1.2-.5-.2.2-.6.4-.8.6-1.3.9c-.5.4-.9.7-1.3 1-.2.1-.3.2-.4.3s-.2.1-.2.1.2 2.1.6 4.1c.1.7.3 1.4.4 2-.2.2-.5.4-.7.6l-1.4 1.4c-.3.3-.5.6-.5.6s-.2.2-.5.6-.8.9-1.3 1.5c-.2.2-.4.5-.6.7-.6-.1-1.4-.2-2.1-.3-1-.1-2.1-.2-2.9-.3-.8-.1-1.3-.1-1.3-.1s-.6 1-1.3 1.9l-1.2 2s.2.5.6 1.2.9 1.6 1.5 2.5c.4.6.8 1.2 1.1 1.7-.1.3-.3.6-.4.8-.4.7-.6 1.4-.8 1.8-.2.4-.3.7-.3.7s0 .1-.1.2-.1.3-.2.5c-.2.5-.4 1.1-.7 1.9l-.3.9c-.6.1-1.3.3-2 .5-1 .3-2 .6-2.8.8s-1.3.4-1.3.4-.1.3-.2.7-.2 1-.3 1.6c-.1.6-.2 1.1-.3 1.6-.1.4-.1.7-.1.7s.4.3 1 .8 1.4 1.2 2.3 1.8c.6.4 1.2.9 1.7 1.2 0 .3-.1.6-.1.9 0 .8-.1 1.5-.1 2v2.5c0 .3 0 .7.1 1.1v.9c-.2.1-.3.2-.5.3l-1.2.9c-.8.6-1.7 1.2-2.3 1.7-.3.2-.6.5-.7.6-.2.1-.3.2-.3.2s.2 1.2.4 2.3c.2 1.1.5 2.3.5 2.3s.1 0 .3.1c.2.1.5.2.9.3.8.2 1.8.6 2.7.8.5.1 1 .3 1.5.4.2 0 .4.1.6.1l.3.9c.1.4.2.8.3 1.1.1.3.2.6.3.8.2.5.3.7.3.7s.1.3.3.7c.2.5.5 1.1.8 1.9.1.3.2.6.4.9-.4.5-.8 1.1-1.2 1.7-.6.9-1.1 1.8-1.5 2.4-.4.7-.6 1.1-.6 1.1s.1.3.4.6c.2.4.5.9.8 1.4s.6 1 .8 1.4c.2.4.4.6.4.6s.5 0 1.3-.1c.8 0 1.8-.1 2.9-.2.7-.1 1.4-.2 2.1-.2.2.3.4.5.6.7.5.6 1 1.2 1.3 1.5l.4.4.1.1s.2.2.5.6.8.9 1.4 1.4l.7.7c-.2.6-.3 1.3-.5 2-.2 1-.4 2-.5 2.8s-.2 1.3-.2 1.3.9.7 1.8 1.5c.9.7 1.9 1.4 1.9 1.4s.5-.2 1.2-.5 1.7-.8 2.6-1.2c.6-.3 1.3-.7 1.8-1 .3.2.6.3.8.5.7.4 1.3.7 1.8 1 .4.2.7.4.7.4s.2.1.7.3c.4.2 1.1.5 1.8.9.3.1.6.2.9.4.1.6.2 1.3.3 2.1.3 2 .8 4.1.8 4.1s.1 0 .2.1c.1 0 .3.1.5.2.4.1 1 .3 1.5.5.6.2 1.1.3 1.6.4.4.1.7.2.7.2l.9-.9c.6-.5 1.3-1.3 2-2.1.5-.5 1-1.1 1.4-1.6.3.1.6.1.9.2.8.1 1.5.2 2 .3.5 0 .8.1.8.1s.3 0 .8.1 1.2.1 2 .1h.9c.3.6.7 1.2 1 1.8.5.9 1.1 1.8 1.5 2.4s.7 1.1.7 1.1h.7c.4 0 1 0 1.6-.1s1.2-.1 1.6-.2c.2 0 .4 0 .5-.1h.2s.9-1.9 1.6-3.9c.3-.7.5-1.4.7-2 .3-.1.6-.1.9-.2.8-.2 1.5-.3 2-.5.5-.1.7-.2.7-.2h.2c.1 0 .3-.1.5-.2.5-.1 1.1-.4 1.9-.6l.9-.3c.5.4 1 .9 1.6 1.3.8.7 1.6 1.3 2.3 1.7.6.5 1.1.8 1.1.8s.3-.1.7-.3c.4-.2.9-.4 1.5-.7.5-.3 1.1-.5 1.4-.7.4-.2.6-.4.6-.4s0-.5.1-1.3c0-.8.1-1.8.1-2.9 0-.7 0-1.5-.1-2.1.3-.2.5-.3.8-.5.7-.5 1.3-.9 1.7-1.1.4-.3.6-.5.6-.5s.2-.2.6-.5c.2-.1.4-.3.7-.5.3-.2.6-.5.9-.7.2-.2.5-.4.7-.6.2.1.4.1.5.2.5.2.9.3 1.4.5 1 .3 2 .6 2.8.8.8.2 1.3.3 1.3.3l.5-.5c.3-.3.7-.7 1.1-1.2.4-.4.8-.9 1.1-1.2l.5-.5s-.6-2-1.4-3.9c-.3-.7-.6-1.3-.8-1.9.2-.3.4-.5.6-.8.5-.7.9-1.3 1.1-1.7.3-.4.4-.6.4-.6s.6-.9 1.4-2.4c.1-.3.3-.5.4-.8.6 0 1.4 0 2.1-.1 2-.1 4.2-.4 4.2-.4s.1-.3.3-.7c.2-.4.4-.9.6-1.5.2-.5.4-1.1.6-1.5.1-.4.2-.7.2-.7s-.3-.4-.8-1-1.2-1.4-1.9-2.2c-.5-.5-1-1.1-1.4-1.5.1-.3.2-.6.2-.9.2-.8.4-1.5.5-2s.2-.7.2-.7.1-.3.2-.7c.1-.5.2-1.2.3-2 0-.3.1-.6.1-.9.6-.2 1.2-.5 1.9-.8.9-.4 1.9-.9 2.6-1.3.7-.4 1.1-.6 1.1-.6v-4.6s-1.8-1.1-3.7-2c-.7.3-1.4 0-1.9-.2zm-8 13.2c-.1.4-.2 1-.4 1.7-.3 1.4-.9 3.2-1.6 4.9-.2.4-.4.9-.5 1.3l-.6 1.2c-.4.8-.8 1.5-1.1 2.1-.7 1.2-1.2 2-1.2 2s-.1.2-.4.5c-.2.3-.5.8-1 1.4-.4.6-.9 1.2-1.5 1.9-.5.7-1.2 1.4-1.8 2.1-1.3 1.4-2.6 2.7-3.7 3.6-.3.2-.5.4-.7.6s-.4.3-.6.4c-.3.2-.5.4-.5.4s-.2.1-.5.4c-.3.2-.8.6-1.4 1s-1.3.8-2 1.3c-.8.4-1.6.9-2.4 1.3s-1.7.8-2.5 1.1c-.8.3-1.6.6-2.3.8-.7.2-1.2.4-1.6.5-.2.1-.4.1-.5.1h-.2s-.2.1-.6.2-1 .3-1.7.4-1.5.3-2.4.4c-.4.1-.9.2-1.3.2-.5 0-.9.1-1.4.1-.5.1-.9.1-1.4.1s-.9.1-1.4.1h-2.4c-.7 0-1.3 0-1.7-.1-.4 0-.6-.1-.6-.1s-.2 0-.6-.1c-.4 0-1-.1-1.7-.2s-1.5-.3-2.4-.4c-.4-.1-.9-.2-1.3-.3-.4-.1-.9-.2-1.4-.4-.4-.1-.9-.3-1.3-.4-.4-.2-.9-.3-1.3-.5-.2-.1-.4-.1-.6-.2s-.4-.2-.6-.2c-.4-.2-.7-.3-1.1-.4-.6-.3-1.2-.6-1.5-.7l-.6-.3-.6-.3c-.4-.2-.9-.5-1.5-.8-.3-.2-.6-.4-1-.6-.3-.2-.7-.5-1.1-.7-.7-.5-1.5-1.1-2.3-1.6-.4-.3-.7-.6-1.1-.9s-.7-.6-1-.9-.6-.6-.9-.8l-.8-.8-1.2-1.2c-.3-.3-.4-.5-.4-.5l-.1-.1c-.1-.1-.2-.2-.3-.4-.3-.3-.6-.8-1.1-1.3-.9-1.1-2-2.6-2.9-4.2l-.4-.6-.3-.6c-.2-.4-.4-.8-.7-1.2-.4-.8-.8-1.5-1-2.2-.3-.6-.5-1.2-.7-1.6-.1-.4-.2-.6-.2-.6s-.1-.2-.2-.6c-.1-.2-.2-.4-.3-.7l-.3-.9c-.5-1.3-.9-3.2-1.2-5-.3-1.9-.5-3.7-.6-5.1v-2.9c0-.4 0-1 .1-1.7 0-.7.1-1.5.2-2.4.1-.4.1-.9.2-1.3 0-.2.1-.5.1-.7l.1-.7c.3-1.8.9-3.6 1.3-5 .2-.7.4-1.2.6-1.6.1-.2.1-.3.2-.4 0-.1.1-.2.1-.2s.1-.2.2-.6c.2-.4.4-.9.7-1.6.2-.3.3-.7.5-1 .2-.4.4-.7.6-1.1.2-.4.4-.8.7-1.2.2-.4.5-.8.7-1.2.5-.8 1-1.6 1.6-2.3.3-.4.5-.7.8-1s.5-.6.7-.9c.4-.6.8-1 1.1-1.3.3-.3.4-.5.4-.5s.2-.2.4-.5l1.2-1.2c.3-.2.5-.5.8-.8.1-.1.3-.3.5-.4s.3-.3.5-.4c.3-.3.7-.6 1-.9.4-.3.7-.6 1.1-.8.4-.3.8-.6 1.1-.8.4-.3.7-.5 1.1-.8.8-.5 1.4-.9 2.1-1.2.6-.3 1.1-.6 1.5-.8l.6-.3.6-.3c.4-.2.9-.4 1.6-.7.6-.3 1.4-.5 2.2-.9.4-.2.9-.3 1.3-.4s.9-.3 1.3-.4c.5-.1.9-.2 1.4-.4.4-.1.9-.2 1.3-.3.9-.2 1.7-.3 2.4-.4.7-.1 1.3-.2 1.7-.2.4 0 .6-.1.6-.1h.7c.4 0 1 0 1.7-.1h2.4c.9 0 1.8.1 2.7.2.9.1 1.9.2 2.7.4.9.2 1.7.3 2.4.5s1.3.3 1.6.4c.4.1.6.2.6.2s.2.1.6.2c.2.1.4.1.7.2l.9.3c1.3.4 3.1 1.2 4.7 2 .8.4 1.7.9 2.4 1.3.8.4 1.4.9 2 1.3s1 .8 1.4 1c.3.2.5.4.5.4s.7.6 1.8 1.5c.5.5 1.2 1 1.8 1.6l1 1c.3.3.6.7 1 1 1.2 1.4 2.4 2.9 3.2 4.1.4.6.7 1.1.9 1.4.2.3.3.5.3.5s.1.2.3.5c.2.4.5.9.8 1.5l1.1 2.2c.2.4.3.8.5 1.2l.3.6.2.7c.7 1.7 1.2 3.6 1.5 4.9.2.7.3 1.3.4 1.7s.1.6.1.6 0 .2.1.6c.1.4.2 1 .2 1.7.1 1.4.3 3.3.3 5.2v1.4c0 .5 0 .9-.1 1.4-.1.9-.1 1.7-.3 2.4-.1.7-.2 1.3-.3 1.7-.1.4-.1.6-.1.6s.4.3.3.7zm62.8-9.4c-.1-.2-.1-.4-.1-.4h-2c-1 0-2 .1-2 .1s-.1-.2-.2-.5c-.1-.2-.2-.3-.2-.5l-.3-.6c-.2-.4-.5-.8-.6-1.1-.1-.2-.2-.3-.2-.4l-.1-.1s-.1-.2-.3-.5c-.2-.3-.5-.7-.8-1-.3-.4-.6-.7-.8-1-.2-.3-.4-.4-.4-.4s.5-.9.9-1.8c.2-.4.4-.9.6-1.2l.2-.6-.3-.3c-.2-.2-.4-.4-.7-.6-.3-.2-.5-.4-.7-.6l-.3-.3s-.9.5-1.7 1.1c-.4.3-.8.6-1.1.8-.3.2-.5.4-.5.4s-.2-.1-.5-.3-.7-.4-1.1-.7c-.8-.5-1.7-.9-1.7-.9s-.2-.1-.5-.2c-.2-.1-.4-.1-.6-.2-.2-.1-.4-.2-.6-.2-.4-.2-.9-.3-1.2-.4-.2-.1-.3-.1-.4-.1h-.2l-.2-2c-.1-1-.3-2-.3-2s-.7-.1-1.3-.2c-.2 0-.3 0-.5-.1h-.8l-.8 1.8c-.4.9-.7 1.8-.7 1.8h-1.9c-.5 0-.9.1-1.3.1-.3 0-.6.1-.6.1s-.2 0-.6.1c-.2 0-.4.1-.6.1s-.4.1-.7.1c-.2.1-.5.1-.7.2-.2.1-.4.1-.6.2-.2 0-.3.1-.4.1s-.2.1-.2.1l-1.2-1.6c-.3-.4-.6-.8-.9-1.1s-.4-.5-.4-.5l-.4.2c-.2.1-.5.2-.9.4l-1.2.6s0 .2.1.6c0 .4.1.9.2 1.4.2 1 .4 1.9.4 1.9s-.2.1-.5.3-.7.4-1.1.7-.7.6-1 .8c-.1.1-.3.2-.3.3l-.1.1-.4.4c-.3.2-.6.6-.9.9-.3.3-.6.7-.9 1-.2.3-.4.4-.4.4s-.2-.1-.6-.2c-.3-.1-.8-.3-1.3-.4-.9-.3-1.9-.6-1.9-.6s-.1.1-.2.3-.3.5-.5.8-.4.6-.5.8l-.2.4s.6.8 1.3 1.5c.3.4.7.7.9 1l.4.4s-.1.2-.3.5c-.2.3-.3.8-.5 1.2s-.3.9-.4 1.2l-.2.6v.2c0 .1-.1.2-.1.4-.1.3-.2.8-.3 1.3-.1.5-.2.9-.2 1.3-.1.3-.1.6-.1.6s-1 .2-1.9.5c-.5.1-1 .3-1.3.4-.4.1-.6.2-.6.2v2.6s.2.1.6.2c.4.1.8.2 1.3.4 1 .3 1.9.5 1.9.5v.2c0 .1 0 .2.1.4 0 .2.1.4.1.6s.1.4.1.7c0 .2.1.5.1.7.1.2.1.4.1.6l.2.6s.1.2.2.6c.1.3.3.8.4 1.2l.3.6c.1.2.2.4.2.5.1.2.1.3.2.4 0 .1.1.1.1.1l-1.4 1.4c-.7.7-1.3 1.5-1.3 1.5s.1.1.2.4c.1.1.1.2.2.4.1.1.2.3.3.4.4.6.8 1.1.8 1.1s1-.2 1.9-.6c1-.3 1.9-.7 1.9-.7l.1.1.3.3c.2.3.5.6.9 1l.5.5c.2.1.3.3.4.4.3.2.4.4.4.4s.7.6 1.5 1.2c.4.3.8.5 1.1.7.3.2.5.3.5.3s-.1.2-.1.6c-.1.4-.2.9-.3 1.3-.2 1-.3 2-.3 2s.1.1.4.2c.2.1.5.3.8.4.3.2.6.3.8.4l.4.2s.2-.2.4-.5c.3-.3.6-.7.9-1l1.2-1.6s.2.1.6.2c.3.1.8.2 1.2.3.5.1.9.2 1.3.3.3.1.6.1.6.1h.2c.1 0 .2 0 .4.1.3 0 .8.1 1.3.1h1.9s.3.9.7 1.8c.2.5.4.9.6 1.3.2.3.3.6.3.6h.4c.3 0 .6-.1.9-.1s.7-.1.9-.1c.2 0 .4-.1.4-.1s0-.2.1-.6.1-.9.2-1.4l.2-2h.2c.1 0 .2-.1.4-.1s.4-.1.6-.2.4-.1.7-.2c.4-.1.9-.3 1.2-.5.2-.1.3-.1.4-.2.1 0 .1-.1.1-.1s.2-.1.5-.2c.3-.2.7-.4 1.1-.6l.6-.3c.2-.1.4-.2.5-.3.1-.1.3-.2.4-.2l.1-.1 1.6 1.2c.8.6 1.7 1.1 1.7 1.1l.3-.3c.2-.2.5-.4.7-.6.3-.2.5-.4.7-.6l.3-.3-.8-1.8c-.4-.9-.9-1.8-.9-1.8l.1-.1.3-.3c.1-.1.2-.3.4-.5.1-.2.3-.3.4-.5s.3-.4.4-.5c.1-.2.2-.3.3-.5.2-.3.3-.5.3-.5s.1-.2.3-.5c.1-.2.2-.3.3-.5l.3-.6.3-.6c.1-.2.2-.4.3-.5.1-.2.1-.3.2-.4 0-.1.1-.1.1-.1s1 .1 2 .1h2s.1-.2.1-.4c.1-.2.2-.6.3-.9.1-.3.2-.6.2-.9.1-.2.1-.4.1-.4s-.8-.6-1.7-1.1c-.9-.5-1.7-1-1.7-1V66c0-.1 0-.2.1-.4 0-.2.1-.4.1-.6s0-.5.1-.7c.1-.5.1-.9.1-1.3v-1.2c0-.4 0-.8-.1-1.3 0-.2 0-.5-.1-.7 0-.2-.1-.4-.1-.6 0-.2 0-.3-.1-.4v-.2s.9-.5 1.7-1c.4-.3.9-.5 1.2-.7.3-.2.5-.3.5-.3s0-.2-.1-.4-.1-.6-.2-.9c-.3-1-.3-1.3-.4-1.6zm-19.3 22c-7.8 2.4-16.1-2-18.5-9.9-2.4-7.8 2-16.1 9.9-18.5 7.8-2.4 16.1 2 18.5 9.9 2.3 7.8-2.1 16.2-9.9 18.5zm40.2 73.9c-1.3-.7-3.1-1.6-4.9-2.4-.8-.3-1.5-.7-2.3-1 0-.5.1-1 .1-1.5.1-.9.1-1.7.1-2.3v-1.8c0-.5 0-1.3-.1-2.3 0-.5-.1-1-.1-1.5.7-.3 1.5-.7 2.2-1 1.8-.8 3.5-1.8 4.8-2.5s2.1-1.2 2.1-1.2-.1-.4-.2-.9c-.1-.3-.1-.6-.2-.9-.1-.3-.2-.7-.3-1-.1-.4-.2-.7-.3-1 0-.2-.1-.3-.1-.5s-.1-.3-.1-.4c-.2-.5-.3-.9-.3-.9s-1-.1-2.5-.1h-5.4c-.8 0-1.7.1-2.5.1-.2-.5-.4-1-.6-1.4-.3-.9-.7-1.6-.9-2.1-.2-.5-.4-.8-.4-.8s-.1-.3-.4-.8-.6-1.2-1.1-2c-.1-.2-.2-.4-.4-.6-.1-.2-.3-.4-.4-.7.5-.6 1-1.2 1.6-1.9 1.2-1.5 2.4-3.1 3.2-4.3l1.4-2.1s-.2-.3-.5-.7c-.3-.4-.8-1-1.2-1.6-.2-.3-.5-.6-.7-.8-.2-.3-.4-.5-.6-.7-.4-.4-.6-.7-.6-.7l-.6.3c-.4.2-1 .4-1.7.7-1.4.6-3.2 1.4-4.9 2.3-.7.4-1.5.8-2.2 1.2-.4-.4-.8-.7-1.1-1-.7-.6-1.3-1.1-1.7-1.5-.2-.2-.4-.3-.5-.4s-.2-.1-.2-.1-.2-.2-.7-.5c-.4-.3-1.1-.8-1.9-1.3-.4-.3-.8-.5-1.3-.8l.6-2.4c.2-1 .4-1.9.6-2.8s.3-1.8.4-2.5c.2-1.5.4-2.5.4-2.5s-.1 0-.2-.1-.3-.2-.6-.3c-.5-.2-1.1-.6-1.8-.9-.7-.3-1.3-.6-1.8-.8-.3-.1-.5-.2-.6-.3-.1-.1-.2-.1-.2-.1s-.7.7-1.7 1.9c-.5.6-1 1.2-1.6 1.9-.6.7-1.2 1.5-1.8 2.3-.5.7-1 1.3-1.5 2-.5-.2-1-.3-1.4-.4-.5-.1-.9-.2-1.2-.3-.2-.1-.4-.1-.5-.1-.2 0-.3-.1-.4-.1-.5-.1-.8-.2-.8-.2s-.3-.1-.8-.2-1.3-.2-2.2-.4c-.5-.1-1-.1-1.5-.2-.2-.8-.3-1.6-.5-2.4-.4-1.9-.9-3.8-1.4-5.2-.4-1.4-.7-2.4-.7-2.4h-2.9c-.7 0-1.4.1-2 .1h-.9s-.3 1-.7 2.4c-.4 1.4-.9 3.3-1.2 5.3-.2.8-.3 1.6-.4 2.4-.5.1-1 .1-1.5.2-.9.2-1.7.3-2.2.4s-.8.2-.8.2-.3.1-.8.2c-.1 0-.3.1-.4.1-.2 0-.3.1-.5.2-.4.1-.8.2-1.2.4-.4.1-.9.3-1.4.5-.5-.6-1-1.3-1.5-2-.6-.8-1.2-1.5-1.8-2.2-.6-.7-1.2-1.3-1.7-1.9-1-1.1-1.7-1.8-1.7-1.8s-.1 0-.2.1-.4.2-.6.3c-.5.2-1.2.5-1.8.8-.6.3-1.3.7-1.8.9l-.6.3c-.1.1-.2.1-.2.1s.2 1 .4 2.5c.1.7.3 1.6.5 2.5s.4 1.8.7 2.8c.2.8.4 1.6.7 2.4-.4.3-.9.6-1.2.8-.8.6-1.4 1-1.8 1.4-.4.3-.7.5-.7.5s-.1 0-.2.1-.3.2-.5.4c-.4.4-1 .9-1.7 1.5-.3.3-.7.7-1.1 1-.7-.4-1.5-.8-2.2-1.1-1.8-.8-3.6-1.6-5-2.2-.7-.3-1.3-.5-1.7-.7-.4-.2-.6-.2-.6-.2s-.2.3-.6.7c-.2.2-.4.5-.6.7-.2.3-.4.6-.7.8-.4.6-.9 1.1-1.2 1.6-.3.4-.5.7-.5.7s.6.8 1.4 2c.9 1.2 2.1 2.8 3.3 4.3.5.6 1.1 1.3 1.6 1.9-.1.2-.3.4-.4.7-.1.2-.2.4-.4.6-.5.8-.8 1.5-1.1 2-.2.5-.4.8-.4.8s-.1.3-.3.8c-.2.5-.6 1.2-.9 2.1-.2.4-.4.9-.5 1.4h-5.4c-.5 0-.9 0-1.3.1-.4 0-.8 0-1.2.1-1.5.1-2.5.2-2.5.2s-.1.4-.2.9c0 .1-.1.3-.1.4 0 .2-.1.3-.1.5-.1.3-.2.7-.2 1-.1.4-.2.7-.2 1-.1.3-.1.6-.2.9-.1.5-.1.9-.1.9s.9.5 2.2 1.2c1.3.7 3.1 1.6 4.9 2.4.8.3 1.5.7 2.3 1 0 .5-.1 1-.1 1.5-.1.9-.1 1.7-.1 2.3v1.8c0 .5 0 1.3.1 2.3 0 .5.1 1 .1 1.5-.7.3-1.5.7-2.2 1-1.8.8-3.5 1.8-4.8 2.5s-2.1 1.2-2.1 1.2.1.4.2.9c.1.3.1.6.2.9.1.3.2.7.3 1 .1.4.2.7.3 1 0 .2.1.3.1.5s.1.3.1.4c.2.5.3.9.3.9s1 .1 2.5.1h5.4c.8 0 1.7-.1 2.5-.1.2.5.4 1 .6 1.4.3.9.7 1.6.9 2.1.2.5.4.8.4.8s.1.3.4.8.6 1.2 1.1 2c.1.2.2.4.4.6.1.2.3.4.4.7-.5.6-1 1.2-1.6 1.9-1.2 1.5-2.4 3.1-3.2 4.3l-1.4 2.1s.2.3.5.7.8 1 1.2 1.6c.2.3.5.6.7.8.2.3.4.5.6.7.4.4.6.7.6.7l.6-.3c.4-.2 1-.4 1.7-.7 1.4-.6 3.2-1.4 4.9-2.3.7-.4 1.5-.8 2.2-1.2.4.4.8.7 1.1 1 .7.6 1.3 1.1 1.7 1.5.2.2.4.3.5.4.1.1.2.1.2.1s.2.2.7.5c.4.3 1.1.8 1.9 1.3.4.3.8.5 1.3.8l-.6 2.4c-.2 1-.4 1.9-.6 2.8-.2.9-.3 1.8-.4 2.5-.2 1.5-.4 2.5-.4 2.5s.1 0 .2.1.3.2.6.3c.5.2 1.1.6 1.8.9.7.3 1.3.6 1.8.8.3.1.5.2.6.3s.2.1.2.1.7-.7 1.7-1.9c.5-.6 1-1.2 1.6-1.9s1.2-1.5 1.8-2.3c.5-.7 1-1.3 1.5-2 .5.2 1 .3 1.4.4.5.1.9.2 1.2.3.2.1.4.1.5.1.2 0 .3.1.4.1.5.1.8.2.8.2s.3.1.8.2 1.3.2 2.2.4c.5.1 1 .1 1.5.2.2.8.3 1.6.5 2.4.4 1.9.9 3.8 1.4 5.2.4 1.4.7 2.4.7 2.4h2.9c.7 0 1.4-.1 2-.1h.9s.3-1 .7-2.4c.4-1.4.9-3.3 1.2-5.3.2-.8.3-1.6.4-2.4.5-.1 1-.1 1.5-.2.9-.2 1.7-.3 2.2-.4.5-.1.8-.2.8-.2s.3-.1.8-.2c.1 0 .3-.1.4-.1.2 0 .3-.1.5-.2.4-.1.8-.2 1.2-.4.4-.1.9-.3 1.4-.5.5.6 1 1.3 1.5 2 .6.8 1.2 1.5 1.8 2.2.6.7 1.2 1.3 1.7 1.9 1 1.1 1.7 1.8 1.7 1.8s.1 0 .2-.1.4-.2.6-.3c.5-.2 1.2-.5 1.8-.8.6-.3 1.3-.7 1.8-.9l.6-.3c.1-.1.2-.1.2-.1s-.2-1-.4-2.5c-.1-.7-.3-1.6-.5-2.5s-.4-1.8-.7-2.8c-.2-.8-.4-1.6-.7-2.4.4-.3.9-.6 1.2-.8.8-.6 1.4-1 1.8-1.4.4-.3.7-.5.7-.5s.1 0 .2-.1.3-.2.5-.4c.4-.4 1-.9 1.7-1.5.3-.3.7-.7 1.1-1 .7.4 1.5.8 2.2 1.1 1.8.8 3.6 1.6 5 2.2.7.3 1.3.5 1.7.7.4.2.6.2.6.2s.2-.3.6-.7c.2-.2.4-.5.6-.7.2-.3.4-.6.7-.8.4-.6.9-1.1 1.2-1.6.3-.4.5-.7.5-.7s-.6-.8-1.4-2c-.9-1.2-2.1-2.8-3.3-4.3-.5-.6-1.1-1.3-1.6-1.9.1-.2.3-.4.4-.7.1-.2.2-.4.4-.6.5-.8.8-1.5 1.1-2 .2-.5.4-.8.4-.8s.1-.3.3-.8c.2-.5.6-1.2.9-2.1.2-.4.4-.9.5-1.4h5.4c.5 0 .9 0 1.3-.1.4 0 .8 0 1.2-.1 1.5-.1 2.5-.2 2.5-.2s.1-.4.2-.9c0-.1.1-.3.1-.4 0-.2.1-.3.1-.5.1-.3.2-.7.2-1 .1-.4.2-.7.2-1 .1-.3.1-.6.2-.9.1-.5.1-.9.1-.9s-.9-.5-2.2-1.2zm-54.6 23c-16.8-1.6-29.1-16.5-27.6-33.3 1.6-16.8 16.5-29.1 33.3-27.6 16.8 1.6 29.1 16.5 27.6 33.3-1.6 16.8-16.5 29.2-33.3 27.6zm4.2 111.3s.1-.1.3-.2c.2-.1.4-.3.7-.6l.9-.9c.3-.3.7-.7 1.1-1 .3-.4.7-.7 1-1.1.3-.3.6-.7.9-1 .5-.6.8-.9.8-.9s.3-.4.8-1c.2-.3.5-.6.8-1l.9-1.2c.3-.4.6-.8.8-1.2.3-.4.5-.8.7-1.1.2-.3.3-.6.5-.8.1-.2.2-.3.2-.3l4.2.8c2.1.3 4.2.5 4.2.5s.2-.3.4-.8.5-1.2.8-1.8c.3-.7.6-1.3.8-1.8.2-.5.3-.8.3-.8s-1.6-1.4-3.3-2.7c-1.7-1.3-3.4-2.5-3.4-2.5s0-.1.1-.3c.1-.2.1-.5.2-.9l.3-1.2c.1-.5.2-.9.3-1.4.2-1 .4-2 .5-2.7.1-.7.2-1.2.2-1.2v-.3c0-.2.1-.5.1-.9 0-.8.2-1.7.2-2.8v-4s2-.7 3.9-1.6c1-.4 2-.9 2.7-1.2.7-.4 1.2-.6 1.2-.6s0-.4-.1-.9-.2-1.3-.3-2c-.1-.7-.2-1.4-.4-2-.1-.5-.2-.9-.2-.9s-.5-.1-1.3-.2-1.9-.2-2.9-.3c-2.1-.2-4.2-.3-4.2-.3s-.1-.5-.4-1.2c-.1-.4-.2-.8-.4-1.2-.2-.4-.3-.9-.5-1.4-.3-.9-.8-1.9-1-2.6-.1-.3-.3-.6-.4-.8s-.2-.3-.2-.3-.2-.5-.5-1.1c-.4-.7-.8-1.6-1.3-2.4-.5-.9-1-1.7-1.5-2.3-.4-.6-.7-1-.7-1s1.2-1.7 2.4-3.5c.6-.9 1.2-1.8 1.6-2.5s.7-1.2.7-1.2-.2-.3-.6-.7-.8-1-1.3-1.5-1-1.1-1.4-1.5l-.6-.6s-2 .9-3.9 1.9c-.9.5-1.9 1-2.6 1.4s-1.2.7-1.2.7-.4-.3-.9-.8c-.6-.5-1.4-1.1-2.2-1.7-1.6-1.2-3.3-2.3-3.3-2.3s-.4-.3-1.1-.6c-.3-.2-.7-.4-1.1-.6-.4-.2-.9-.4-1.3-.7-.9-.5-1.8-.9-2.5-1.2-.3-.2-.6-.3-.8-.4-.2-.1-.3-.1-.3-.1s.1-2.1.2-4.3c0-2.1-.1-4.3-.1-4.3s-1.4-.5-2.8-.8c-.3-.1-.7-.2-1-.3s-.6-.1-.9-.2c-.5-.1-.9-.2-.9-.2s-1.2 1.8-2.2 3.6c-1.1 1.9-2 3.7-2 3.7s-.1 0-.3-.1c-.2 0-.5-.1-.9-.1s-.8-.1-1.3-.2c-.5 0-1-.1-1.5-.1-1-.1-2-.1-2.8-.1h-2.6c-.4 0-.8.1-1.3.1s-1 .1-1.5.1c-.5.1-1 .1-1.5.2s-.9.1-1.3.2-.7.1-.9.1c-.2 0-.3.1-.3.1s-1-1.8-2.2-3.7c-.6-.9-1.2-1.8-1.6-2.5-.5-.7-.8-1.1-.8-1.1s-.3.1-.9.2c-.5.1-1.2.3-1.9.6-1.4.4-2.7.9-2.7.9v1.3c0 .8 0 1.9.1 2.9.1 2.1.3 4.2.3 4.2s-.5.2-1.1.5c-.7.3-1.6.8-2.5 1.3s-1.7 1-2.4 1.4c-.3.2-.6.4-.8.5-.2.1-.3.2-.3.2s-.4.3-1 .7-1.4 1-2.2 1.7c-.8.7-1.6 1.3-2.1 1.8-.6.5-.9.9-.9.9s-.5-.2-1.2-.6c-.7-.4-1.7-.8-2.6-1.3-1.9-.9-3.9-1.7-3.9-1.7s-.2.3-.6.7-.8.9-1.3 1.5c-.4.6-.9 1.1-1.2 1.5-.3.4-.6.7-.6.7l2.4 3.6c.6.9 1.2 1.7 1.7 2.3s.8 1 .8 1-.3.4-.7 1.1c-.4.6-.9 1.5-1.4 2.4s-.9 1.8-1.2 2.5c-.3.7-.5 1.1-.5 1.1s-.1.1-.1.3c-.1.2-.2.5-.3.8-.3.7-.7 1.6-.9 2.6-.3.9-.6 1.9-.8 2.6-.2.7-.3 1.2-.3 1.2s-2.1.2-4.2.5c-1.1.1-2.1.3-2.9.4-.8.1-1.3.2-1.3.2s-.3 1.4-.4 2.9c-.1.7-.2 1.4-.2 2 0 .5-.1.9-.1.9s.5.2 1.2.6c.7.3 1.7.7 2.7 1.1 2 .8 4 1.5 4 1.5v2.5c0 .5.1 1 .1 1.5s.1 1 .1 1.5c.1.5.1.9.1 1.3.1.7.2 1.2.2 1.2s.1.5.2 1.2c.2.7.3 1.7.6 2.7.1.5.3 1 .4 1.4s.3.9.4 1.2c.1.4.2.7.3.9.1.2.1.3.1.3s-1.7 1.3-3.3 2.7c-1.6 1.4-3.2 2.9-3.2 2.9s.1.3.4.8c.1.2.2.5.4.9.1.3.3.6.5 1 .6 1.3 1.3 2.6 1.3 2.6s2.1-.3 4.2-.7c2.1-.4 4.2-.9 4.2-.9s.1.1.2.3c.1.2.3.5.5.8.4.6 1 1.5 1.6 2.2l.9 1.2c.3.4.6.7.8 1 .5.6.8.9.8.9s1.3 1.5 2.8 2.9c.7.7 1.5 1.3 2.1 1.8s1 .8 1 .8-.2.5-.4 1.3c-.3.8-.6 1.8-.9 2.8-.6 2-1.1 4.1-1.1 4.1s.3.2.7.5c.5.3 1.1.7 1.7 1.1s1.2.7 1.7 1 .8.4.8.4.4-.4 1-.9 1.4-1.3 2.2-2c1.6-1.5 3-3 3-3s.5.2 1.1.5c.7.3 1.6.7 2.6 1 .9.4 1.9.6 2.6.9.7.2 1.2.3 1.2.3s.1 0 .3.1c.2.1.5.2.9.2.7.2 1.7.4 2.7.6.5.1 1 .2 1.5.2.5.1.9.1 1.3.2.7.1 1.2.1 1.2.1s.5 2.1 1.1 4.1c.3 1 .6 2.1.9 2.8.3.8.4 1.3.4 1.3h2.9c.7 0 1.4 0 2-.1.5 0 .9-.1.9-.1s.2-.5.4-1.3.5-1.8.8-2.8c.5-2.1.9-4.2.9-4.2h.3c.2 0 .5-.1.9-.1.4-.1.8-.1 1.3-.2s1-.2 1.4-.3c1-.2 1.9-.5 2.7-.7.4-.1.7-.2.9-.3.2-.1.3-.1.3-.1s.5-.2 1.2-.4c.7-.3 1.7-.6 2.6-1 .5-.2.9-.4 1.4-.6l1.2-.6c.3-.2.6-.3.8-.4.2-.1.3-.2.3-.2s1.5 1.5 3.1 2.9 3.3 2.7 3.3 2.7.3-.2.8-.5 1.1-.7 1.7-1.1 1.2-.8 1.6-1.1c.4-.3.7-.5.7-.5s-.6-2.1-1.3-4.1c-1.1-1.7-1.9-3.7-1.9-3.7zm-19.1 1.3c-.3.1-.6.2-1 .3-.2.1-.4.1-.6.2-.2 0-.5.1-.7.1-2 .4-4.7.8-7.4.9-2.7.1-5.4-.2-7.4-.6-1-.1-1.8-.4-2.4-.5s-.9-.2-.9-.2-.3-.1-.9-.2c-.3-.1-.6-.2-1-.3-.4-.1-.8-.3-1.3-.5-1.9-.7-4.4-1.8-6.6-3.3-2.3-1.4-4.4-3.1-5.9-4.5l-1.7-1.7c-.4-.4-.6-.7-.6-.7s-.2-.2-.6-.7-.9-1.1-1.5-1.9c-1.2-1.6-2.7-3.9-3.8-6.3-1.2-2.4-2-5-2.5-7-.1-.5-.2-.9-.3-1.3-.1-.4-.2-.8-.2-1-.1-.6-.1-.9-.1-.9s-.1-.3-.1-.9c0-.3-.1-.7-.1-1.1-.1-.4-.1-.9-.1-1.4-.2-2-.2-4.7.2-7.4.3-2.7 1-5.3 1.6-7.2s1.2-3.1 1.2-3.1.1-.3.4-.8c.1-.3.3-.6.5-1l.6-1.2c1-1.8 2.4-4.1 4.2-6.1 1.7-2.1 3.7-3.9 5.3-5.2.4-.3.8-.6 1.1-.8.3-.2.6-.5.9-.6.5-.3.8-.5.8-.5s1.1-.8 2.9-1.7c1.8-1 4.2-2.1 6.8-2.9 2.6-.8 5.2-1.3 7.3-1.5.5-.1 1-.1 1.4-.1s.8-.1 1.1-.1h2.9c.4 0 .9 0 1.4.1 2 .1 4.7.5 7.3 1.2 2.6.7 5.1 1.7 6.9 2.6.9.4 1.6.9 2.1 1.2s.8.5.8.5.3.2.8.5 1.2.8 2 1.4c1.6 1.2 3.7 3 5.5 5s3.4 4.2 4.4 6c.3.4.5.8.7 1.2s.4.7.5.9c.3.5.4.8.4.8s.2.3.4.8.6 1.3.9 2.3c.7 1.9 1.5 4.5 1.9 7.2s.6 5.4.5 7.4v.7c0 .2 0 .4-.1.7 0 .4-.1.8-.1 1.1-.1.6-.1.9-.1.9s0 .3-.1.9c-.1.3-.1.6-.2 1s-.1.9-.3 1.4c-.4 2-1.2 4.6-2.3 7-1.1 2.5-2.4 4.8-3.6 6.5-.3.4-.6.8-.8 1.1-.3.3-.5.6-.7.8-.4.5-.6.7-.6.7s-.2.3-.6.7c-.2.2-.4.5-.7.8l-1 1c-1.4 1.4-3.5 3.2-5.7 4.7s-4.7 2.7-6.5 3.5c-.5.2-.9.4-1.3.5s-.7.3-1 .4l-.9.3s-.8-.3-1.4-.1z"/><path class="st4" d="M1247.5 303.7c-.8-.5-1.5-1-2.3-1.5.2-.6.3-1.1.4-1.6.3-1 .4-1.9.6-2.5.1-.6.2-.9.2-.9s.1-.3.1-.9c.1-.6.3-1.5.3-2.5.1-.5.1-1.1.2-1.7.9-.2 1.7-.4 2.6-.6 2.1-.5 4.2-1.2 5.8-1.7 1.6-.5 2.6-.9 2.6-.9v-2c0-.4 0-.8-.1-1.2 0-.4 0-.8-.1-1.2v-1c-.1-.6-.1-1-.1-1s-1.1-.3-2.7-.7c-.4-.1-.8-.2-1.3-.3-.5-.1-.9-.2-1.5-.3-1-.2-2.1-.4-3.2-.6-.9-.2-1.8-.3-2.7-.4-.1-.6-.2-1.1-.3-1.6-.2-1-.4-1.9-.6-2.5-.1-.6-.2-.9-.2-.9l-.3-.9c-.2-.6-.4-1.4-.8-2.4-.1-.2-.2-.5-.3-.8-.1-.3-.2-.5-.3-.8.7-.5 1.4-1.1 2.1-1.7 1.7-1.4 3.3-2.9 4.4-4 1.2-1.1 1.9-1.9 1.9-1.9s-.2-.4-.4-.9c-.3-.5-.6-1.3-1-2-.2-.4-.4-.7-.6-1s-.4-.6-.5-.9c-.3-.5-.5-.9-.5-.9s-.3.1-.7.1c-.5.1-1.1.2-1.9.4-1.6.4-3.7.9-5.8 1.5-.9.3-1.8.5-2.6.8-.3-.5-.7-.9-1-1.3-.6-.8-1.2-1.5-1.6-2l-.5-.5-.2-.2s-.2-.3-.6-.7c-.4-.5-1-1.1-1.7-1.8-.4-.4-.8-.7-1.2-1.2.4-.8.8-1.6 1.2-2.5.4-1 .9-2 1.2-2.9.4-.9.7-1.8 1-2.6.6-1.5.9-2.6.9-2.6l-.2-.2c-.1-.1-.3-.3-.6-.4-.5-.4-1.1-.9-1.8-1.3-.7-.5-1.3-.9-1.8-1.3-.2-.2-.5-.3-.6-.4-.1-.1-.2-.1-.2-.1s-.9.7-2.2 1.7c-.6.5-1.4 1.1-2.2 1.8l-2.4 2.1c-.7.6-1.4 1.3-2 1.9-.5-.3-1-.6-1.5-.8s-.9-.4-1.3-.6c-.2-.1-.4-.2-.5-.3-.2-.1-.3-.1-.5-.2-.6-.2-.9-.4-.9-.4s-.3-.1-.9-.4c-.6-.2-1.4-.5-2.4-.9-.5-.2-1-.3-1.6-.5v-2.7c-.1-2.2-.2-4.3-.4-6-.2-1.6-.3-2.7-.3-2.7s-.1 0-.3-.1c-.2 0-.4-.1-.7-.1-.6-.1-1.4-.3-2.2-.4-.8-.1-1.6-.2-2.2-.3-.3 0-.5-.1-.7-.1h-.3s-.5 1-1.2 2.5-1.6 3.5-2.5 5.5c-.4.9-.7 1.7-1 2.6-.6 0-1.1-.1-1.7-.1h-5c-.2 0-.4 0-.6.1-.4 0-.9.1-1.4.1-.5.1-1.1.1-1.6.2-.4-.8-.8-1.6-1.2-2.5-.5-1-1-1.9-1.5-2.8-.5-.9-1-1.7-1.4-2.4-.9-1.4-1.5-2.3-1.5-2.3s-.1 0-.3.1c-.2 0-.4.1-.7.2-.6.1-1.4.3-2.2.5-.8.2-1.5.5-2.1.6-.3.1-.5.2-.7.2-.2.1-.3.1-.3.1s0 1.1-.1 2.8v2.8c0 1 .1 2.1.1 3.2.1.9.1 1.9.2 2.7-.5.2-1.1.4-1.5.7-.9.4-1.7.8-2.3 1.1-.5.3-.8.4-.8.4s-.1 0-.2.1-.4.2-.6.3c-.5.3-1.3.7-2.2 1.3-.4.3-.9.6-1.4.9-.7-.6-1.4-1.1-2.2-1.7-1.7-1.3-3.5-2.5-4.9-3.4-.7-.5-1.3-.8-1.7-1.1-.4-.3-.6-.4-.6-.4s-.3.3-.8.6c-.2.2-.5.4-.8.6-.3.2-.6.5-.9.8-.6.5-1.2 1.1-1.6 1.5l-.7.7s.4 1 1.1 2.5 1.7 3.4 2.7 5.3c.5.8.9 1.6 1.4 2.4l-.6.6c-.2.2-.4.4-.5.6-.7.8-1.2 1.5-1.6 2s-.6.8-.6.8-.2.3-.5.8-.9 1.2-1.4 2.1c-.3.4-.6.9-.9 1.4l-2.7-.6c-1.1-.2-2.1-.4-3.2-.6-.5-.1-1-.2-1.5-.2-.5-.1-.9-.1-1.3-.2-1.6-.2-2.7-.3-2.7-.3s-.2.4-.4.9c-.1.1-.1.3-.2.4-.1.2-.1.3-.2.5-.1.3-.3.7-.5 1.1s-.3.7-.5 1.1c-.1.4-.3.7-.4 1-.2.6-.4.9-.4.9s.8.7 2.1 1.8c1.3 1 3 2.4 4.8 3.6.8.5 1.5 1 2.3 1.5-.2.6-.3 1.1-.4 1.6-.3 1-.4 1.9-.6 2.5-.1.6-.2.9-.2.9s-.1.3-.1.9c-.1.6-.3 1.5-.3 2.5-.1.5-.1 1.1-.2 1.7-.9.2-1.7.4-2.6.6-2.1.5-4.2 1.2-5.8 1.7-1.6.5-2.6.9-2.6.9v2c0 .4 0 .8.1 1.2 0 .4 0 .8.1 1.2v1c.1.6.1 1 .1 1s1.1.3 2.7.7c.4.1.8.2 1.3.3.5.1.9.2 1.5.3 1 .2 2.1.4 3.2.6.9.2 1.8.3 2.7.4.1.6.2 1.1.3 1.6.2 1 .4 1.9.6 2.5.1.6.2.9.2.9l.3.9c.2.6.4 1.4.8 2.4.1.2.2.5.3.8.1.3.2.5.3.8-.7.5-1.4 1.1-2.1 1.7a64.5 64.5 0 0 0-4.4 4c-1.2 1.1-1.9 1.9-1.9 1.9s.2.4.4.9c.3.5.6 1.3 1 2 .2.4.4.7.6 1s.4.6.5.9c.3.5.5.9.5.9s.3-.1.7-.1c.5-.1 1.1-.2 1.9-.4 1.6-.4 3.7-.9 5.8-1.5.9-.3 1.8-.5 2.6-.8.3.5.7.9 1 1.3.6.8 1.2 1.5 1.6 2l.5.5.2.2s.2.3.6.7c.4.5 1 1.1 1.7 1.8.4.4.8.7 1.2 1.2-.4.8-.8 1.6-1.2 2.5-.4 1-.9 2-1.2 2.9-.4.9-.7 1.8-1 2.6-.6 1.5-.9 2.6-.9 2.6l.2.2c.1.1.3.3.6.4.5.4 1.1.9 1.8 1.3.7.5 1.3.9 1.8 1.3.2.2.5.3.6.4s.2.1.2.1.9-.7 2.2-1.7c.6-.5 1.4-1.1 2.2-1.8l2.4-2.1c.7-.6 1.4-1.3 2-1.9.5.3 1 .6 1.5.8.5.2.9.4 1.3.6.2.1.4.2.5.3.2.1.3.1.5.2.6.2.9.4.9.4s.3.1.9.4c.6.2 1.4.5 2.4.9.5.2 1 .3 1.6.5v2.7c.1 2.2.2 4.3.4 6 .2 1.6.3 2.7.3 2.7s.1 0 .3.1c.2 0 .4.1.7.1.6.1 1.4.3 2.2.4.8.1 1.6.2 2.2.3.3 0 .5.1.7.1h.3s.5-1 1.2-2.5 1.6-3.5 2.5-5.5c.4-.9.7-1.7 1-2.6.6 0 1.1.1 1.7.1h5c.2 0 .4 0 .6-.1.4 0 .9-.1 1.4-.1.5-.1 1.1-.1 1.6-.2.4.8.8 1.6 1.2 2.5.5 1 1 1.9 1.5 2.8s1 1.7 1.4 2.4c.9 1.4 1.5 2.3 1.5 2.3s.1 0 .3-.1c.2 0 .4-.1.7-.2.6-.1 1.4-.3 2.2-.5.8-.2 1.5-.5 2.1-.6.3-.1.5-.2.7-.2.2-.1.3-.1.3-.1s0-1.1.1-2.8v-2.8c0-1-.1-2.1-.1-3.2-.1-.9-.1-1.9-.2-2.7.5-.2 1.1-.4 1.5-.7.9-.4 1.7-.8 2.3-1.1.5-.3.8-.4.8-.4s.1 0 .2-.1.4-.2.6-.3c.5-.3 1.3-.7 2.2-1.3.4-.3.9-.6 1.4-.9.7.6 1.4 1.1 2.2 1.7 1.7 1.3 3.5 2.5 4.9 3.4.7.5 1.3.8 1.7 1.1.4.3.6.4.6.4s.3-.3.8-.6c.2-.2.5-.4.8-.6s.6-.5.9-.8c.6-.5 1.2-1.1 1.6-1.5l.7-.7s-.4-1-1.1-2.5-1.7-3.4-2.7-5.3c-.5-.8-.9-1.6-1.4-2.4l.6-.6c.2-.2.4-.4.5-.6.7-.8 1.2-1.5 1.6-2s.6-.8.6-.8.2-.3.5-.8.9-1.2 1.4-2.1c.3-.4.6-.9.9-1.4l2.7.6c1.1.2 2.1.4 3.2.6.5.1 1 .2 1.5.2.5.1.9.1 1.3.2 1.6.2 2.7.3 2.7.3s.2-.4.4-.9c.1-.1.1-.3.2-.4.1-.2.1-.3.2-.5.1-.3.3-.7.5-1.1s.3-.7.5-1.1c.1-.4.3-.7.4-1 .2-.6.4-.9.4-.9s-.8-.7-2.1-1.8c-1.2-1-3-2.4-4.8-3.6zm-17.7 9c-.3.4-.7 1-1.3 1.6-.1.2-.3.3-.4.5s-.3.4-.5.5c-.3.4-.7.7-1 1.1-.4.4-.8.8-1.2 1.1l-.3.3-.3.3-.6.6c-1.7 1.5-3.6 2.8-5 3.7-.7.5-1.3.8-1.8 1.1-.2.1-.4.2-.5.3-.1.1-.2.1-.2.1s-.3.1-.7.4c-.4.2-1.1.5-1.8.9-1.6.7-3.7 1.5-5.8 2.1-2.2.6-4.4 1-6.1 1.2-.4 0-.8.1-1.2.1h-4.6c-1.7-.1-4-.2-6.2-.6s-4.4-1-6-1.6c-.8-.3-1.5-.5-1.9-.7-.5-.2-.7-.3-.7-.3s-.3-.1-.7-.3c-.1 0-.2-.1-.4-.2-.1-.1-.3-.1-.4-.2-.3-.2-.7-.3-1-.5-1.5-.8-3.5-1.9-5.3-3.2-1.8-1.3-3.5-2.9-4.7-4-.6-.6-1.1-1.1-1.4-1.5s-.5-.6-.5-.6 0-.1-.1-.2l-.4-.4c-.3-.4-.8-.9-1.3-1.6-1-1.4-2.3-3.3-3.4-5.2-.1-.3-.3-.5-.4-.8l-.2-.4-.2-.4c-.2-.5-.5-1-.7-1.5s-.4-1-.6-1.4c-.1-.2-.2-.4-.3-.7-.1-.2-.2-.4-.2-.6-.3-.8-.5-1.5-.6-2s-.2-.7-.2-.7-.1-.3-.2-.8-.3-1.2-.5-2c-.1-.4-.2-.9-.3-1.3-.1-.5-.1-1-.2-1.5l-.3-3.3v-3.2c0-.5.1-1 .1-1.5s.1-.9.1-1.4c.1-.8.2-1.5.3-2 .1-.5.1-.8.1-.8s.1-.3.2-.8.2-1.2.5-2c.1-.4.2-.9.3-1.3.1-.5.3-1 .5-1.5 0-.1.1-.3.1-.4s.1-.3.1-.4c.1-.3.2-.5.3-.8.1-.3.2-.5.3-.8.1-.3.2-.5.3-.8.4-1 .9-2.1 1.4-3 .3-.5.5-.9.7-1.3s.5-.8.7-1.2c.4-.7.9-1.3 1.1-1.7.3-.4.4-.6.4-.6s.2-.2.5-.6.7-1 1.3-1.6c.1-.2.3-.3.4-.5s.3-.4.5-.5c.3-.4.7-.7 1-1.1.4-.4.8-.8 1.2-1.1l.3-.3.3-.3.6-.6c1.7-1.5 3.6-2.8 5-3.7.7-.5 1.3-.8 1.8-1.1.2-.1.4-.2.5-.3s.2-.1.2-.1.3-.1.7-.4c.4-.2 1.1-.5 1.8-.9 1.6-.7 3.7-1.5 5.8-2.1 2.2-.6 4.4-1 6.1-1.2.4 0 .8-.1 1.2-.1h4.6c1.7.1 4 .2 6.2.6 2.2.4 4.4 1 6 1.6.8.3 1.5.5 1.9.7.5.2.7.3.7.3s.3.1.7.3c.1 0 .2.1.4.2.1.1.3.1.4.2.3.2.7.3 1 .5 1.5.8 3.5 1.9 5.3 3.2s3.5 2.9 4.7 4c.6.6 1.1 1.1 1.4 1.5s.5.6.5.6 0 .1.1.2l.4.4c.3.4.8.9 1.3 1.6 1 1.4 2.3 3.3 3.4 5.2.1.3.3.5.4.8l.2.4.2.4c.2.5.5 1 .7 1.5s.4 1 .6 1.4c.1.2.2.4.3.7.1.2.2.4.2.6.3.8.5 1.5.6 2s.2.7.2.7.1.3.2.8.3 1.2.5 2c.1.4.2.9.3 1.3.1.5.1 1 .2 1.5l.3 3.3v3.2c0 .5-.1 1-.1 1.5s-.1.9-.1 1.4c-.1.8-.2 1.5-.3 2-.1.5-.1.8-.1.8s-.1.3-.2.8-.2 1.2-.5 2c-.1.4-.2.9-.3 1.3-.1.5-.3 1-.5 1.5 0 .1-.1.3-.1.4s-.1.3-.1.4c-.1.3-.2.5-.3.8-.1.3-.2.5-.3.8-.1.3-.2.5-.3.8-.4 1-.9 2.1-1.4 3-.3.5-.5.9-.7 1.3s-.5.8-.7 1.2c-.4.7-.9 1.3-1.1 1.7-.3.4-.4.6-.4.6s-.2.2-.5.6zm171.1-94.5c0-.2.1-.3.1-.5.1-.4.1-.8.2-1 0-.3.1-.4.1-.4v-.4c0-.3.1-.6.1-1v-.5c.3-.1.6-.3 1-.5 1-.5 1.9-1.1 1.9-1.1v-1.2c0-.3 0-.6-.1-.8v-.4l-.6-.3c-.4-.2-.9-.4-1.4-.6-.4-.1-.7-.3-1-.4 0-.2-.1-.3-.1-.5-.1-.4-.1-.8-.2-1s-.1-.4-.1-.4 0-.1-.1-.4c-.1-.2-.2-.6-.3-1 0-.1-.1-.3-.1-.5.2-.2.5-.5.7-.8.4-.4.7-.8 1-1.2l.4-.6s-.1-.1-.1-.4c-.1-.2-.2-.5-.3-.8-.1-.3-.3-.6-.4-.8s-.2-.3-.2-.3-1.1-.1-2.2-.1h-1.1c-.1-.1-.2-.3-.2-.4-.5-.7-.8-1.2-.8-1.2s-.1-.1-.2-.3c-.2-.2-.4-.5-.6-.8-.1-.1-.2-.3-.3-.4.1-.3.3-.7.4-1 .4-1 .6-2.1.6-2.1l-.3-.3-.6-.6-.6-.6-.3-.3s-.3.1-.7.2c-.4.1-.9.3-1.4.5-.3.1-.5.2-.7.3-.1 0-.2.1-.3.1-.1-.1-.3-.2-.4-.3-.2-.1-.3-.3-.5-.4-.1-.1-.3-.2-.4-.3-.2-.1-.3-.2-.3-.2s-.1-.1-.3-.2c-.2-.1-.5-.3-.9-.6-.1-.1-.3-.2-.4-.2v-1.1c0-.6-.1-1.1-.1-1.5s-.1-.7-.1-.7-.1-.1-.3-.2c-.2-.1-.5-.2-.8-.3s-.6-.3-.8-.3c-.2-.1-.4-.1-.4-.1s-.2.2-.6.4c-.3.3-.7.6-1.2 1-.3.3-.6.5-.8.7-.2-.1-.3-.1-.5-.1-.4-.1-.8-.2-1-.3-.1 0-.2-.1-.3-.1h-.1s-.1 0-.4-.1c-.2-.1-.6-.1-1-.2-.2 0-.3-.1-.5-.1-.1-.3-.3-.7-.4-1-.4-1-.9-2-.9-2h-2.4s-.1.2-.4.6c-.2.4-.5.8-.7 1.3-.2.3-.4.7-.5 1h-.5c-.4 0-.8.1-1.1.1-.3 0-.4.1-.4.1s-.1 0-.4.1c-.3 0-.6.1-1 .2-.2 0-.3.1-.5.1l-.8-.8-1.1-1.1-.5-.5s-.1 0-.4.1c-.2.1-.5.2-.8.3s-.6.2-.8.3c-.1 0-.2.1-.3.1h-.1s-.2 1.1-.3 2.2c0 .4-.1.8-.1 1.1-.2.1-.3.1-.4.2-.4.2-.7.4-.9.5l-.4.2s-.1.1-.3.2c-.2.1-.5.3-.9.6-.1.1-.3.2-.4.3-.3-.2-.6-.3-1-.5-.5-.2-1-.4-1.4-.6l-.6-.3-1 .8c-.5.4-.9.8-.9.8s0 .3.1.7.2.9.3 1.5c.1.4.2.7.3 1.1-.1.1-.2.2-.3.4-.3.3-.5.6-.7.8l-.3.3-.1.1c0 .1-.1.1-.2.2-.2.2-.4.5-.6.8-.1.1-.2.3-.3.4-.3 0-.7-.1-1.1-.1h-2.2s-.1.1-.2.3-.3.5-.4.7c-.2.3-.3.5-.4.7s-.2.3-.2.3.1.2.4.6c.2.3.5.8.8 1.2l.6.9c-.1.2-.1.3-.2.5-.2.4-.3.7-.4 1-.1.2-.1.4-.1.4s0 .1-.1.4c0 .1-.1.3-.1.4 0 .2-.1.4-.2.6 0 .1-.1.3-.1.5-.1 0-.2.1-.3.1-.2.1-.5.2-.8.2-.5.2-1 .4-1.4.5-.2.1-.4.1-.5.2-.1 0-.2.1-.2.1l-.2 1.2c-.1.6-.1 1.2-.1 1.2s.1 0 .1.1c.1.1.2.2.4.3.3.2.8.6 1.2.9.2.1.5.3.7.4.1.1.2.1.3.2v2.4c0 .3.1.6.1 1.1 0 .2 0 .3.1.5-.3.2-.6.4-.9.7-.4.3-.8.7-1.1 1l-.5.5s0 .2.1.4c0 .2.1.5.2.8s.1.6.2.8.1.4.1.4.3.1.7.2c.4.1.9.2 1.5.4.4.1.7.2 1.1.2.1.2.1.3.2.5.2.4.3.7.4 1 0 .1.1.2.1.3v.1s.1.1.2.4c.1.2.3.6.5.9.1.1.1.3.2.4l-.6.9c-.3.5-.5 1-.7 1.3l-.3.6s.3.5.7 1c.4.5.7 1 .7 1s.3 0 .7-.1c.4 0 1-.1 1.5-.2.4-.1.8-.1 1.1-.2.1.1.2.3.3.4.3.3.5.6.7.8l.3.3.3.3c.2.2.4.4.8.7.1.1.2.2.4.3-.1.3-.1.7-.2 1.1-.2 1.1-.2 2.2-.2 2.2l.1.1c.1 0 .1.1.2.2.2.1.4.3.7.5.2.2.5.3.7.5.2.1.3.2.3.2l.6-.3c.4-.2.9-.5 1.3-.7.3-.2.7-.4.9-.6.2.1.3.2.4.2.4.2.7.4 1 .5l.4.2s.1.1.4.2c.2.1.6.2 1 .4.1.1.3.1.5.2.1.3.1.7.2 1.1.1.5.3 1.1.4 1.5s.2.7.2.7.1 0 .4.1c.2.1.5.1.8.2.3.1.6.1.8.2.1 0 .2 0 .3.1h.1s.8-.8 1.4-1.7c.2-.3.5-.6.7-.9.2 0 .3 0 .5.1.4.1.8.1 1.1.1h2.4l.6.9c.3.5.6.9.9 1.2s.4.5.4.5h.4c.2 0 .5-.1.8-.1s.6-.1.8-.1c.2 0 .4-.1.4-.1l.2-.6c.1-.4.3-.9.5-1.4.1-.4.2-.7.3-1.1.2 0 .3-.1.5-.1.4-.1.8-.2 1-.3s.4-.1.4-.1.1 0 .4-.1c.1 0 .3-.1.4-.2.2-.1.4-.1.6-.2.1-.1.3-.1.5-.2.1.1.2.1.2.2.2.1.4.3.6.5.4.3.9.6 1.3.8s.6.4.6.4.1-.1.3-.2c.2-.1.5-.2.7-.4.3-.2.5-.3.7-.4.2-.1.3-.2.3-.2s0-1.1-.1-2.2c0-.4-.1-.8-.1-1.1.1-.1.3-.2.4-.3.4-.3.6-.5.8-.6l.3-.3s.4-.4 1.1-1c.1-.1.2-.2.4-.3.3.1.7.2 1.1.3 1 .3 2.1.4 2.1.4l.3-.3c.1-.2.3-.4.5-.6.2-.2.4-.5.5-.7s.2-.3.2-.3l-.2-.6c-.2-.4-.4-.9-.6-1.4-.2-.3-.3-.7-.5-1 .1-.1.2-.3.3-.4.2-.4.4-.7.5-.9s.2-.3.2-.3.1-.1.2-.3.3-.6.5-.9c.1-.1.1-.3.2-.4.3 0 .7-.1 1.1-.1.5-.1 1.1-.2 1.5-.2.4-.1.7-.1.7-.1s.1-.1.1-.4c.1-.2.2-.5.3-.8.1-.3.2-.6.3-.8.1-.2.1-.4.1-.4s-.7-.8-1.5-1.6c-.5-1.7-.8-1.9-1-2.1zm-27.1 11.5c-9.3-1.3-15.8-9.9-14.6-19.1 1.3-9.3 9.9-15.8 19.1-14.6 9.3 1.3 15.8 9.9 14.6 19.1-1.2 9.3-9.8 15.9-19.1 14.6zm-224.5-108.2c-.6-.2-1.2-.4-1.8-.5 0-.4 0-.8-.1-1.2 0-.7-.1-1.3-.1-1.8 0-.4-.1-.7-.1-.7s0-.2-.1-.7c-.1-.4-.1-1-.3-1.7-.1-.4-.1-.7-.2-1.1.5-.3 1.1-.6 1.6-1 1.3-.8 2.6-1.7 3.5-2.4.9-.7 1.5-1.2 1.5-1.2s-.1-.3-.2-.7c-.1-.2-.1-.4-.2-.7-.1-.2-.2-.5-.3-.8-.1-.3-.2-.5-.3-.8 0-.1-.1-.2-.1-.4 0-.1-.1-.2-.1-.3-.2-.4-.3-.7-.3-.7s-.8 0-1.9.1c-.3 0-.6 0-.9.1-.3 0-.7.1-1 .1-.7.1-1.5.2-2.2.3-.6.1-1.3.2-1.9.3-.2-.4-.4-.7-.6-1-.3-.6-.7-1.2-.9-1.5-.2-.4-.4-.6-.4-.6s-.1-.2-.4-.6c-.2-.4-.6-.9-1-1.4-.1-.1-.2-.3-.3-.5-.1-.2-.2-.3-.4-.5.3-.5.7-1.1 1-1.6.8-1.3 1.6-2.6 2.1-3.6s.9-1.7.9-1.7l-.5-.5-1.1-1.1-.6-.6c-.2-.2-.4-.3-.5-.5l-.5-.5s-.2.1-.5.3c-.3.2-.7.4-1.2.7-1 .6-2.3 1.4-3.6 2.2-.5.4-1.1.7-1.6 1.1-.3-.3-.6-.5-.9-.7-.6-.4-1.1-.7-1.5-1-.2-.1-.3-.2-.4-.3-.1-.1-.2-.1-.2-.1l-.6-.3c-.4-.2-.9-.5-1.6-.9-.3-.2-.7-.3-1-.5.1-.6.2-1.3.2-1.9.1-.8.2-1.5.2-2.2.1-.7.1-1.4.1-2 .1-1.2.1-1.9.1-1.9s-.1 0-.2-.1c-.1 0-.3-.1-.5-.2-.4-.1-.9-.3-1.5-.5-.5-.2-1.1-.3-1.5-.5-.2-.1-.4-.1-.5-.1h-.2s-.5.6-1.1 1.6c-.3.5-.7 1-1.1 1.6s-.8 1.2-1.2 1.9c-.3.6-.6 1.1-.9 1.7-.4-.1-.8-.2-1.1-.2-.4-.1-.7-.1-1-.1-.1 0-.3 0-.4-.1h-.4c-.4 0-.7-.1-.7-.1s-.2 0-.7-.1c-.4 0-1-.1-1.8-.1h-1.2l-.6-1.8c-.5-1.4-1.1-2.8-1.5-3.9-.5-1.1-.8-1.8-.8-1.8h-.2c-.1 0-.3 0-.5.1-.4 0-1 .1-1.5.2-.6.1-1.1.2-1.5.2-.2 0-.4.1-.5.1h-.2s-.1.8-.3 1.9c-.2 1.1-.4 2.7-.5 4.2-.1.7-.1 1.3-.1 1.9-.4.1-.8.2-1.1.3-.7.2-1.3.4-1.7.5-.4.1-.6.2-.6.2s-.2.1-.6.2c-.1 0-.2.1-.3.1-.1.1-.2.1-.4.2-.3.1-.6.2-.9.4-.3.1-.7.3-1.1.5-.4-.5-.9-.9-1.3-1.4l-1.6-1.6c-.5-.5-1-.9-1.5-1.3-.9-.8-1.5-1.3-1.5-1.3s-.1 0-.2.1-.3.2-.4.3c-.4.2-.8.5-1.3.8s-.9.6-1.3.9c-.2.1-.3.2-.4.3-.1.1-.2.1-.2.1s.2.8.5 1.9c.2.6.4 1.2.6 1.9.2.7.5 1.4.8 2.1.2.6.5 1.2.7 1.8-.3.3-.6.5-.9.8-.5.5-1 .9-1.3 1.2l-.5.5-.1.1c-.1.1-.2.2-.3.4-.3.3-.7.8-1.2 1.3-.2.3-.5.6-.7.9-.6-.2-1.2-.5-1.8-.7-1.4-.5-2.9-.9-4-1.3-.6-.2-1-.3-1.4-.4-.3-.1-.5-.1-.5-.1s-.2.2-.4.6c-.1.2-.3.4-.4.6s-.3.5-.4.7c-.3.5-.6 1-.8 1.3l-.3.6s.5.6 1.3 1.4l3 3c.5.4 1 .9 1.4 1.3-.1.2-.2.4-.2.5-.1.2-.1.4-.2.5-.3.7-.5 1.3-.6 1.7-.1.4-.2.6-.2.6s-.1.2-.2.6-.3 1-.5 1.7c-.1.4-.2.7-.3 1.1-.6.1-1.3.1-1.9.2-.8.1-1.5.2-2.2.3-.4.1-.7.1-1 .2s-.6.1-.9.2c-1.1.2-1.9.4-1.9.4s0 .3-.1.7v.7c0 .3-.1.5-.1.8s-.1.6-.1.8v1.4s.7.3 1.8.7c1.1.4 2.5.9 4 1.4.6.2 1.2.4 1.8.5 0 .4 0 .8.1 1.2 0 .7.1 1.3.1 1.8 0 .4.1.7.1.7s0 .2.1.7c.1.4.1 1 .3 1.7.1.4.1.7.2 1.1-.5.3-1.1.6-1.6 1-1.3.8-2.6 1.7-3.5 2.4s-1.5 1.2-1.5 1.2.1.3.2.7c.1.2.1.4.2.7.1.2.2.5.3.8.1.3.2.5.3.8 0 .1.1.2.1.4 0 .1.1.2.1.3.2.4.3.7.3.7s.8 0 1.9-.1c.3 0 .6 0 .9-.1.3 0 .7-.1 1-.1.7-.1 1.5-.2 2.2-.3.6-.1 1.3-.2 1.9-.3.2.4.4.7.6 1 .3.6.7 1.2.9 1.5.2.4.4.6.4.6s.1.2.4.6c.2.4.6.9 1 1.4.1.1.2.3.3.5.1.2.2.3.4.5-.3.5-.7 1.1-1 1.6-.8 1.3-1.6 2.6-2.1 3.6s-.9 1.7-.9 1.7l.5.5 1.1 1.1.6.6c.2.2.4.3.5.5l.5.5s.2-.1.5-.3.7-.4 1.2-.7c1-.6 2.3-1.4 3.6-2.2.5-.4 1.1-.7 1.6-1.1.3.3.6.5.9.7.6.4 1.1.7 1.5 1 .2.1.3.2.4.3s.2.1.2.1l.6.3c.4.2.9.5 1.6.9.3.2.7.3 1 .5-.1.6-.2 1.3-.2 1.9-.1.8-.2 1.5-.2 2.2-.1.7-.1 1.4-.1 2-.1 1.2-.1 1.9-.1 1.9s.1 0 .2.1c.1 0 .3.1.5.2.4.1.9.3 1.5.5.5.2 1.1.3 1.5.5.2.1.4.1.5.1h.2s.5-.6 1.1-1.6c.3-.5.7-1 1.1-1.6s.8-1.2 1.2-1.9c.3-.6.6-1.1.9-1.7.4.1.8.2 1.1.2.4.1.7.1 1 .1.1 0 .3 0 .4.1h.4c.4 0 .7.1.7.1s.2 0 .7.1c.4 0 1 .1 1.8.1h1.2l.6 1.8c.5 1.4 1.1 2.8 1.5 3.9.5 1.1.8 1.8.8 1.8h.2c.1 0 .3 0 .5-.1.4 0 1-.1 1.5-.2.6-.1 1.1-.2 1.5-.2.2 0 .4-.1.5-.1h.2s.1-.8.3-1.9c.2-1.1.4-2.7.5-4.2.1-.7.1-1.3.1-1.9.4-.1.8-.2 1.1-.3.7-.2 1.3-.4 1.7-.5.4-.1.6-.2.6-.2s.2-.1.6-.2c.1 0 .2-.1.3-.1.1-.1.2-.1.4-.2.3-.1.6-.2.9-.4.3-.1.7-.3 1.1-.5.4.5.9.9 1.3 1.4l1.6 1.6c.5.5 1 .9 1.5 1.3.9.8 1.5 1.3 1.5 1.3s.1 0 .2-.1.3-.2.4-.3c.4-.2.8-.5 1.3-.8s.9-.6 1.3-.9c.2-.1.3-.2.4-.3s.2-.1.2-.1-.2-.8-.5-1.9c-.2-.6-.4-1.2-.6-1.9s-.5-1.4-.8-2.1c-.2-.6-.5-1.2-.7-1.8.3-.3.6-.5.9-.8.5-.5 1-.9 1.3-1.2l.5-.5.1-.1c.1-.1.2-.2.3-.4.3-.3.7-.8 1.2-1.3.2-.3.5-.6.7-.9.6.2 1.2.5 1.8.7 1.4.5 2.9.9 4 1.3.6.2 1 .3 1.4.4.3.1.5.1.5.1s.2-.2.4-.6c.1-.2.3-.4.4-.6.1-.2.3-.5.4-.7.3-.5.6-1 .8-1.3l.3-.6s-.5-.6-1.3-1.4l-3-3c-.5-.4-1-.9-1.4-1.3.1-.2.2-.4.2-.5.1-.2.1-.4.2-.5.3-.7.5-1.3.6-1.7s.2-.6.2-.6.1-.2.2-.6c.1-.4.3-1 .5-1.7.1-.4.2-.7.3-1.1.6-.1 1.3-.1 1.9-.2.8-.1 1.5-.2 2.2-.3.4-.1.7-.1 1-.2.3-.1.6-.1.9-.2 1.1-.2 1.9-.4 1.9-.4s0-.3.1-.7v-.7c0-.3.1-.5.1-.8s.1-.6.1-.8v-1.4s-.7-.3-1.8-.7-2.6-1-4-1.4zm-10 9.7c-.1.3-.3.8-.5 1.3-.1.1-.1.3-.2.4-.1.1-.1.3-.2.5-.1.3-.3.6-.5 1-.2.3-.4.7-.5 1l-.1.3-.2.3c-.1.2-.2.3-.3.5-.8 1.4-1.8 2.6-2.5 3.6-.4.5-.7.8-1 1.1l-.3.3-.1.1-.4.4c-.2.3-.6.6-1 1-.9.8-2.1 1.8-3.5 2.7-1.3.9-2.7 1.6-3.8 2.1-.3.1-.5.2-.7.3-.1 0-.2.1-.3.1-.1 0-.2.1-.3.1-.3.1-.5.2-.5.2s-.2.1-.5.2-.8.3-1.4.4c-1.1.3-2.7.7-4.3.9-1.6.2-3.2.2-4.4.2-.6 0-1.1-.1-1.4-.1s-.5-.1-.5-.1-.2 0-.5-.1h-.3c-.1 0-.2 0-.3-.1-.2 0-.5-.1-.8-.1-1.2-.2-2.7-.5-4.2-1s-3-1.2-4-1.7c-.5-.3-1-.5-1.3-.7s-.5-.3-.5-.3l-.1-.1c-.1 0-.2-.1-.3-.2-.3-.2-.7-.5-1.2-.8-1-.7-2.2-1.7-3.4-2.8l-.4-.4-.2-.2-.2-.2c-.3-.3-.5-.6-.8-.8-.2-.3-.5-.6-.7-.8-.1-.1-.2-.3-.3-.4-.1-.1-.2-.3-.3-.4-.4-.5-.6-.9-.8-1.2-.2-.3-.3-.4-.3-.4s-.1-.2-.3-.5c-.2-.3-.5-.7-.7-1.2-.1-.3-.3-.5-.5-.8-.1-.3-.3-.6-.5-1-.3-.7-.6-1.4-.9-2.2-.1-.2-.1-.4-.2-.6-.1-.2-.1-.4-.2-.6-.1-.2-.1-.4-.2-.6 0-.1-.1-.2-.1-.3s0-.2-.1-.3c-.1-.4-.2-.7-.3-1-.1-.3-.1-.7-.2-.9-.1-.6-.2-1.1-.2-1.4-.1-.3-.1-.5-.1-.5s0-.2-.1-.5c0-.3-.1-.8-.1-1.4v-3.9c0-.2 0-.4.1-.6.1-.8.2-1.6.3-2.3.1-.4.1-.7.2-1.1.1-.3.2-.6.2-.9.1-.6.3-1.1.4-1.4s.2-.5.2-.5.1-.2.2-.5.3-.8.5-1.3c.1-.1.1-.3.2-.4s.1-.3.2-.5c.1-.3.3-.6.5-1 .2-.3.4-.7.5-1l.1-.3.2-.3c.1-.2.2-.3.3-.5.8-1.4 1.8-2.6 2.5-3.6.4-.5.7-.8 1-1.1l.3-.3.1-.1.4-.4c.2-.3.6-.6 1-1 .9-.8 2.1-1.8 3.5-2.7 1.3-.9 2.7-1.6 3.8-2.1.3-.1.5-.2.7-.3.1 0 .2-.1.3-.1.1 0 .2-.1.3-.1.3-.1.5-.2.5-.2s.2-.1.5-.2.8-.3 1.4-.4c1.1-.3 2.7-.7 4.3-.9 1.6-.2 3.2-.2 4.4-.2.6 0 1.1.1 1.4.1s.5.1.5.1.2 0 .5.1h.3c.1 0 .2 0 .3.1.2 0 .5.1.8.1 1.2.2 2.7.5 4.2 1s3 1.2 4 1.7c.5.3 1 .5 1.3.7s.5.3.5.3l.1.1c.1 0 .2.1.3.2.3.2.7.5 1.2.8 1 .7 2.2 1.7 3.4 2.8l.4.4.2.2.2.2c.3.3.5.6.8.8.2.3.5.6.7.8.1.1.2.3.3.4.1.1.2.3.3.4.4.5.6.9.8 1.2.2.3.3.4.3.4s.1.2.3.5c.2.3.5.7.7 1.2.1.3.3.5.5.8.1.3.3.6.5 1 .3.7.6 1.4.9 2.2.1.2.1.4.2.6s.1.4.2.6.1.4.2.6c0 .1.1.2.1.3 0 .1 0 .2.1.3.1.4.2.7.3 1 .1.3.1.7.2.9.1.6.2 1.1.2 1.4.1.3.1.5.1.5s0 .2.1.5c0 .3.1.8.1 1.4v3.9c0 .2 0 .4-.1.6-.1.8-.2 1.6-.3 2.3-.1.4-.1.7-.2 1.1-.1.3-.2.6-.2.9-.1.6-.3 1.1-.4 1.4-.1.3-.2.5-.2.5s0 .2-.2.5z"/><path class="st4" d="M1204.8 73.8v-.6s-.3-.1-.8-.3c-.5-.2-1.1-.4-1.8-.5-1.3-.4-2.6-.7-2.6-.7s0-.3-.1-.8c0-.2-.1-.5-.1-.8s-.1-.6-.2-.9c-.1-.6-.3-1.2-.4-1.7 0-.2-.1-.4-.1-.6 0-.1-.1-.2-.1-.2s-.1-.3-.2-.8c-.2-.5-.3-1.1-.6-1.7-.2-.6-.5-1.2-.7-1.6-.2-.4-.3-.7-.3-.7s1-.9 1.9-1.9c.5-.5.9-1 1.3-1.4.3-.4.6-.6.6-.6s-.1-.2-.3-.5c-.2-.3-.4-.7-.6-1.1-.3-.4-.5-.8-.7-1.1s-.3-.5-.3-.5-1.3.3-2.6.7c-.6.2-1.3.4-1.8.6-.5.2-.8.3-.8.3s-.2-.2-.5-.6c-.3-.4-.7-.8-1.2-1.3l-1.8-1.8s-.2-.2-.6-.5c-.2-.2-.4-.3-.6-.5s-.5-.4-.7-.6c-.5-.4-1-.7-1.4-1-.2-.1-.4-.2-.5-.3s-.2-.1-.2-.1l.6-2.6c.3-1.3.4-2.7.4-2.7l-1.6-.8-.6-.3c-.2-.1-.4-.2-.5-.2-.3-.1-.5-.2-.5-.2l-1.8 2c-.9 1-1.7 2.1-1.7 2.1s-.1 0-.2-.1c-.1 0-.3-.1-.6-.2-.2-.1-.5-.2-.8-.2-.3-.1-.6-.2-.9-.2-.6-.2-1.2-.3-1.7-.4-.5-.1-.8-.1-.8-.1s-.3-.1-.8-.1c-.2 0-.5-.1-.8-.1s-.6-.1-.9-.1-.6 0-.9-.1h-1.6s-.4-1.3-1-2.5c-.3-.6-.5-1.3-.7-1.7-.2-.5-.4-.8-.4-.8h-.6c-.3 0-.8.1-1.3.1-.9.1-1.8.3-1.8.3s-.1.3-.1.8c-.1.5-.2 1.2-.3 1.9-.2 1.4-.3 2.7-.3 2.7s-.3.1-.8.2-1.1.3-1.7.5-1.2.4-1.6.6c-.2.1-.4.2-.5.2-.1.1-.2.1-.2.1s-.3.1-.7.3l-1.6.8c-.5.3-1.1.6-1.5.9-.4.3-.7.4-.7.4s-.3-.2-.7-.5c-.4-.3-.9-.7-1.5-1.1-1.1-.8-2.3-1.5-2.3-1.5s-.2.1-.4.4c-.3.2-.6.5-1 .8-.3.3-.7.6-.9.8-.3.2-.4.4-.4.4s.5 1.3 1.1 2.5c.3.6.6 1.2.8 1.7.2.4.4.7.4.7s-.2.2-.5.6c-.3.3-.7.8-1.1 1.3s-.8 1-1.1 1.4c-.3.4-.4.7-.4.7s0 .1-.1.2-.2.3-.3.5c-.2.4-.6.9-.9 1.5s-.6 1.1-.8 1.6c-.2.4-.3.7-.3.7s-1.3-.1-2.7-.2h-2.8s-.3.9-.6 1.7c-.1.4-.3.9-.3 1.2-.1.3-.1.6-.1.6s.3.2.7.5c.4.3 1 .7 1.6 1 1.2.7 2.3 1.4 2.3 1.4v.2c0 .1-.1.3-.1.6 0 .2-.1.5-.1.8s-.1.6-.1.9-.1.6-.1.9v2.4c0 .5 0 1.1.1 1.8 0 .3.1.6.1.9s.1.6.1.8c0 .2.1.4.1.6v.2s-1.2.6-2.4 1.3c-1.2.7-2.3 1.4-2.3 1.4s.1.2.1.6c0 .2.1.4.1.6.1.2.1.4.2.6.2.9.5 1.8.5 1.8s1.4.1 2.7 0c1.4 0 2.7-.1 2.7-.1s0 .1.1.2c0 .1.1.3.2.5.2.4.4 1 .8 1.6.1.3.3.6.4.8.1.3.3.5.4.7.2.4.4.7.4.7s.7 1.1 1.4 2.1c.4.5.8 1 1.1 1.4.3.4.5.6.5.6s-.2.3-.4.7c-.2.4-.6 1-.9 1.6-.6 1.2-1.2 2.5-1.2 2.5l.4.4c.3.2.6.5.9.9.3.3.7.6 1 .8.3.2.4.4.4.4s.3-.2.7-.4c.4-.3 1-.6 1.6-1 1.1-.7 2.2-1.5 2.2-1.5s.3.2.7.4c.4.3.9.6 1.5.9.5.3 1.1.6 1.5.8.4.2.7.3.7.3s.1 0 .2.1.3.2.5.2c.4.2 1 .4 1.6.7l.9.3c.3.1.6.2.8.2.5.1.8.2.8.2s.1 1.3.2 2.7c.1.7.2 1.4.2 1.9.1.5.1.8.1.8s.2 0 .6.1c.3.1.8.1 1.2.2.5.1.9.1 1.2.2.3 0 .6.1.6.1s.2-.3.4-.8.5-1.1.8-1.7c.5-1.2 1-2.5 1-2.5h2.5c.6 0 1.3-.1 1.8-.1.2 0 .4-.1.6-.1h.2s.3 0 .8-.1 1.1-.2 1.7-.3c.3-.1.6-.1.9-.2s.6-.2.8-.2c.2-.1.4-.1.6-.2.1 0 .2-.1.2-.1l1.6 2.2c.8 1.1 1.8 2.1 1.8 2.1s.2-.1.5-.2.7-.3 1.2-.5c.4-.2.8-.4 1.1-.5.3-.2.5-.3.5-.3s-.1-1.4-.4-2.7c-.2-1.4-.5-2.7-.5-2.7s.1 0 .2-.1.3-.2.5-.3c.2-.1.4-.3.7-.4.3-.2.5-.3.8-.5s.5-.4.8-.5c.2-.2.5-.4.6-.5.4-.3.6-.5.6-.5s.2-.2.6-.5c.2-.2.4-.3.6-.5l.7-.7c.2-.2.4-.5.6-.7l.6-.6.4-.4c.1-.1.1-.2.1-.2s1.2.5 2.5.9l2.6.8s.1-.2.3-.5c.2-.3.5-.7.7-1 .3-.4.5-.8.7-1.1.2-.3.3-.5.3-.5s-.8-1.1-1.8-2.1c-.9-1-1.9-2-1.9-2s0-.1.1-.2.1-.3.2-.5.2-.5.3-.7c.1-.3.2-.6.4-.9.3-.6.4-1.2.6-1.6.1-.5.2-.8.2-.8s0-.1.1-.2c0-.1.1-.3.2-.6.1-.5.3-1.1.4-1.7.1-.3.1-.6.2-.9 0-.3.1-.6.1-.8 0-.2.1-.4.1-.6V78l2.6-.6c.7-.2 1.3-.3 1.8-.5.5-.1.8-.2.8-.2v-1.9c.3-.2.3-.7.3-1zm-33.9 21c-11.1 0-20.2-9.1-20.2-20.2s9.1-20.2 20.2-20.2 20.2 9.1 20.2 20.2-9 20.2-20.2 20.2z"/><path class="st4" d="M1272.2 165.1c-1-.3-2-.5-3-.8 0-.7-.1-1.3-.2-1.9-.1-1.2-.3-2.2-.3-2.9-.1-.7-.2-1.1-.2-1.1s-.1-.4-.2-1.1c-.1-.7-.3-1.7-.6-2.8-.1-.6-.3-1.2-.5-1.8.8-.5 1.7-1.1 2.6-1.7 2-1.4 4.1-2.9 5.5-4 1.5-1.2 2.4-2 2.4-2s-.2-.4-.4-1.1c-.1-.3-.2-.7-.4-1.1-.2-.4-.3-.8-.5-1.3-.2-.4-.4-.9-.5-1.3-.1-.2-.2-.4-.2-.6-.1-.2-.2-.3-.2-.5l-.5-1s-1.3.1-3.1.3c-.5.1-1 .1-1.5.2s-1.1.1-1.7.2l-3.6.6c-1 .2-2.1.4-3.1.6-.3-.6-.7-1.1-1-1.6-.6-1-1.2-1.8-1.5-2.4l-.6-.9s-.2-.3-.7-.9c-.4-.6-1-1.4-1.8-2.3-.2-.2-.4-.5-.6-.7s-.4-.5-.6-.7c.5-.9 1.1-1.8 1.6-2.7 1.2-2.1 2.4-4.4 3.2-6 .8-1.7 1.3-2.8 1.3-2.8l-.8-.8c-.5-.5-1.2-1.1-1.9-1.7-.3-.3-.7-.6-1-.9s-.6-.5-.9-.8c-.5-.4-.9-.7-.9-.7s-.3.2-.7.4c-.5.3-1.1.7-1.9 1.2-1.6 1-3.7 2.4-5.7 3.8-.9.6-1.7 1.3-2.5 1.9-.5-.4-1.1-.7-1.6-1.1-1-.7-1.9-1.2-2.4-1.5-.3-.2-.5-.3-.7-.4s-.3-.1-.3-.1-.3-.2-1-.5c-.6-.4-1.5-.8-2.6-1.3-.5-.2-1.1-.5-1.7-.8.1-1 .2-2.1.3-3.1.1-1.2.2-2.5.2-3.6 0-1.2.1-2.3.1-3.2v-3.1s-.1 0-.3-.1c-.2-.1-.5-.2-.8-.3-.7-.2-1.5-.5-2.4-.8-.9-.2-1.8-.5-2.4-.7-.3-.1-.6-.2-.8-.2-.2 0-.3-.1-.3-.1s-.7 1-1.7 2.6c-.5.8-1.1 1.7-1.7 2.7s-1.2 2.1-1.8 3.2c-.5.9-1 1.9-1.4 2.8-.7-.1-1.3-.2-1.9-.3-.6-.1-1.1-.1-1.6-.2-.2 0-.5-.1-.7-.1h-.6c-.7 0-1.1-.1-1.1-.1s-.4 0-1.1-.1h-2.9c-.6 0-1.2 0-1.9.1-.3-.9-.7-1.9-1.1-2.9-.9-2.3-1.9-4.6-2.7-6.3-.8-1.7-1.4-2.8-1.4-2.8h-.3c-.2 0-.5.1-.8.1-.7.1-1.6.2-2.5.4-.9.2-1.8.3-2.5.5-.3.1-.6.1-.8.2-.2 0-.3.1-.3.1s-.2 1.3-.4 3.1c-.2 1.9-.4 4.3-.6 6.8 0 1.1-.1 2.1-.1 3.1-.6.2-1.3.4-1.8.5-1.1.4-2.1.7-2.7 1s-1 .4-1 .4-.4.2-1 .4c-.2.1-.3.1-.5.2l-.6.3c-.4.2-.9.4-1.5.7-.5.3-1.1.6-1.7.9-.7-.7-1.5-1.4-2.3-2.2-.9-.9-1.8-1.7-2.7-2.4-.9-.8-1.7-1.5-2.5-2.1l-2.5-2s-.1.1-.3.2c-.2.1-.4.3-.7.5-.6.4-1.3.9-2.1 1.4-.7.5-1.5 1.1-2 1.5-.3.2-.5.4-.7.5s-.2.2-.2.2l1 3c.3.9.7 1.9 1.1 3s.9 2.2 1.4 3.4c.4 1 .9 1.9 1.3 2.9-.5.5-1 .9-1.4 1.3-.8.8-1.6 1.5-2 2.1-.5.5-.7.8-.7.8l-.2.2c-.1.1-.3.3-.5.6-.4.5-1.1 1.3-1.8 2.2-.4.5-.7 1-1.1 1.5-1-.3-2-.7-3-1-2.4-.7-4.8-1.4-6.6-1.8-.9-.2-1.7-.4-2.2-.5s-.8-.2-.8-.2-.2.4-.6 1c-.2.3-.4.6-.6 1s-.4.8-.7 1.2c-.4.8-.9 1.6-1.2 2.2l-.5 1s.9.9 2.2 2.3c1.3 1.3 3.1 3.1 5 4.7.8.7 1.6 1.4 2.4 2-.1.3-.3.6-.4.9l-.3.9c-.4 1.1-.7 2.1-.9 2.7-.2.7-.3 1-.3 1s-.1.4-.3 1.1c-.2.7-.5 1.6-.7 2.8-.1.6-.3 1.2-.4 1.9-1 .1-2 .3-3.1.4-1.2.2-2.5.4-3.6.6-.6.1-1.1.2-1.7.3l-1.5.3c-1.8.4-3 .7-3 .7s-.1.5-.1 1.1c0 .2 0 .4-.1.6v.6c0 .4-.1.9-.1 1.3 0 .5-.1.9-.1 1.3v2.4s1.2.5 2.9 1.1c1.8.6 4.2 1.4 6.6 2 1 .3 2 .5 3 .8 0 .7.1 1.3.2 1.9.1 1.2.3 2.2.3 2.9.1.7.2 1.1.2 1.1s.1.4.2 1.1c.1.7.3 1.7.6 2.8.1.6.3 1.2.5 1.8-.8.5-1.7 1.1-2.6 1.7-2 1.4-4.1 2.9-5.5 4-1.5 1.2-2.4 2-2.4 2s.2.4.4 1.1c.1.3.2.7.4 1.1.2.4.3.8.5 1.3.2.4.4.9.5 1.3.1.2.2.4.2.6.1.2.2.3.2.5l.5 1s1.3-.1 3.1-.3c.5-.1 1-.1 1.5-.2s1.1-.1 1.7-.2l3.6-.6c1-.2 2.1-.4 3.1-.6.3.6.7 1.1 1 1.6.6 1 1.2 1.8 1.5 2.4l.6.9s.2.3.7.9c.4.6 1 1.4 1.8 2.3.2.2.4.5.6.7s.4.5.6.7c-.5.9-1.1 1.8-1.6 2.7-1.2 2.1-2.4 4.4-3.2 6-.8 1.7-1.3 2.8-1.3 2.8l.8.8c.5.5 1.2 1.1 1.9 1.7.3.3.7.6 1 .9.3.3.6.5.9.8.5.4.9.7.9.7s.3-.2.7-.4c.5-.3 1.1-.7 1.9-1.2 1.6-1 3.7-2.4 5.7-3.8.9-.6 1.7-1.3 2.5-1.9.5.4 1.1.7 1.6 1.1 1 .7 1.9 1.2 2.4 1.5.3.2.5.3.7.4.2.1.3.1.3.1s.3.2 1 .5c.6.4 1.5.8 2.6 1.3.5.2 1.1.5 1.7.8-.1 1-.2 2.1-.3 3.1-.1 1.2-.2 2.5-.2 3.6 0 1.2-.1 2.3-.1 3.2v3.1s.1 0 .3.1c.2.1.5.2.8.3.7.2 1.5.5 2.4.8.9.2 1.8.5 2.4.7.3.1.6.2.8.2.2 0 .3.1.3.1s.7-1 1.7-2.6c.5-.8 1.1-1.7 1.7-2.7s1.2-2.1 1.8-3.2c.5-.9 1-1.9 1.4-2.8.7.1 1.3.2 1.9.3s1.1.1 1.6.2c.2 0 .5.1.7.1h.6c.7 0 1.1.1 1.1.1s.4 0 1.1.1h2.9c.6 0 1.2 0 1.9-.1.3.9.7 1.9 1.1 2.9.9 2.3 1.9 4.6 2.7 6.3.8 1.7 1.4 2.8 1.4 2.8h.3c.2 0 .5-.1.8-.1.7-.1 1.6-.2 2.5-.4s1.8-.3 2.5-.5c.3-.1.6-.1.8-.2.2 0 .3-.1.3-.1s.2-1.3.4-3.1c.2-1.9.4-4.3.6-6.8 0-1.1.1-2.1.1-3.1.6-.2 1.3-.4 1.8-.5 1.1-.4 2.1-.7 2.7-1s1-.4 1-.4.4-.2 1-.4c.2-.1.3-.1.5-.2l.6-.3c.4-.2.9-.4 1.5-.7.5-.3 1.1-.6 1.7-.9.7.7 1.5 1.4 2.3 2.2.9.9 1.8 1.7 2.7 2.4.9.8 1.7 1.5 2.5 2.1l2.5 2s.1-.1.3-.2c.2-.1.4-.3.7-.5.6-.4 1.3-.9 2.1-1.4.7-.5 1.5-1.1 2-1.5.3-.2.5-.4.7-.5s.2-.2.2-.2l-1-3c-.3-.9-.7-1.9-1.1-3s-.9-2.2-1.4-3.4c-.4-1-.9-1.9-1.3-2.9.5-.5 1-.9 1.4-1.3.8-.8 1.6-1.5 2-2.1.5-.5.7-.8.7-.8l.2-.2c.1-.1.3-.3.5-.6.4-.5 1.1-1.3 1.8-2.2.4-.5.7-1 1.1-1.5 1 .3 2 .7 3 1 2.4.7 4.8 1.4 6.6 1.8.9.2 1.7.4 2.2.5s.8.2.8.2.2-.4.6-1c.2-.3.4-.6.6-1s.4-.8.7-1.2c.4-.8.9-1.6 1.2-2.2l.5-1s-.9-.9-2.2-2.3c-1.3-1.3-3.1-3.1-5-4.7-.8-.7-1.6-1.4-2.4-2 .1-.3.3-.6.4-.9l.3-.9c.4-1.1.7-2.1.9-2.7.2-.7.3-1 .3-1s.1-.4.3-1.1c.2-.7.5-1.6.7-2.8.1-.6.3-1.2.4-1.9 1-.1 2-.3 3.1-.4 1.2-.2 2.5-.4 3.6-.6.6-.1 1.1-.2 1.7-.3l1.5-.3c1.8-.4 3-.7 3-.7s.1-.5.1-1.1c0-.2 0-.4.1-.6v-.6c0-.4.1-.9.1-1.3 0-.5.1-.9.1-1.3v-2.4s-1.2-.5-2.9-1.1c-1.8-.6-4.2-1.4-6.6-2zm-15.6 16.4c-.2.5-.4 1.3-.8 2.2-.1.2-.2.5-.3.7-.1.2-.2.5-.3.8-.2.5-.5 1-.7 1.6-.3.5-.5 1.1-.8 1.7l-.2.4-.2.4c-.2.3-.3.6-.5.8-1.3 2.3-2.7 4.4-3.9 5.9-.6.8-1.1 1.4-1.5 1.8-.2.2-.3.4-.4.5l-.2.2s-.2.2-.6.7c-.4.4-1 1-1.6 1.7-1.4 1.3-3.4 3-5.5 4.5s-4.4 2.7-6.1 3.6l-1.2.6c-.2.1-.3.2-.5.2-.2.1-.3.1-.4.2-.5.2-.8.3-.8.3s-.3.1-.8.3-1.3.5-2.2.8c-1.8.6-4.4 1.3-6.9 1.7-2.6.4-5.2.6-7.1.6h-2.3c-.6 0-.9-.1-.9-.1s-.3 0-.9-.1h-.5c-.2 0-.4 0-.5-.1-.4 0-.8-.1-1.3-.1-1.9-.3-4.5-.7-6.9-1.5-2.5-.7-4.9-1.7-6.6-2.5-.9-.4-1.6-.8-2.1-1.1s-.8-.4-.8-.4-.1 0-.2-.1-.3-.2-.6-.3c-.5-.3-1.2-.7-2-1.2-1.6-1.1-3.7-2.6-5.6-4.4-.2-.2-.5-.4-.7-.7l-.4-.3-.3-.3c-.4-.5-.9-.9-1.3-1.3-.4-.5-.8-.9-1.2-1.3-.2-.2-.4-.4-.5-.6-.2-.2-.3-.4-.5-.6-.6-.7-1.1-1.4-1.4-1.9s-.5-.7-.5-.7-.2-.3-.5-.7c-.3-.5-.8-1.1-1.3-2-.2-.4-.5-.9-.8-1.3-.3-.5-.5-1-.8-1.5-.5-1.1-1.1-2.2-1.6-3.5-.1-.3-.2-.6-.4-.9l-.3-.9-.3-.9c-.1-.1-.1-.3-.2-.4 0-.1-.1-.3-.1-.4-.2-.6-.3-1.1-.5-1.7-.1-.5-.3-1.1-.4-1.5-.3-.9-.4-1.7-.5-2.3s-.2-.9-.2-.9 0-.3-.1-.9c-.1-.6-.2-1.4-.3-2.3 0-.5-.1-1-.1-1.6s0-1.1-.1-1.7v-2.9c0-.3 0-.6.1-1 .1-1.3.2-2.6.4-3.8.1-.6.2-1.2.3-1.7.1-.5.2-1.1.3-1.5.2-1 .4-1.7.6-2.3.1-.5.2-.9.2-.9s.1-.3.3-.8c.2-.5.4-1.3.8-2.2.1-.2.2-.5.3-.7.1-.2.2-.5.3-.8.2-.5.5-1 .7-1.6.3-.5.5-1.1.8-1.7l.2-.4.2-.4c.2-.3.3-.6.5-.8 1.3-2.3 2.7-4.4 3.9-5.9.6-.8 1.1-1.4 1.5-1.8.2-.2.3-.4.4-.5l.2-.2s.2-.2.6-.7c.4-.4 1-1 1.6-1.7 1.4-1.3 3.4-3 5.5-4.5s4.4-2.7 6.1-3.6l1.2-.6c.2-.1.3-.2.5-.2.2-.1.3-.1.4-.2.5-.2.8-.3.8-.3s.3-.1.8-.3c.5-.2 1.3-.5 2.2-.8 1.8-.6 4.4-1.3 6.9-1.7 2.6-.4 5.2-.6 7.1-.6h2.3c.6 0 .9.1.9.1s.3 0 .9.1h.5c.2 0 .4 0 .5.1.4 0 .8.1 1.3.1 1.9.3 4.5.7 6.9 1.5 2.5.7 4.9 1.7 6.6 2.5.9.4 1.6.8 2.1 1.1.5.3.8.4.8.4s.1 0 .2.1.3.2.6.3c.5.3 1.2.7 2 1.2 1.6 1.1 3.7 2.6 5.6 4.4.2.2.5.4.7.7l.4.3.3.3c.4.5.9.9 1.3 1.3.4.5.8.9 1.2 1.3.2.2.4.4.5.6.2.2.3.4.5.6.6.7 1.1 1.4 1.4 1.9s.5.7.5.7.2.3.5.7c.3.5.8 1.1 1.3 2 .2.4.5.9.8 1.3.3.5.5 1 .8 1.5.5 1.1 1.1 2.2 1.6 3.5.1.3.2.6.4.9l.3.9.3.9c.1.1.1.3.2.4 0 .1.1.3.1.4.2.6.3 1.1.5 1.7.1.5.3 1.1.4 1.5.3.9.4 1.7.5 2.3s.2.9.2.9 0 .3.1.9c.1.6.2 1.4.3 2.3 0 .5.1 1 .1 1.6s0 1.1.1 1.7v2.9c0 .3 0 .6-.1 1-.1 1.3-.2 2.6-.4 3.8-.1.6-.2 1.2-.3 1.7-.1.5-.2 1.1-.3 1.5-.2 1-.4 1.7-.6 2.3-.1.5-.2.9-.2.9s-.2.2-.3.8z"/><path class="st3" d="M1346.5 336.3c0 7.9-6.4 14.3-14.3 14.3H989.9c-7.9 0-14.3-6.4-14.3-14.3v-203c0-7.9 6.4-14.3 14.3-14.3h342.4c7.9 0 14.3 6.4 14.3 14.3v203h-.1z"/><path class="st4" d="M975.5 338.7l-58 92.4 485-.8-55.8-92.2z"/><path class="st5" d="M996.3 137.6h329.8v183.6H996.3z"/><g class="st0"><path class="st3" d="M999.7 365.8h-11.3l5.1-11.5h11zm8.8 14.5h-26.6l5.2-11.5h25.7zm-5.3 15.9h-27.8l5.2-11.5h26.9zm10.2-30.4H1002l4.7-11.5h11zm13.6 0h-11.4l4.3-11.5h11zm13.6 0h-11.4l3.8-11.5h11zm13.6 0h-11.3l3.3-11.5h11zm13.6 0h-11.3l2.9-11.5h11zm13.6 0h-11.3l2.5-11.5h10.9zm13.7 0h-11.4l2-11.5h11zm13.6 0h-11.4l1.6-11.5h11zm13.6 0h-11.4l1.2-11.5h10.9zm13.6 0h-11.3l.6-11.5h11zm13.6 0h-11.3l.2-11.5h11zm13.6 0h-11.3l-.2-11.5h10.9zm13.7 0h-11.4l-.7-11.5h11zm13.6 0H1179l-1.1-11.5h11zm13.6 0h-11.4l-1.5-11.5h10.9zm13.6 0h-11.3l-2.1-11.5h11zm13.6 0h-11.3l-2.5-11.5h11zm13.6 0h-11.3l-2.9-11.5h11zm13.6 0h-11.3l-3.4-11.5h11zm13.7 0h-11.4l-3.8-11.5h11zm13.6 0h-11.4l-4.2-11.5h11zm13.6 0h-11.4l-4.6-11.5h10.9zm13.6 0h-11.3l-5.2-11.5h11zm13.6 0h-11.3l-5.6-11.5h11zM981 411h-12.8l5.2-11.5h12.4zm15.4 0h-12.8l4.7-11.5h12.4zm15.4 0H999l4.2-11.5h12.4zm15.3 0h-12.8l3.8-11.5h12.5zm15.4 0h-12.8l3.4-11.5h12.4zm15.4 0h-12.8l2.9-11.5h12.4zm199.2 0h-196l2.4-11.5h190.3zm16 0h-12.8l-3.4-11.5h12.5zm15.4 0h-12.9l-3.8-11.5h12.5zm15.3 0H1291l-4.2-11.5h12.4zm15.4 0h-12.8l-4.7-11.5h12.4zm15.4 0h-12.8l-5.2-11.5h12.5zm15.3 0h-12.8l-5.6-11.5h12.5zm-327.8-30.7h-11.8l4.2-11.5h11.5zm14.2 0h-11.8l3.8-11.5h11.4zm14.2 0h-11.9l3.4-11.5h11.4zm14.1 0h-11.8l2.9-11.5h11.5zm14.2 0H1067l2.5-11.5h11.4zm14.2 0h-11.8l2-11.5h11.4zm14.2 0h-11.8l1.5-11.5h11.5zm14.2 0h-11.9l1.2-11.5h11.4zm14.1 0h-11.8l.7-11.5h11.4zm14.2 0h-11.8l.2-11.5h11.5zm14.2 0h-11.8l-.3-11.5h11.5zm14.2 0h-11.8l-.7-11.5h11.4zm14.2 0h-11.9l-1.1-11.5h11.5zm14.1 0h-11.8l-1.6-11.5h11.5zm14.2 0h-11.8l-2-11.5h11.4zm14.2 0H1223l-2.5-11.5h11.5zm14.2 0h-11.8l-3-11.5h11.5zm14.1 0h-11.8l-3.3-11.5h11.4zm14.2 0h-11.8l-3.8-11.5h11.5zm14.2 0h-11.8l-4.3-11.5h11.5zm14.2 0h-11.8l-4.7-11.5h11.4zm14.2 0h-11.8l-5.2-11.5h11.5zm22 15.1h-12.4l-12.9-26.6h11.5zm-325.2.8h-12.3l4.3-11.5h11.9zm14.8 0h-12.3l3.8-11.5h12zm14.8 0H1034l3.4-11.5h11.9zm14.8 0h-12.3l2.9-11.5h12zm14.8 0h-12.3l2.5-11.5h11.9zm14.8 0h-12.3l2-11.5h12zm14.8 0h-12.3l1.6-11.5h11.9zm14.8 0H1108l1.1-11.5h12zm14.8 0h-12.3l.7-11.5h11.9zm14.8 0h-12.3l.2-11.5h12zm14.8 0h-12.3l-.2-11.5h11.9zm14.8 0h-12.3l-.7-11.5h12zm14.8 0H1182l-1.1-11.5h11.9zm14.8 0h-12.3l-1.6-11.5h12zm14.8 0h-12.3l-2-11.5h11.9zm14.8 0h-12.3l-2.5-11.5h12zm14.8 0h-12.3l-2.9-11.5h11.9zm14.8 0H1256l-3.4-11.5h12zm14.8 0h-12.3l-3.8-11.5h11.9zm14.8 0h-12.3l-4.3-11.5h12zm14.8 0h-12.3l-4.7-11.5h11.9zm14.8 0h-12.3l-5.2-11.5h12z"/></g><path class="st3" d="M999.7 364.9h-11.3l5.1-11.5h11zm8.8 14.6h-26.6l5.2-11.6h25.7zm-5.3 15.9h-27.8l5.2-11.5h26.9zm10.2-30.5H1002l4.7-11.5h11zm13.6 0h-11.4l4.3-11.5h11zm13.6 0h-11.4l3.8-11.5h11zm13.6 0h-11.3l3.3-11.5h11zm13.6 0h-11.3l2.9-11.5h11zm13.6 0h-11.3l2.5-11.5h10.9zm13.7 0h-11.4l2-11.5h11zm13.6 0h-11.4l1.6-11.5h11zm13.6 0h-11.4l1.2-11.5h10.9zm13.6 0h-11.3l.6-11.5h11zm13.6 0h-11.3l.2-11.5h11zm13.6 0h-11.3l-.2-11.5h10.9zm13.7 0h-11.4l-.7-11.5h11zm13.6 0H1179l-1.1-11.5h11zm13.6 0h-11.4l-1.5-11.5h10.9zm13.6 0h-11.3l-2.1-11.5h11zm13.6 0h-11.3l-2.5-11.5h11zm13.6 0h-11.3l-2.9-11.5h11zm13.6 0h-11.3l-3.4-11.5h11zm13.7 0h-11.4l-3.8-11.5h11zm13.6 0h-11.4l-4.2-11.5h11zm13.6 0h-11.4l-4.6-11.5h10.9zm13.6 0h-11.3l-5.2-11.5h11zm13.6 0h-11.3l-5.6-11.5h11zM981 410.2h-12.8l5.2-11.5h12.4zm15.4 0h-12.8l4.7-11.5h12.4zm15.4 0H999l4.2-11.5h12.4zm15.3 0h-12.8l3.8-11.5h12.5zm15.4 0h-12.8l3.4-11.5h12.4zm15.4 0h-12.8l2.9-11.5h12.4zm199.2 0h-196l2.4-11.5h190.3zm16 0h-12.8l-3.4-11.5h12.5zm15.4 0h-12.9l-3.8-11.5h12.5zm15.3 0H1291l-4.2-11.5h12.4zm15.4 0h-12.8l-4.7-11.5h12.4zm15.4 0h-12.8l-5.2-11.5h12.5zm15.3 0h-12.8l-5.6-11.5h12.5zm-327.8-30.7h-11.8l4.2-11.6h11.5zm14.2 0h-11.8l3.8-11.6h11.4zm14.2 0h-11.9l3.4-11.6h11.4zm14.1 0h-11.8l2.9-11.6h11.5zm14.2 0H1067l2.5-11.6h11.4zm14.2 0h-11.8l2-11.6h11.4zm14.2 0h-11.8l1.5-11.6h11.5zm14.2 0h-11.9l1.2-11.6h11.4zm14.1 0h-11.8l.7-11.6h11.4zm14.2 0h-11.8l.2-11.6h11.5zm14.2 0h-11.8l-.3-11.6h11.5zm14.2 0h-11.8l-.7-11.6h11.4zm14.2 0h-11.9l-1.1-11.6h11.5zm14.1 0h-11.8l-1.6-11.6h11.5zm14.2 0h-11.8l-2-11.6h11.4zm14.2 0H1223l-2.5-11.6h11.5zm14.2 0h-11.8l-3-11.6h11.5zm14.1 0h-11.8l-3.3-11.6h11.4zm14.2 0h-11.8l-3.8-11.6h11.5zm14.2 0h-11.8l-4.3-11.6h11.5zm14.2 0h-11.8l-4.7-11.6h11.4zm14.2 0h-11.8l-5.2-11.6h11.5zm22 15.1h-12.4l-12.9-26.7h11.5zm-325.2.8h-12.3l4.3-11.5h11.9zm14.8 0h-12.3l3.8-11.5h12zm14.8 0H1034l3.4-11.5h11.9zm14.8 0h-12.3l2.9-11.5h12zm14.8 0h-12.3l2.5-11.5h11.9zm14.8 0h-12.3l2-11.5h12zm14.8 0h-12.3l1.6-11.5h11.9zm14.8 0H1108l1.1-11.5h12zm14.8 0h-12.3l.7-11.5h11.9zm14.8 0h-12.3l.2-11.5h12zm14.8 0h-12.3l-.2-11.5h11.9zm14.8 0h-12.3l-.7-11.5h12zm14.8 0H1182l-1.1-11.5h11.9zm14.8 0h-12.3l-1.6-11.5h12zm14.8 0h-12.3l-2-11.5h11.9zm14.8 0h-12.3l-2.5-11.5h12zm14.8 0h-12.3l-2.9-11.5h11.9zm14.8 0H1256l-3.4-11.5h12zm14.8 0h-12.3l-3.8-11.5h11.9zm14.8 0h-12.3l-4.3-11.5h12zm14.8 0h-12.3l-4.7-11.5h11.9zm14.8 0h-12.3l-5.2-11.5h12z"/><path class="st2" d="M996.3 137.6v183.7l329.8-183.7z"/><path class="st3" d="M1311.1 308.4H1014c-1.2 0-2.2-1-2.2-2.2V151.7c0-1.2 1-2.2 2.2-2.2h297.1c1.2 0 2.2 1 2.2 2.2v154.5c-.1 1.2-1.1 2.2-2.2 2.2zm-297.2-158c-.7 0-1.3.6-1.3 1.3v154.5c0 .7.6 1.3 1.3 1.3H1311c.7 0 1.3-.6 1.3-1.3V151.7c0-.7-.6-1.3-1.3-1.3h-297.1z"/><path class="st3" d="M1312.8 162.7v-11c0-.9-.8-1.7-1.7-1.7H1014c-.9 0-1.7.8-1.7 1.7v11h300.5z"/><circle class="st2" cx="1019.1" cy="156" r="2.9"/><circle class="st2" cx="1027.8" cy="155.9" r="2.9"/><circle class="st2" cx="1036.4" cy="155.9" r="2.9"/><path class="st4" d="M1221.4 59.1l23.8 11.1c.7.3 1.6-.2 1.6-1v-5.4c0-.4-.3-.8-.7-1l-13.3-5.8c-.9-.4-.9-1.7 0-2l13.3-5.8c.4-.2.7-.6.7-1v-5.4c0-.8-.8-1.4-1.6-1l-23.8 11.1c-.4.2-.6.6-.6 1V58c0 .5.2.9.6 1.1zm28.6 13.1h3.8c.8 0 1.4-.5 1.7-1.2l10.2-34.7c.3-1.1-.5-2.2-1.7-2.2h-3.8c-.8 0-1.4.5-1.7 1.2L1248.3 70c-.3 1 .6 2.2 1.7 2.2zm16.5-29.5V48c0 .4.3.9.7 1l13.5 5.8c.9.4.9 1.7 0 2.1l-13.5 5.8c-.4.2-.7.6-.7 1v5.4c0 .8.8 1.4 1.6 1l23.8-10.9c.4-.2.7-.6.7-1v-4.6c0-.4-.3-.8-.7-1l-23.8-10.9c-.7-.4-1.6.1-1.6 1z"/><path class="st3" d="M55 25.6L93.3 146C141.5 59.3 55 25.6 55 25.6z"/><path class="st4" d="M93.3 146L55 25.6S3.9 103.1 93.3 146z"/><path class="st4" d="M93.3 146c-1.5-.7-3-1.5-4.4-2.3l5.6 17.6 6.7-2.1-5.6-17.6c-.8 1.4-1.5 2.9-2.3 4.4zm260.1 140l-72.5 8c43.6 37.2 72.5-8 72.5-8z"/><path class="st3" d="M280.9 294.1l72.5-8c0-.1-38.1-37.8-72.5 8z"/><path class="st4" d="M280.9 294.1c.6-.8 1.2-1.5 1.8-2.2l-10.6 1.2.4 4 10.6-1.2c-.7-.6-1.5-1.2-2.2-1.8z"/><path class="st3" d="M1040.6 187h16.3v6.7h-16.3zm21.9 0h35.1v6.7h-35.1zm-8.5 11.1h16.3v6.7H1054zm0 22.2h16.3v6.7H1054zm15.2 44.5h16.3v6.7h-16.3zm-14.8 11.2h16.3v6.7h-16.3zm21.6-77.9h21.7v6.7H1076zm27.5 0h43v6.7h-43zm-27.1 44.5h16.3v6.7h-16.3zm21.9 0h21.7v6.7h-21.7zm61.4 0h43.1v6.7h-43.1zm-33.8 0h28.5v6.7h-28.5zm9.2 11.1h35.5v6.7h-35.5zm-59.1 0h16.3v6.7H1076zm21.9 0h32.4v6.7h-32.4zm-32-44.5h21.7v6.7h-21.7zm27.6 0h43v6.7h-43zm-27.6 22.3h21.7v6.7h-21.7zm27.6 0h24.8v6.7h-24.8zm30.6 0h30.2v6.7h-30.2zm51.1 22.2h30.2v6.7h-30.2zm-31.7-44.5h43v6.7h-43z"/><path class="st2" d="M171.8 343l-61.4-70.6c-7.2 73.2 61.4 70.6 61.4 70.6z"/><path class="st5" d="M110.4 272.5l61.4 70.6c0-.1 12-67.7-61.4-70.6z"/><path class="st2" d="M110.4 272.5c1.3.1 2.5.2 3.7.3l-9-10.3-3.9 3.4 9 10.3c0-1.3.1-2.4.2-3.7z"/><path class="st5" d="M246.2 110.8L184 220.7c96.3-23.6 62.2-109.9 62.2-109.9z"/><path class="st2" d="M184 220.7l62.2-109.9S154.7 126 184 220.7z"/><path class="st5" d="M184 220.7c-.5-1.6-.9-3.2-1.3-4.8l-9.1 16 6.1 3.5 9.1-16c-1.6.4-3.2.9-4.8 1.3z"/><path d="M1402.5 430.3c0 5.2-5.5 9.4-12.3 9.4H929.8c-6.8 0-12.3-3.4-12.3-8.6" fill-rule="evenodd" clip-rule="evenodd" fill="#476d2e"/></svg>