<svg xmlns="http://www.w3.org/2000/svg" viewBox="0 0 100 100"><defs><style>.a{fill:#8bc53f;}</style></defs><title>icon</title><path class="a" d="M93.53,43.13l-43.16-15L50,28,6.47,43.13l16,6.19v5.93a3.73,3.73,0,0,0,0,7V72h2.72V62.2a3.73,3.73,0,0,0,0-7V50.36l3.3,1.27V61.9l.5.41a32.15,32.15,0,0,0,41.45,0l.5-.41V51.81ZM23.88,59.74a1,1,0,1,1,1-1A1,1,0,0,1,23.88,59.74ZM50,30.83,87.68,43.34,50,57,29.28,49l22.93-6.59-3.73-.93L24.58,47.19,12.07,43.34ZM68.27,60.59a29.43,29.43,0,0,1-37,0V52.69L50,59.91l18.27-7v7.73Z"/></svg>