<svg xmlns="http://www.w3.org/2000/svg" viewBox="0 0 100 100"><defs><style>.a{fill:#8bc53f;}</style></defs><title>icon</title><path class="a" d="M74.85,31C73.7,26.72,65.08,22.5,50,22.5S26.3,26.72,25.15,31a1,1,0,0,0-.15.49v37a.94.94,0,0,0,.12.45C26.3,73.85,36.86,77.5,50,77.5S73.65,73.86,74.88,69A1,1,0,0,0,75,68.5v-37A1,1,0,0,0,74.85,31ZM72.92,56.49a2.46,2.46,0,0,1-.12.36,2.87,2.87,0,0,1-.14.3,3.39,3.39,0,0,1-.23.37l-.22.28c-.11.13-.23.26-.36.39l-.26.24c-.16.14-.33.28-.53.43l-.26.18c-.23.16-.46.31-.72.46l-.21.12c-.3.17-.61.33-.94.5l-.13.06c-.37.18-.77.35-1.19.52h0A38.77,38.77,0,0,1,59,62.87H59q-1,.15-2,.26l-.35,0c-.6.06-1.22.12-1.85.17l-.88,0-1.43.08c-.79,0-1.6,0-2.43,0s-1.64,0-2.43,0l-1.43-.08-.88,0c-.63,0-1.24-.1-1.85-.17l-.35,0q-1-.11-2-.26H41a38.77,38.77,0,0,1-8.56-2.17h0c-.42-.17-.81-.34-1.19-.52l-.13-.06c-.34-.16-.65-.33-.95-.5l-.21-.12c-.26-.15-.49-.31-.72-.46l-.26-.18c-.19-.14-.36-.28-.53-.43l-.26-.24a5.22,5.22,0,0,1-.36-.39l-.22-.28a3.73,3.73,0,0,1-.23-.37,3.09,3.09,0,0,1-.14-.3,2.42,2.42,0,0,1-.12-.36A2.16,2.16,0,0,1,27,56a2.13,2.13,0,0,1,0-.34,1,1,0,0,0,0-.44V47.79l.09.08c.22.19.44.38.69.57C31.55,51.29,39.08,53.5,50,53.5s18.39-2.2,22.17-5a10.18,10.18,0,0,0,.83-.68h0v7.42a1,1,0,0,0,0,.44A2,2,0,0,1,73,56,2.16,2.16,0,0,1,72.92,56.49ZM73,35.79v7.42a1,1,0,0,0,0,.44A2,2,0,0,1,73,44a2.16,2.16,0,0,1-.08.49,2.46,2.46,0,0,1-.12.36,2.87,2.87,0,0,1-.14.3,3.39,3.39,0,0,1-.23.37l-.22.28c-.11.13-.23.26-.36.39l-.26.24c-.16.14-.33.28-.53.43l-.26.18c-.23.16-.46.31-.72.46l-.21.12c-.3.17-.61.33-.94.5l-.13.06c-.37.18-.77.35-1.19.52h0A38.77,38.77,0,0,1,59,50.87H59q-1,.15-2,.26l-.35,0c-.6.06-1.22.12-1.85.17l-.88,0-1.43.08c-.79,0-1.6,0-2.43,0s-1.64,0-2.43,0l-1.43-.08-.88,0c-.63,0-1.24-.1-1.85-.17l-.35,0q-1-.11-2-.26H41a38.77,38.77,0,0,1-8.56-2.17h0c-.42-.17-.81-.34-1.19-.52l-.13-.06c-.34-.16-.65-.33-.95-.5l-.21-.12c-.26-.15-.49-.31-.72-.46l-.26-.18c-.19-.14-.36-.28-.53-.43l-.26-.24a5.22,5.22,0,0,1-.36-.39l-.22-.28a3.73,3.73,0,0,1-.23-.37,3.09,3.09,0,0,1-.14-.3,2.42,2.42,0,0,1-.12-.36A2.16,2.16,0,0,1,27,44a2.13,2.13,0,0,1,0-.34,1,1,0,0,0,0-.44V35.79l.39.32.22.18c.3.24.62.47,1,.7l.23.14q.44.27.93.54l.37.19q.55.28,1.15.54l.19.09c.47.2,1,.39,1.48.57l.44.15,1.28.4.48.14c.59.16,1.19.32,1.82.46l.27.06c.56.12,1.14.24,1.73.34l.61.1q.85.14,1.75.26l.46.06c.74.09,1.51.17,2.31.23l.6,0,1.94.11.73,0c.86,0,1.74,0,2.65,0s1.79,0,2.65,0l.73,0,1.94-.11.6,0c.79-.07,1.56-.14,2.31-.23l.46-.06,1.75-.26.61-.1c.6-.11,1.18-.22,1.74-.34l.27-.06c.63-.14,1.24-.3,1.82-.46l.48-.14,1.28-.4.44-.15c.52-.18,1-.37,1.49-.57l.19-.09q.6-.26,1.15-.54l.37-.19q.49-.26.93-.54l.23-.14c.35-.23.67-.46,1-.7l.22-.18ZM50,24.5c13.56,0,23,4,23,7.5s-9.44,7.5-23,7.5-23-4-23-7.5S36.44,24.5,50,24.5ZM73,68.2a1,1,0,0,0,0,.13C72.4,71.8,63,75.5,50,75.5s-22.4-3.7-23-7.16a1.09,1.09,0,0,0,0-.13V59.79l.09.08c.22.19.44.38.69.57C31.55,63.29,39.08,65.5,50,65.5s18.39-2.2,22.17-5a10.18,10.18,0,0,0,.83-.68h0Z"/></svg>