<svg xmlns="http://www.w3.org/2000/svg" viewBox="0 0 100 100"><defs><style>.a{fill:#8bc53f;}</style></defs><title>icon</title><path class="a" d="M76.33,76.73H73.84V40.66a3,3,0,0,0-3-3H65.24a3,3,0,0,0-3,3V76.73H55.89V57a3,3,0,0,0-3-3H47.29a3,3,0,0,0-3,3V76.73H37.94V66.52a3,3,0,0,0-3-3H29.34a3,3,0,0,0-3,3V76.73H23.67a1.13,1.13,0,1,0,0,2.27H76.33a1.13,1.13,0,1,0,0-2.27Zm-40.66,0H28.56V66.52a.78.78,0,0,1,.78-.78h5.55a.78.78,0,0,1,.78.78V76.73Zm18,0H46.51V57a.78.78,0,0,1,.78-.78h5.55a.78.78,0,0,1,.78.78Zm18,0H64.46V40.66a.78.78,0,0,1,.78-.78H70.8a.78.78,0,0,1,.78.78V76.73Z"/><path class="a" d="M73.84,22.19A1.13,1.13,0,0,0,72.65,21H65.74a1.13,1.13,0,0,0,0,2.27H70l-11.2,11.2-4.22-4.22a1.13,1.13,0,0,0-1.6,0L32.59,50.61a1.13,1.13,0,0,0,1.6,1.6L53.75,32.64,58,36.87a1.13,1.13,0,0,0,1.6,0l12-12V28.7a1.13,1.13,0,0,0,2.27,0V22.25S73.84,22.21,73.84,22.19Z"/><circle class="a" cx="29.57" cy="55.36" r="1.13"/></svg>