<svg xmlns="http://www.w3.org/2000/svg" viewBox="0 0 100 100"><defs><style>.a{fill:#8bc53f;}</style></defs><title>icon</title><path class="a" d="M46,71.09V56.25a.93.93,0,0,0-.93-.93H38.89a.93.93,0,0,0,0,1.85h5.24V71.09a4,4,0,1,0,1.85,0Zm-.93,6.06A2.16,2.16,0,1,1,47.22,75,2.16,2.16,0,0,1,45.06,77.15Z"/><path class="a" d="M55.86,71.09V56.25a.93.93,0,0,0-.93-.93H48.77a.93.93,0,0,0,0,1.85H54V71.09a4,4,0,1,0,1.85,0Zm-.93,6.06A2.16,2.16,0,1,1,57.1,75,2.16,2.16,0,0,1,54.94,77.15Z"/><path class="a" d="M71.6,64.81a4,4,0,0,0-3.9,3.09h-2V56.25a.93.93,0,0,0-.93-.93H58.64a.93.93,0,0,0,0,1.85h5.24V68.82a.93.93,0,0,0,.93.93h2.89a4,4,0,1,0,3.9-4.94Zm0,6.17a2.16,2.16,0,1,1,2.16-2.16A2.16,2.16,0,0,1,71.6,71Z"/><path class="a" d="M76.8,40.94A10,10,0,0,0,72,37.66a17.52,17.52,0,0,0-32.44-8.29,8,8,0,0,0-10.21,5.94,11.12,11.12,0,0,0,2.8,21.87h2.15V67.89h-2a4,4,0,1,0,0,1.85h2.89a.93.93,0,0,0,.93-.93V56.25a.93.93,0,0,0-.93-.93H32.12A9.26,9.26,0,0,1,30.3,37a.93.93,0,0,0,.74-.79,6.15,6.15,0,0,1,8.53-4.84.93.93,0,0,0,1.18-.4,15.67,15.67,0,0,1,29.39,7.43.93.93,0,0,0,.72.89A8.13,8.13,0,0,1,69,55.33h-.5a.93.93,0,1,0,0,1.85H69A10,10,0,0,0,76.8,40.94ZM28.4,71a2.16,2.16,0,1,1,2.16-2.16A2.16,2.16,0,0,1,28.4,71Z"/><path class="a" d="M66.13,39.34h0a.93.93,0,0,0,.92-.93A12.45,12.45,0,0,0,66.2,34a.93.93,0,1,0-1.72.67,10.61,10.61,0,0,1,.73,3.78.93.93,0,0,0,.93.92Z"/><path class="a" d="M62.74,31.71a.93.93,0,1,0,1.43-1.18,12.55,12.55,0,0,0-9.7-4.59.93.93,0,0,0,0,1.85,10.71,10.71,0,0,1,8.27,3.92Z"/></svg>