<svg xmlns="http://www.w3.org/2000/svg" xmlns:xlink="http://www.w3.org/1999/xlink" viewBox="0 0 1789.76 541.6"><defs><style>.a{fill:#fff;}.b{fill:url(#a);}.c{fill:url(#b);}.d{fill:url(#c);}.e{fill:url(#d);}.f{fill:url(#e);}.g{fill:url(#f);}</style><linearGradient id="a" x1="360.85" y1="81.4" x2="142.11" y2="460.26" gradientTransform="matrix(1, 0, 0, -1, 0, 542.42)" gradientUnits="userSpaceOnUse"><stop offset="0" stop-color="#00a99d"/><stop offset="0.14" stop-color="#1aae8c"/><stop offset="0.42" stop-color="#4ab86b"/><stop offset="0.67" stop-color="#6ebf53"/><stop offset="0.87" stop-color="#83c344"/><stop offset="1" stop-color="#8bc53f"/></linearGradient><linearGradient id="b" x1="322.24" y1="148.57" x2="181.02" y2="393.17" xlink:href="#a"/><linearGradient id="c" x1="258.81" y1="202.57" x2="258.81" y2="202.58" xlink:href="#a"/><linearGradient id="d" x1="315.27" y1="322.66" x2="315.27" y2="322.66" xlink:href="#a"/><linearGradient id="e" x1="292.71" y1="200.08" x2="210.83" y2="341.9" xlink:href="#a"/><linearGradient id="f" x1="246.32" y1="281.01" x2="246.32" y2="281.01" xlink:href="#a"/></defs><title>logocolor</title><path class="a" d="M792.58,368.09q-29.74,6.06-53.42,6.06t-38.26-6.5a47.89,47.89,0,0,1-22.52-20.22,93.7,93.7,0,0,1-11-31.48q-3-17.76-3-44.33t3-44.62a95.4,95.4,0,0,1,11-31.91,47,47,0,0,1,22.38-20.22q14.44-6.35,37.54-6.35t54.29,6.35l-.86,18.77q-29.17-5.2-52-5.2-31.77,0-42,18.91t-10.25,64.54q0,22.82,1.88,36.67a80.39,80.39,0,0,0,7.36,25,32.53,32.53,0,0,0,16,15.88q10.54,4.77,30.9,4.77t48.08-5.2Z"/><path class="a" d="M939,371.27H829V171.44H851.2V351.34H939v19.93Z"/><path class="a" d="M984.33,311.2q0,43.32,46.78,43.32,24.26,0,36.53-10.25t12.27-33.06V171.44h21.95V310.63q0,33.5-17.76,48.52t-52.41,15q-34.66,0-52.13-15T962.1,310.63V171.44h22.23V311.2Z"/><path class="a" d="M1204.67,187.9q-43.32,0-43.32,32.63,0,18.19,10,25t40.43,13.57q30.47,6.79,43.17,17.61t12.7,35.66q0,61.51-63.82,61.51-21.08,0-52.85-4.91l-10.4-1.44,2.31-18.48q39.27,5.2,59.78,5.2,42.73,0,42.74-40.14,0-16.17-9.39-23.25t-35.09-12q-33.79-7.21-47.94-18.63T1138.83,222q0-53.71,64.4-53.71,21.08,0,50.54,4.33l9.82,1.44-2,18.77Q1221.41,187.9,1204.67,187.9Z"/><path class="a" d="M1285.24,191.36V171.43h144.39v19.93h-60.93V371.27h-21.95V191.36Z"/><path class="a" d="M1457.92,371.27V171.44H1579.5v19.64h-99.34v69h82v19.35h-82v72.19h99.34v19.64H1457.92Z"/><path class="a" d="M1639.85,294.74v76.53h-22.24V171.44h73.93q31.76,0,47.79,14.73t16,45.91q0,46.21-36.68,58l38.41,81.15h-24.55l-36.1-76.53h-56.6Zm52-19.64q40.72,0,40.72-42t-41-42h-51.69v84h52Z"/><path class="b" d="M467,359.67a33.28,33.28,0,0,0-61.91,18.24,9.17,9.17,0,0,1-4.72,6.57l-59.11,34.94L280,454.32a9.08,9.08,0,0,1-8.57.62l-1.07-.61,0,0,0,0a33.25,33.25,0,0,0-32.42.3,33.69,33.69,0,0,0-3.4,2.23,8.92,8.92,0,0,1-5.68-.23L104.34,387.4A9.18,9.18,0,0,1,99.45,381a33.27,33.27,0,0,0-17.11-29.52q-.72-.4-1.45-.76a8.59,8.59,0,0,1-1.55-2.14L79,203.45a9.3,9.3,0,0,1,2.61-6.84c.46-.25.93-.5,1.38-.77a33.08,33.08,0,0,0,14-16.42l0-.08c.13-.33.25-.66.37-1a33.1,33.1,0,0,0,2.08-11.64c0-.49,0-1,0-1.46a8.83,8.83,0,0,1,2.69-4.52L226.14,87.39a9.08,9.08,0,0,1,8.56-.75l1.07.59,0,0,0,0a33.25,33.25,0,0,0,32.41-.81c.41-.24.81-.5,1.21-.76a8.57,8.57,0,0,1,3-.46l126.82,70.49a9.17,9.17,0,0,1,4.89,6.44,33.29,33.29,0,1,0,17-28.61l0,0,0,0-1.06.62a8.59,8.59,0,0,1-3.94.83L289.36,64.48a9.22,9.22,0,0,1-4.83-6.12,33.08,33.08,0,0,0-3.2-14.82c-.18-.38-.36-.75-.56-1.13l-.08-.15A33.27,33.27,0,0,0,218,59.34a8.79,8.79,0,0,1-2.77,4.9L91.14,137.57a9.39,9.39,0,0,1-6.87,1.3,33.48,33.48,0,1,0-32.8,58.25,8.86,8.86,0,0,1,1.92,3.72L53,343.78a9.18,9.18,0,0,1-3.27,7.4,33.27,33.27,0,0,0,14.44,62.58,33.44,33.44,0,0,0,18.24-4.19l0,0,0,0,1.06-.62a8.8,8.8,0,0,1,6.9-.24l124.54,69.22a9.18,9.18,0,0,1,4.89,6.44,34,34,0,0,0,67.88-1.62,8.6,8.6,0,0,1,1.13-3l65.09-38.48L418,404.75a8.62,8.62,0,0,1,3.78.73l1.07.59,0,0,0,0A33.28,33.28,0,0,0,467,359.67Z"/><path class="c" d="M383.19,357.84a21.49,21.49,0,1,0-32.4-17.65,5.92,5.92,0,0,1-3,4.24L309.58,367l-39.52,22.53a5.87,5.87,0,0,1-5.54.4l-.69-.39h0a21.43,21.43,0,0,0-23.12,1.63A5.75,5.75,0,0,1,237,391l-80.4-44.69a5.92,5.92,0,0,1-3.16-4.16,21.48,21.48,0,0,0-11-19.06c-.31-.17-.62-.34-.94-.49a5.63,5.63,0,0,1-1-1.38l-.24-93.67a6,6,0,0,1,1.68-4.42c.3-.16.6-.32.9-.5a21.37,21.37,0,0,0,9-10.6l0-.05c.08-.21.16-.43.24-.65a21.35,21.35,0,0,0,1.34-7.52c0-.32,0-.63,0-.94a5.72,5.72,0,0,1,1.73-2.92l80.09-47.34a5.86,5.86,0,0,1,5.53-.48l.69.38,0,0,0,0a21.47,21.47,0,0,0,20.93-.52l.78-.49a5.57,5.57,0,0,1,2-.3L347,196.72a5.93,5.93,0,0,1,3.16,4.16,21.49,21.49,0,1,0,11-18.47l0,0,0,0-.68.4a5.54,5.54,0,0,1-2.54.53l-81.87-45.51a6,6,0,0,1-3.12-3.95,21.33,21.33,0,0,0-2.06-9.57c-.11-.24-.24-.49-.36-.73l-.05-.1a21.48,21.48,0,0,0-40.51,11,5.67,5.67,0,0,1-1.79,3.16L148.11,185a6,6,0,0,1-4.44.84,21.62,21.62,0,1,0-21.17,37.61,5.69,5.69,0,0,1,1.24,2.4l-.23,92.28a5.92,5.92,0,0,1-2.11,4.77,21.6,21.6,0,0,0,21.09,37.7l0,0,0,0,.69-.4a5.68,5.68,0,0,1,4.46-.15L228,404.77a5.92,5.92,0,0,1,3.16,4.16,21.92,21.92,0,0,0,43.83-1,5.57,5.57,0,0,1,.73-1.95l42-24.84,41.36-23.58a5.58,5.58,0,0,1,2.44.47l.69.38,0,0h0A21.48,21.48,0,0,0,383.19,357.84Z"/><path class="d" d="M258.8,339.84h0Z"/><path class="e" d="M315.27,219.76h0Z"/><path class="f" d="M328,321.48a12.46,12.46,0,1,0-18.79-10.23,3.43,3.43,0,0,1-1.77,2.46l-22.13,13.08-22.92,13.07a3.4,3.4,0,0,1-3.21.23l-.4-.23h.26a5.2,5.2,0,0,0-1.8-.89V286.73A4.29,4.29,0,0,1,259,283a9.58,9.58,0,0,0,.78-.58,12.36,12.36,0,0,0,4.81-7.26c.07-.27.11-.54.15-.81.27-.35.26-1,1-1.4l.5-.31L314.16,243c.39-.24.71-.43,1-.57,1-1.14,1.71.22,3.09.29a12.45,12.45,0,0,0,14-6,12.64,12.64,0,0,0-17-17.29h0c-.13,0-.27.34-.4.42a3.1,3.1,0,0,1-1.47.4l-47.47-26.34a3.42,3.42,0,0,1-1.81-2.27,12.32,12.32,0,0,0-1.2-5.53c-.07-.14-.14-.28-.21-.42l0-.05A12.45,12.45,0,0,0,239.2,192a3.31,3.31,0,0,1-1,1.83l-46.44,27.45a3.52,3.52,0,0,1-2.57.48,12.53,12.53,0,1,0-12.28,21.8,3.59,3.59,0,0,1,.24.32l-.2.19.43.21a3.36,3.36,0,0,1,.25.67l-.14,53.51a3.45,3.45,0,0,1-1.22,2.77,12.52,12.52,0,0,0,12.23,21.86h0l.4-.23a3.3,3.3,0,0,1,2.58-.09l46.62,25.91a3.43,3.43,0,0,1,1.83,2.41,12.71,12.71,0,0,0,25.41-.61,3.21,3.21,0,0,1,.42-1.13L290.09,335l24-13.67a3.22,3.22,0,0,1,1.41.27l.4.22h0A12.45,12.45,0,0,0,328,321.48Zm-80.75-34.39v52.6c0,.09-.38.18-.55.27a12.88,12.88,0,0,0-1.29.83,3.35,3.35,0,0,1-2.13-.09l-46.62-25.91a3.43,3.43,0,0,1-1.83-2.41,12.45,12.45,0,0,0-6.4-11l-.54-.28a3.24,3.24,0,0,1-.58-.8l-.14-54.31a4,4,0,0,1,.22-1.35,12.57,12.57,0,0,0,1.66-.82l.45-.28a3.22,3.22,0,0,1,1.14-.17l47.47,26.39a3.44,3.44,0,0,1,1.83,2.41,12.48,12.48,0,0,0,4.49,9.74c.29.24.63.48.94.7a5,5,0,0,1,1.9,3.65C247.27,286.48,247.27,286.77,247.27,287.09Zm-1-25.68h0l-.4.23a3.24,3.24,0,0,1-1.47.31L197,235.56a3.45,3.45,0,0,1-1.81-2.29,12.26,12.26,0,0,0-.15-2.19,3.37,3.37,0,0,1,.81-1.14l46.44-27.45a3.4,3.4,0,0,1,3.21-.28l.4.22h0a12.44,12.44,0,0,0,12.13-.3l.45-.28a3.22,3.22,0,0,1,1.14-.17l47.47,26.39a3.44,3.44,0,0,1,1.83,2.41,12.65,12.65,0,0,0,.06,1.39,13,13,0,0,0,.22,1.37,2.07,2.07,0,0,1,.13.55,4.13,4.13,0,0,1-.1.89,3.18,3.18,0,0,1-.55.45l-.94.58-44.32,27.46-.54.33a1.72,1.72,0,0,1-2-.39l-.54-.48a12.13,12.13,0,0,0-1.83-1.25A12.45,12.45,0,0,0,246.31,261.41Z"/><path class="g" d="M246.31,261.41Z"/></svg>