<svg xmlns="http://www.w3.org/2000/svg" viewBox="0 0 100 100"><defs><style>.a{fill:#8bc53f;}</style></defs><title>icon</title><path class="a" d="M53.5,79h-7a2.7,2.7,0,0,1-2.7-2.44l-.72-4.31a23.24,23.24,0,0,1-3.92-1.62L35.55,73.2a2.65,2.65,0,0,1-1.67.58A2.69,2.69,0,0,1,32,73l-5-5a2.7,2.7,0,0,1-.18-3.64l2.54-3.55a23.18,23.18,0,0,1-1.62-3.92l-4.37-.73A2.68,2.68,0,0,1,21,53.5v-7a2.7,2.7,0,0,1,2.44-2.7l4.31-.72a23.24,23.24,0,0,1,1.62-3.91L26.8,35.55A2.68,2.68,0,0,1,27,32l5-5a2.78,2.78,0,0,1,3.63-.18l3.56,2.54a23.12,23.12,0,0,1,3.91-1.62l.73-4.37A2.68,2.68,0,0,1,46.5,21h7a2.7,2.7,0,0,1,2.7,2.44l.72,4.31a23.19,23.19,0,0,1,3.91,1.62l3.61-2.58a2.65,2.65,0,0,1,1.66-.57A2.69,2.69,0,0,1,68,27l5,5a2.7,2.7,0,0,1,.18,3.63l-2.54,3.56a23.1,23.1,0,0,1,1.62,3.91l4.37.73A2.68,2.68,0,0,1,79,46.5v7a2.7,2.7,0,0,1-2.44,2.7l-4.31.72a23.16,23.16,0,0,1-1.62,3.92l2.58,3.61A2.68,2.68,0,0,1,73,68l-5,5a2.78,2.78,0,0,1-3.64.18l-3.55-2.54a23.15,23.15,0,0,1-3.91,1.62l-.73,4.37A2.68,2.68,0,0,1,53.5,79ZM39.09,68.54a1,1,0,0,1,.47.12,21.36,21.36,0,0,0,4.62,1.92,1,1,0,0,1,.68.76l.83,5a.82.82,0,0,0,.8.78h7a.8.8,0,0,0,.79-.71l.84-5a1,1,0,0,1,.68-.76,21.35,21.35,0,0,0,4.62-1.92,1,1,0,0,1,1,.06l4.09,2.92a.79.79,0,0,0,1.11,0l5-5a.79.79,0,0,0,.06-1.06l-3-4.14a1,1,0,0,1-.06-1,21.12,21.12,0,0,0,1.92-4.62,1,1,0,0,1,.77-.69l5-.83a.82.82,0,0,0,.78-.8v-7a.8.8,0,0,0-.71-.79l-5-.84a1,1,0,0,1-.77-.69,21.11,21.11,0,0,0-1.92-4.62,1,1,0,0,1,.06-1l2.93-4.1a.81.81,0,0,0,0-1.11l-5-5a.81.81,0,0,0-1.06-.05l-4.15,3a1,1,0,0,1-1,.06,21.3,21.3,0,0,0-4.62-1.92,1,1,0,0,1-.68-.76l-.83-5a.82.82,0,0,0-.8-.78h-7a.79.79,0,0,0-.79.71l-.83,5a1,1,0,0,1-.68.76,21.2,21.2,0,0,0-4.62,1.92,1,1,0,0,1-1-.06l-4.1-2.93a.79.79,0,0,0-1.11,0l-5,5a.79.79,0,0,0-.05,1.06l3,4.15a1,1,0,0,1,.06,1,21.29,21.29,0,0,0-1.92,4.62,1,1,0,0,1-.76.68l-5,.83a.81.81,0,0,0-.78.8v7a.79.79,0,0,0,.71.79l5,.84a1,1,0,0,1,.76.69,21.36,21.36,0,0,0,1.92,4.62,1,1,0,0,1-.06,1l-2.92,4.09a.81.81,0,0,0,0,1.11l5,5a.81.81,0,0,0,1.06.05l4.15-3A1,1,0,0,1,39.09,68.54ZM50,61.47A11.47,11.47,0,1,1,61.47,50,11.49,11.49,0,0,1,50,61.47Zm0-21A9.56,9.56,0,1,0,59.56,50,9.57,9.57,0,0,0,50,40.44Z"/></svg>