<svg xmlns="http://www.w3.org/2000/svg" viewBox="0 0 100 100"><defs><style>.a{fill:#8bc53f;}</style></defs><title>icon</title><path class="a" d="M30.5,27A4.5,4.5,0,1,0,35,31.5,4.51,4.51,0,0,0,30.5,27Zm0,7A2.5,2.5,0,1,1,33,31.5,2.5,2.5,0,0,1,30.5,34Z"/><circle class="a" cx="70" cy="30" r="1"/><circle class="a" cx="66" cy="30" r="1"/><circle class="a" cx="72" cy="33" r="1"/><circle class="a" cx="68" cy="33" r="1"/><circle class="a" cx="62" cy="30" r="1"/><circle class="a" cx="64" cy="33" r="1"/><circle class="a" cx="58" cy="30" r="1"/><circle class="a" cx="60" cy="33" r="1"/><circle class="a" cx="54" cy="30" r="1"/><circle class="a" cx="56" cy="33" r="1"/><path class="a" d="M80,37.39V25.61A4.61,4.61,0,0,0,75.39,21H24.61A4.61,4.61,0,0,0,20,25.61V37.39A4.58,4.58,0,0,0,21.78,41,4.58,4.58,0,0,0,20,44.61V56.39A4.61,4.61,0,0,0,24.61,61H49v8.1A5,5,0,0,0,45.1,73H21a1,1,0,0,0,0,2H45.1a5,5,0,0,0,9.8,0H79a1,1,0,0,0,0-2H54.9A5,5,0,0,0,51,69.1V61H75.39A4.61,4.61,0,0,0,80,56.39V44.61A4.58,4.58,0,0,0,78.22,41,4.58,4.58,0,0,0,80,37.39ZM53,74a3,3,0,1,1-3-3A3,3,0,0,1,53,74ZM78,44.61V56.39A2.61,2.61,0,0,1,75.39,59H24.61A2.61,2.61,0,0,1,22,56.39V44.61A2.61,2.61,0,0,1,24.61,42H75.39A2.61,2.61,0,0,1,78,44.61ZM24.61,40A2.61,2.61,0,0,1,22,37.39V25.61A2.61,2.61,0,0,1,24.61,23H75.39A2.61,2.61,0,0,1,78,25.61V37.39A2.61,2.61,0,0,1,75.39,40Z"/><path class="a" d="M30.5,55A4.5,4.5,0,1,0,26,50.5,4.51,4.51,0,0,0,30.5,55Zm0-7A2.5,2.5,0,1,1,28,50.5,2.5,2.5,0,0,1,30.5,48Z"/><circle class="a" cx="70" cy="49" r="1"/><circle class="a" cx="66" cy="49" r="1"/><circle class="a" cx="72" cy="52" r="1"/><circle class="a" cx="68" cy="52" r="1"/><circle class="a" cx="62" cy="49" r="1"/><circle class="a" cx="64" cy="52" r="1"/><circle class="a" cx="58" cy="49" r="1"/><circle class="a" cx="60" cy="52" r="1"/><circle class="a" cx="54" cy="49" r="1"/><circle class="a" cx="56" cy="52" r="1"/></svg>